Monoto-Regular.ufo
<glyph name="exclam" format="2">
  <advance width="500"/>
  <unicode hex="0021"/>
  <outline>
    <contour>
      <point x="223" y="201" type="line"/>
      <point x="290" y="201" type="line"/>
      <point x="307" y="714" type="line"/>
      <point x="205" y="714" type="line"/>
    </contour>
    <contour>
      <point x="256" y="-12" type="curve" smooth="yes"/>
      <point x="288" y="-12"/>
      <point x="314" y="9"/>
      <point x="314" y="55" type="curve" smooth="yes"/>
      <point x="314" y="102"/>
      <point x="289" y="120"/>
      <point x="256" y="120" type="curve" smooth="yes"/>
      <point x="221" y="120"/>
      <point x="198" y="100"/>
      <point x="198" y="55" type="curve" smooth="yes"/>
      <point x="198" y="10"/>
      <point x="221" y="-12"/>
    </contour>
  </outline>
</glyph>
<glyph name="asterisk" format="2">
  <advance width="500"/>
  <unicode hex="002A"/>
  <outline>
    <contour>
      <point x="309" y="428" type="line"/>
      <point x="378" y="469" type="line"/>
      <point x="293" y="580" type="line"/>
      <point x="412" y="589" type="line"/>
      <point x="397" y="667" type="line"/>
      <point x="277" y="631" type="line"/>
      <point x="292" y="761" type="line"/>
      <point x="208" y="761" type="line"/>
      <point x="222" y="631" type="line"/>
      <point x="103" y="666" type="line"/>
      <point x="87" y="588" type="line"/>
      <point x="204" y="580" type="line"/>
      <point x="122" y="469" type="line"/>
      <point x="189" y="428" type="line"/>
      <point x="250" y="550" type="line"/>
    </contour>
  </outline>
</glyph>
<glyph name="comma" format="2">
  <advance width="500"/>
  <unicode hex="002C"/>
  <outline>
    <contour>
      <point x="159" y="-131" type="curve"/>
      <point x="222" y="-131" type="line"/>
      <point x="254" y="-59"/>
      <point x="284" y="27"/>
      <point x="303" y="104" type="curve"/>
      <point x="296" y="115" type="line"/>
      <point x="206" y="115" type="line"/>
      <point x="198" y="44"/>
      <point x="179" y="-52"/>
    </contour>
  </outline>
</glyph>
<glyph name="two" format="2">
  <advance width="500"/>
  <unicode hex="0032"/>
  <outline>
    <contour>
      <point x="58" y="0" type="line"/>
      <point x="445" y="0" type="line"/>
      <point x="445" y="79" type="line"/>
      <point x="165" y="79" type="line"/>
      <point x="165" y="84" type="line"/>
      <point x="272" y="228" type="line" smooth="yes"/>
      <point x="357" y="343"/>
      <point x="423" y="422"/>
      <point x="423" y="536" type="curve" smooth="yes"/>
      <point x="423" y="652"/>
      <point x="354" y="724"/>
      <point x="242" y="724" type="curve" smooth="yes"/>
      <point x="164" y="724"/>
      <point x="103" y="691"/>
      <point x="53" y="643" type="curve"/>
      <point x="98" y="586" type="line"/>
      <point x="132" y="619"/>
      <point x="181" y="651"/>
      <point x="234" y="651" type="curve" smooth="yes"/>
      <point x="296" y="651"/>
      <point x="338" y="608"/>
      <point x="338" y="528" type="curve" smooth="yes"/>
      <point x="338" y="428"/>
      <point x="273" y="358"/>
      <point x="201" y="263" type="curve" smooth="yes"/>
      <point x="58" y="74" type="line"/>
    </contour>
  </outline>
</glyph>
<glyph name="three" format="2">
  <advance width="500"/>
  <unicode hex="0033"/>
  <outline>
    <contour>
      <point x="208" y="-10" type="curve" smooth="yes"/>
      <point x="360" y="-10"/>
      <point x="441" y="78"/>
      <point x="441" y="201" type="curve" smooth="yes"/>
      <point x="441" y="298"/>
      <point x="391" y="359"/>
      <point x="294" y="373" type="curve"/>
      <point x="294" y="376" type="line"/>
      <point x="377" y="391"/>
      <point x="423" y="457"/>
      <point x="423" y="544" type="curve" smooth="yes"/>
      <point x="423" y="651"/>
      <point x="353" y="724"/>
      <point x="234" y="724" type="curve" smooth="yes"/>
      <point x="167" y="724"/>
      <point x="105" y="701"/>
      <point x="59" y="662" type="curve"/>
      <point x="99" y="602" type="line"/>
      <point x="140" y="634"/>
      <point x="185" y="651"/>
      <point x="230" y="651" type="curve" smooth="yes"/>
      <point x="300" y="651"/>
      <point x="335" y="610"/>
      <point x="335" y="542" type="curve" smooth="yes"/>
      <point x="335" y="461"/>
      <point x="287" y="405"/>
      <point x="198" y="405" type="curve" smooth="yes"/>
      <point x="145" y="405" type="line"/>
      <point x="145" y="333" type="line"/>
      <point x="197" y="333" type="line" smooth="yes"/>
      <point x="298" y="333"/>
      <point x="350" y="294"/>
      <point x="350" y="203" type="curve" smooth="yes"/>
      <point x="350" y="119"/>
      <point x="306" y="63"/>
      <point x="210" y="63" type="curve" smooth="yes"/>
      <point x="157" y="63"/>
      <point x="99" y="80"/>
      <point x="53" y="110" type="curve"/>
      <point x="53" y="29" type="line"/>
      <point x="100" y="0"/>
      <point x="157" y="-10"/>
    </contour>
  </outline>
</glyph>
<glyph name="four" format="2">
  <advance width="500"/>
  <unicode hex="0034"/>
  <outline>
    <contour>
      <point x="292" y="0" type="line"/>
      <point x="377" y="0" type="line"/>
      <point x="377" y="161" type="line"/>
      <point x="460" y="161" type="line"/>
      <point x="460" y="240" type="line"/>
      <point x="377" y="240" type="line"/>
      <point x="377" y="718" type="line"/>
      <point x="275" y="718" type="line"/>
      <point x="40" y="237" type="line"/>
      <point x="40" y="161" type="line"/>
      <point x="292" y="161" type="line"/>
    </contour>
    <contour>
      <point x="123" y="240" type="line"/>
      <point x="249" y="503" type="line" smooth="yes"/>
      <point x="264" y="534"/>
      <point x="284" y="587"/>
      <point x="294" y="622" type="curve"/>
      <point x="297" y="622" type="line"/>
      <point x="295" y="576"/>
      <point x="292" y="483"/>
      <point x="292" y="409" type="curve" smooth="yes"/>
      <point x="292" y="240" type="line"/>
    </contour>
  </outline>
</glyph>
<glyph name="colon" format="2">
  <advance width="500"/>
  <unicode hex="003A"/>
  <outline>
    <contour>
      <point x="250" y="413" type="curve" smooth="yes"/>
      <point x="282" y="413"/>
      <point x="308" y="433"/>
      <point x="308" y="479" type="curve" smooth="yes"/>
      <point x="308" y="525"/>
      <point x="284" y="545"/>
      <point x="250" y="545" type="curve" smooth="yes"/>
      <point x="215" y="545"/>
      <point x="192" y="525"/>
      <point x="192" y="479" type="curve" smooth="yes"/>
      <point x="192" y="434"/>
      <point x="215" y="413"/>
    </contour>
    <contour>
      <point x="250" y="-12" type="curve" smooth="yes"/>
      <point x="282" y="-12"/>
      <point x="308" y="9"/>
      <point x="308" y="55" type="curve" smooth="yes"/>
      <point x="308" y="102"/>
      <point x="283" y="120"/>
      <point x="250" y="120" type="curve" smooth="yes"/>
      <point x="215" y="120"/>
      <point x="192" y="100"/>
      <point x="192" y="55" type="curve" smooth="yes"/>
      <point x="192" y="10"/>
      <point x="215" y="-12"/>
    </contour>
  </outline>
</glyph>
<glyph name="greater" format="2">
  <advance width="500"/>
  <unicode hex="003E"/>
  <outline>
    <contour>
      <point x="64" y="132" type="line"/>
      <point x="435" y="332" type="line"/>
      <point x="435" y="380" type="line"/>
      <point x="64" y="578" type="line"/>
      <point x="64" y="500" type="line"/>
      <point x="343" y="355" type="line"/>
      <point x="64" y="210" type="line"/>
    </contour>
  </outline>
</glyph>
<glyph name="question" format="2">
  <advance width="500"/>
  <unicode hex="003F"/>
  <outline>
    <contour>
      <point x="186" y="201" type="line"/>
      <point x="254" y="201" type="line"/>
      <point x="254" y="220" type="line" smooth="yes"/>
      <point x="254" y="275"/>
      <point x="266" y="303"/>
      <point x="320" y="358" type="curve" smooth="yes"/>
      <point x="385" y="425"/>
      <point x="420" y="467"/>
      <point x="420" y="555" type="curve" smooth="yes"/>
      <point x="420" y="661"/>
      <point x="357" y="724"/>
      <point x="244" y="724" type="curve" smooth="yes"/>
      <point x="181" y="724"/>
      <point x="127" y="706"/>
      <point x="79" y="677" type="curve"/>
      <point x="110" y="610" type="line"/>
      <point x="150" y="632"/>
      <point x="188" y="649"/>
      <point x="239" y="649" type="curve" smooth="yes"/>
      <point x="302" y="649"/>
      <point x="337" y="614"/>
      <point x="337" y="550" type="curve" smooth="yes"/>
      <point x="337" y="491"/>
      <point x="317" y="459"/>
      <point x="255" y="396" type="curve" smooth="yes"/>
      <point x="202" y="343"/>
      <point x="186" y="301"/>
      <point x="186" y="229" type="curve" smooth="yes"/>
    </contour>
    <contour>
      <point x="223" y="-12" type="curve" smooth="yes"/>
      <point x="255" y="-12"/>
      <point x="280" y="9"/>
      <point x="280" y="55" type="curve" smooth="yes"/>
      <point x="280" y="102"/>
      <point x="256" y="120"/>
      <point x="223" y="120" type="curve" smooth="yes"/>
      <point x="187" y="120"/>
      <point x="165" y="100"/>
      <point x="165" y="55" type="curve" smooth="yes"/>
      <point x="165" y="10"/>
      <point x="188" y="-12"/>
    </contour>
  </outline>
</glyph>
<glyph name="C" format="2">
  <advance width="500"/>
  <unicode hex="0043"/>
  <anchor x="287" y="0" name="bottom"/>
  <anchor x="308" y="714" name="top"/>
  <anchor x="480" y="714" name="topright"/>
  <outline>
    <contour>
      <point x="307" y="-10" type="curve" smooth="yes"/>
      <point x="367" y="-10"/>
      <point x="409" y="-3"/>
      <point x="452" y="16" type="curve"/>
      <point x="452" y="91" type="line"/>
      <point x="409" y="76"/>
      <point x="368" y="65"/>
      <point x="319" y="65" type="curve" smooth="yes"/>
      <point x="189" y="65"/>
      <point x="125" y="179"/>
      <point x="125" y="357" type="curve" smooth="yes"/>
      <point x="125" y="522"/>
      <point x="186" y="651"/>
      <point x="317" y="651" type="curve" smooth="yes"/>
      <point x="365" y="651"/>
      <point x="407" y="638"/>
      <point x="442" y="618" type="curve"/>
      <point x="475" y="688" type="line"/>
      <point x="427" y="712"/>
      <point x="374" y="726"/>
      <point x="316" y="726" type="curve" smooth="yes"/>
      <point x="135" y="726"/>
      <point x="40" y="567"/>
      <point x="40" y="358" type="curve" smooth="yes"/>
      <point x="40" y="130"/>
      <point x="135" y="-10"/>
    </contour>
  </outline>
</glyph>
<glyph name="H" format="2">
  <advance width="500"/>
  <unicode hex="0048"/>
  <anchor x="250" y="0" name="bottom"/>
  <anchor x="250" y="370" name="center"/>
  <anchor x="250" y="714" name="top"/>
  <anchor x="20" y="714" name="topleft"/>
  <anchor x="500" y="714" name="topright"/>
  <outline>
    <contour>
      <point x="45" y="0" type="line"/>
      <point x="129" y="0" type="line"/>
      <point x="129" y="330" type="line"/>
      <point x="371" y="330" type="line"/>
      <point x="371" y="0" type="line"/>
      <point x="455" y="0" type="line"/>
      <point x="455" y="714" type="line"/>
      <point x="371" y="714" type="line"/>
      <point x="371" y="408" type="line"/>
      <point x="129" y="408" type="line"/>
      <point x="129" y="714" type="line"/>
      <point x="45" y="714" type="line"/>
    </contour>
  </outline>
</glyph>
<glyph name="I" format="2">
  <advance width="500"/>
  <unicode hex="0049"/>
  <anchor x="250" y="0" name="bottom"/>
  <anchor x="316" y="10" name="ogonek"/>
  <anchor x="250" y="714" name="top"/>
  <anchor x="20" y="714" name="topleft"/>
  <anchor x="480" y="714" name="topright"/>
  <outline>
    <contour>
      <point x="75" y="0" type="line"/>
      <point x="425" y="0" type="line"/>
      <point x="425" y="59" type="line"/>
      <point x="290" y="69" type="line"/>
      <point x="290" y="645" type="line"/>
      <point x="425" y="655" type="line"/>
      <point x="425" y="714" type="line"/>
      <point x="75" y="714" type="line"/>
      <point x="75" y="655" type="line"/>
      <point x="208" y="645" type="line"/>
      <point x="208" y="69" type="line"/>
      <point x="75" y="59" type="line"/>
    </contour>
  </outline>
</glyph>
<glyph name="L" format="2">
  <advance width="500"/>
  <unicode hex="004C"/>
  <anchor x="270" y="0" name="bottom"/>
  <anchor x="250" y="357" name="center"/>
  <anchor x="119" y="714" name="top"/>
  <anchor x="363" y="714" name="topright"/>
  <outline>
    <contour>
      <point x="75" y="0" type="line"/>
      <point x="440" y="0" type="line"/>
      <point x="440" y="80" type="line"/>
      <point x="159" y="80" type="line"/>
      <point x="159" y="714" type="line"/>
      <point x="75" y="714" type="line"/>
    </contour>
  </outline>
</glyph>
<glyph name="O" format="2">
  <advance width="500"/>
  <unicode hex="004F"/>
  <anchor x="250" y="0" name="bottom"/>
  <anchor x="250" y="357" name="center"/>
  <anchor x="249" y="10" name="ogonek"/>
  <anchor x="250" y="714" name="top"/>
  <anchor x="20" y="714" name="topleft"/>
  <anchor x="500" y="714" name="topright"/>
  <outline>
    <contour>
      <point x="251" y="-10" type="curve" smooth="yes"/>
      <point x="419" y="-10"/>
      <point x="475" y="152"/>
      <point x="475" y="358" type="curve" smooth="yes"/>
      <point x="475" y="563"/>
      <point x="415" y="726"/>
      <point x="250" y="726" type="curve" smooth="yes"/>
      <point x="97" y="726"/>
      <point x="25" y="597"/>
      <point x="25" y="359" type="curve" smooth="yes"/>
      <point x="25" y="156"/>
      <point x="81" y="-10"/>
    </contour>
    <contour>
      <point x="251" y="65" type="curve" smooth="yes"/>
      <point x="158" y="65"/>
      <point x="110" y="168"/>
      <point x="110" y="358" type="curve" smooth="yes"/>
      <point x="110" y="547"/>
      <point x="150" y="651"/>
      <point x="250" y="651" type="curve" smooth="yes"/>
      <point x="343" y="651"/>
      <point x="390" y="549"/>
      <point x="390" y="358" type="curve" smooth="yes"/>
      <point x="390" y="165"/>
      <point x="344" y="65"/>
    </contour>
  </outline>
</glyph>
<glyph name="V" format="2">
  <advance width="500"/>
  <unicode hex="0056"/>
  <anchor x="250" y="0" name="bottom"/>
  <anchor x="250" y="714" name="top"/>
  <anchor x="480" y="714" name="topright"/>
  <outline>
    <contour>
      <point x="205" y="0" type="line"/>
      <point x="292" y="0" type="line"/>
      <point x="485" y="714" type="line"/>
      <point x="405" y="714" type="line"/>
      <point x="285" y="254" type="line" smooth="yes"/>
      <point x="269" y="192"/>
      <point x="257" y="127"/>
      <point x="249" y="81" type="curve"/>
      <point x="248" y="81" type="line"/>
      <point x="241" y="128"/>
      <point x="228" y="192"/>
      <point x="213" y="251" type="curve" smooth="yes"/>
      <point x="95" y="714" type="line"/>
      <point x="15" y="714" type="line"/>
    </contour>
  </outline>
</glyph>
<glyph name="bracketleft" format="2">
  <advance width="500"/>
  <unicode hex="005B"/>
  <outline>
    <contour>
      <point x="181" y="-161" type="line"/>
      <point x="390" y="-161" type="line"/>
      <point x="390" y="-93" type="line"/>
      <point x="258" y="-93" type="line"/>
      <point x="258" y="652" type="line"/>
      <point x="390" y="652" type="line"/>
      <point x="390" y="720" type="line"/>
      <point x="181" y="720" type="line"/>
    </contour>
  </outline>
</glyph>
<glyph name="underscore" format="2">
  <advance width="500"/>
  <unicode hex="005F"/>
  <outline>
    <contour>
      <point x="0" y="-157" type="line"/>
      <point x="500" y="-157" type="line"/>
      <point x="500" y="-79" type="line"/>
      <point x="0" y="-79" type="line"/>
    </contour>
  </outline>
</glyph>
<glyph name="grave" format="2">
  <advance width="500"/>
  <unicode hex="0060"/>
  <outline>
    <contour>
      <point x="240" y="606" type="curve"/>
      <point x="292" y="606" type="line"/>
      <point x="292" y="617" type="line"/>
      <point x="264" y="654"/>
      <point x="224" y="720"/>
      <point x="203" y="766" type="curve"/>
      <point x="106" y="766" type="line"/>
      <point x="106" y="757" type="line"/>
      <point x="132" y="714"/>
      <point x="200" y="640"/>
    </contour>
  </outline>
</glyph>
<glyph name="a" format="2">
  <advance width="500"/>
  <unicode hex="0061"/>
  <anchor x="252" y="0" name="bottom"/>
  <anchor x="450" y="10" name="ogonek"/>
  <anchor x="265" y="536" name="top"/>
  <anchor x="480" y="536" name="topright"/>
  <outline>
    <contour>
      <point x="209" y="-10" type="curve" smooth="yes"/>
      <point x="275" y="-10"/>
      <point x="320" y="22"/>
      <point x="357" y="76" type="curve"/>
      <point x="360" y="76" type="line"/>
      <point x="378" y="0" type="line"/>
      <point x="440" y="0" type="line"/>
      <point x="440" y="367" type="line" smooth="yes"/>
      <point x="440" y="490"/>
      <point x="373" y="547"/>
      <point x="256" y="547" type="curve" smooth="yes"/>
      <point x="189" y="547"/>
      <point x="140" y="528"/>
      <point x="86" y="499" type="curve"/>
      <point x="116" y="433" type="line"/>
      <point x="156" y="455"/>
      <point x="203" y="474"/>
      <point x="251" y="474" type="curve" smooth="yes"/>
      <point x="313" y="474"/>
      <point x="359" y="443"/>
      <point x="359" y="357" type="curve" smooth="yes"/>
      <point x="359" y="322" type="line"/>
      <point x="265" y="319" type="line" smooth="yes"/>
      <point x="129" y="315"/>
      <point x="60" y="262"/>
      <point x="60" y="150" type="curve" smooth="yes"/>
      <point x="60" y="41"/>
      <point x="125" y="-10"/>
    </contour>
    <contour>
      <point x="231" y="63" type="curve" smooth="yes"/>
      <point x="185" y="63"/>
      <point x="146" y="88"/>
      <point x="146" y="152" type="curve" smooth="yes"/>
      <point x="146" y="221"/>
      <point x="190" y="255"/>
      <point x="285" y="259" type="curve" smooth="yes"/>
      <point x="358" y="262" type="line"/>
      <point x="358" y="214" type="line" smooth="yes"/>
      <point x="358" y="110"/>
      <point x="295" y="63"/>
    </contour>
  </outline>
</glyph>
<glyph name="c" format="2">
  <advance width="500"/>
  <unicode hex="0063"/>
  <anchor x="290" y="0" name="bottom"/>
  <anchor x="285" y="536" name="top"/>
  <anchor x="480" y="536" name="topright"/>
  <outline>
    <contour>
      <point x="299" y="-10" type="curve" smooth="yes"/>
      <point x="350" y="-10"/>
      <point x="392" y="1"/>
      <point x="431" y="20" type="curve"/>
      <point x="431" y="95" type="line"/>
      <point x="392" y="76"/>
      <point x="348" y="63"/>
      <point x="304" y="63" type="curve" smooth="yes"/>
      <point x="207" y="63"/>
      <point x="156" y="125"/>
      <point x="156" y="266" type="curve" smooth="yes"/>
      <point x="156" y="408"/>
      <point x="207" y="474"/>
      <point x="307" y="474" type="curve" smooth="yes"/>
      <point x="346" y="474"/>
      <point x="377" y="468"/>
      <point x="413" y="448" type="curve"/>
      <point x="440" y="517" type="line"/>
      <point x="398" y="537"/>
      <point x="352" y="547"/>
      <point x="301" y="547" type="curve" smooth="yes"/>
      <point x="169" y="547"/>
      <point x="70" y="469"/>
      <point x="70" y="265" type="curve" smooth="yes"/>
      <point x="70" y="70"/>
      <point x="161" y="-10"/>
    </contour>
  </outline>
</glyph>
<glyph name="g" format="2">
  <advance width="500"/>
  <unicode hex="0067"/>
  <anchor x="250" y="-245" name="bottom"/>
  <anchor x="250" y="536" name="top"/>
  <anchor x="480" y="536" name="topright"/>
  <outline>
    <contour>
      <point x="230" y="-245" type="curve" smooth="yes"/>
      <point x="370" y="-245"/>
      <point x="440" y="-167"/>
      <point x="440" y="-14" type="curve" smooth="yes"/>
      <point x="440" y="536" type="line"/>
      <point x="373" y="536" type="line"/>
      <point x="364" y="465" type="line"/>
      <point x="360" y="465" type="line"/>
      <point x="328" y="520"/>
      <point x="281" y="547"/>
      <point x="224" y="547" type="curve" smooth="yes"/>
      <point x="109" y="547"/>
      <point x="40" y="439"/>
      <point x="40" y="266" type="curve" smooth="yes"/>
      <point x="40" y="92"/>
      <point x="110" y="-9"/>
      <point x="224" y="-9" type="curve" smooth="yes"/>
      <point x="280" y="-9"/>
      <point x="328" y="16"/>
      <point x="358" y="71" type="curve"/>
      <point x="361" y="71" type="line"/>
      <point x="359" y="59"/>
      <point x="358" y="21"/>
      <point x="358" y="5" type="curve" smooth="yes"/>
      <point x="358" y="-21" type="line" smooth="yes"/>
      <point x="358" y="-113"/>
      <point x="318" y="-172"/>
      <point x="231" y="-172" type="curve" smooth="yes"/>
      <point x="187" y="-172"/>
      <point x="124" y="-157"/>
      <point x="76" y="-131" type="curve"/>
      <point x="76" y="-211" type="line"/>
      <point x="122" y="-234"/>
      <point x="177" y="-245"/>
    </contour>
    <contour>
      <point x="251" y="63" type="curve" smooth="yes"/>
      <point x="167" y="63"/>
      <point x="126" y="134"/>
      <point x="126" y="267" type="curve" smooth="yes"/>
      <point x="126" y="400"/>
      <point x="167" y="474"/>
      <point x="249" y="474" type="curve" smooth="yes"/>
      <point x="326" y="474"/>
      <point x="362" y="410"/>
      <point x="362" y="267" type="curve" smooth="yes"/>
      <point x="362" y="246" type="line" smooth="yes"/>
      <point x="362" y="120"/>
      <point x="327" y="63"/>
    </contour>
  </outline>
</glyph>
<glyph name="m" format="2">
  <advance width="500"/>
  <unicode hex="006D"/>
  <anchor x="253" y="0" name="bottom"/>
  <anchor x="270" y="536" name="top"/>
  <anchor x="480" y="536" name="topright"/>
  <outline>
    <contour>
      <point x="25" y="0" type="line"/>
      <point x="103" y="0" type="line"/>
      <point x="103" y="331" type="line" smooth="yes"/>
      <point x="103" y="397"/>
      <point x="111" y="474"/>
      <point x="166" y="474" type="curve" smooth="yes"/>
      <point x="201" y="474"/>
      <point x="209" y="445"/>
      <point x="209" y="391" type="curve" smooth="yes"/>
      <point x="209" y="0" type="line"/>
      <point x="290" y="0" type="line"/>
      <point x="290" y="341" type="line" smooth="yes"/>
      <point x="290" y="412"/>
      <point x="297" y="474"/>
      <point x="351" y="474" type="curve" smooth="yes"/>
      <point x="388" y="474"/>
      <point x="397" y="445"/>
      <point x="397" y="391" type="curve" smooth="yes"/>
      <point x="397" y="0" type="line"/>
      <point x="475" y="0" type="line"/>
      <point x="475" y="401" type="line" smooth="yes"/>
      <point x="475" y="504"/>
      <point x="445" y="547"/>
      <point x="376" y="547" type="curve" smooth="yes"/>
      <point x="331" y="547"/>
      <point x="301" y="526"/>
      <point x="280" y="478" type="curve"/>
      <point x="277" y="478" type="line"/>
      <point x="261" y="524"/>
      <point x="239" y="547"/>
      <point x="191" y="547" type="curve" smooth="yes"/>
      <point x="150" y="547"/>
      <point x="118" y="526"/>
      <point x="100" y="482" type="curve"/>
      <point x="95" y="482" type="line"/>
      <point x="84" y="536" type="line"/>
      <point x="25" y="536" type="line"/>
    </contour>
  </outline>
</glyph>
<glyph name="p" format="2">
  <advance width="500"/>
  <unicode hex="0070"/>
  <anchor x="280" y="-240" name="bottom"/>
  <anchor x="280" y="536" name="top"/>
  <anchor x="480" y="536" name="topright"/>
  <outline>
    <contour>
      <point x="60" y="-240" type="line"/>
      <point x="142" y="-240" type="line"/>
      <point x="142" y="-11" type="line" smooth="yes"/>
      <point x="142" y="14"/>
      <point x="139" y="50"/>
      <point x="137" y="68" type="curve"/>
      <point x="142" y="68" type="line"/>
      <point x="172" y="26"/>
      <point x="216" y="-10"/>
      <point x="281" y="-10" type="curve" smooth="yes"/>
      <point x="388" y="-10"/>
      <point x="460" y="86"/>
      <point x="460" y="269" type="curve" smooth="yes"/>
      <point x="460" y="452"/>
      <point x="393" y="547"/>
      <point x="282" y="547" type="curve" smooth="yes"/>
      <point x="215" y="547"/>
      <point x="171" y="509"/>
      <point x="143" y="464" type="curve"/>
      <point x="139" y="464" type="line"/>
      <point x="126" y="536" type="line"/>
      <point x="60" y="536" type="line"/>
    </contour>
    <contour>
      <point x="262" y="63" type="curve" smooth="yes"/>
      <point x="178" y="63"/>
      <point x="142" y="139"/>
      <point x="142" y="269" type="curve" smooth="yes"/>
      <point x="142" y="289" type="line" smooth="yes"/>
      <point x="142" y="406"/>
      <point x="175" y="474"/>
      <point x="261" y="474" type="curve" smooth="yes"/>
      <point x="334" y="474"/>
      <point x="374" y="406"/>
      <point x="374" y="270" type="curve" smooth="yes"/>
      <point x="374" y="137"/>
      <point x="334" y="63"/>
    </contour>
  </outline>
</glyph>
<glyph name="q" format="2">
  <advance width="500"/>
  <unicode hex="0071"/>
  <anchor x="240" y="-240" name="bottom"/>
  <anchor x="240" y="536" name="top"/>
  <anchor x="480" y="536" name="topright"/>
  <outline>
    <contour>
      <point x="358" y="-240" type="line"/>
      <point x="440" y="-240" type="line"/>
      <point x="440" y="536" type="line"/>
      <point x="373" y="536" type="line"/>
      <point x="363" y="464" type="line"/>
      <point x="359" y="464" type="line"/>
      <point x="331" y="509"/>
      <point x="295" y="547"/>
      <point x="230" y="547" type="curve" smooth="yes"/>
      <point x="112" y="547"/>
      <point x="40" y="450"/>
      <point x="40" y="267" type="curve" smooth="yes"/>
      <point x="40" y="85"/>
      <point x="112" y="-10"/>
      <point x="229" y="-10" type="curve" smooth="yes"/>
      <point x="290" y="-10"/>
      <point x="332" y="27"/>
      <point x="358" y="72" type="curve"/>
      <point x="363" y="72" type="line"/>
      <point x="359" y="42"/>
      <point x="358" y="17"/>
      <point x="358" y="-11" type="curve" smooth="yes"/>
    </contour>
    <contour>
      <point x="248" y="63" type="curve" smooth="yes"/>
      <point x="173" y="63"/>
      <point x="126" y="131"/>
      <point x="126" y="266" type="curve" smooth="yes"/>
      <point x="126" y="400"/>
      <point x="171" y="474"/>
      <point x="251" y="474" type="curve" smooth="yes"/>
      <point x="328" y="474"/>
      <point x="361" y="393"/>
      <point x="361" y="267" type="curve" smooth="yes"/>
      <point x="361" y="247" type="line" smooth="yes"/>
      <point x="361" y="141"/>
      <point x="328" y="63"/>
    </contour>
  </outline>
</glyph>
<glyph name="r" format="2">
  <advance width="500"/>
  <unicode hex="0072"/>
  <anchor x="202" y="0" name="bottom"/>
  <anchor x="260" y="536" name="top"/>
  <anchor x="480" y="536" name="topright"/>
  <outline>
    <contour>
      <point x="38" y="0" type="line"/>
      <point x="368" y="0" type="line"/>
      <point x="368" y="59" type="line"/>
      <point x="242" y="69" type="line"/>
      <point x="242" y="267" type="line" smooth="yes"/>
      <point x="242" y="377"/>
      <point x="292" y="462"/>
      <point x="378" y="462" type="curve" smooth="yes"/>
      <point x="398" y="462"/>
      <point x="426" y="459"/>
      <point x="447" y="448" type="curve"/>
      <point x="470" y="530" type="line"/>
      <point x="441" y="542"/>
      <point x="414" y="547"/>
      <point x="389" y="547" type="curve" smooth="yes"/>
      <point x="316" y="547"/>
      <point x="266" y="506"/>
      <point x="239" y="441" type="curve"/>
      <point x="235" y="441" type="line"/>
      <point x="227" y="536" type="line"/>
      <point x="43" y="536" type="line"/>
      <point x="43" y="477" type="line"/>
      <point x="159" y="463" type="line"/>
      <point x="159" y="69" type="line"/>
      <point x="38" y="59" type="line"/>
    </contour>
  </outline>
</glyph>
<glyph name="v" format="2">
  <advance width="500"/>
  <unicode hex="0076"/>
  <anchor x="250" y="0" name="bottom"/>
  <anchor x="250" y="536" name="top"/>
  <anchor x="480" y="536" name="topright"/>
  <outline>
    <contour>
      <point x="200" y="0" type="line"/>
      <point x="298" y="0" type="line"/>
      <point x="470" y="536" type="line"/>
      <point x="389" y="536" type="line"/>
      <point x="296" y="223" type="line" smooth="yes"/>
      <point x="283" y="180"/>
      <point x="263" y="114"/>
      <point x="252" y="69" type="curve"/>
      <point x="250" y="69" type="line"/>
      <point x="238" y="114"/>
      <point x="218" y="180"/>
      <point x="205" y="223" type="curve" smooth="yes"/>
      <point x="109" y="536" type="line"/>
      <point x="30" y="536" type="line"/>
    </contour>
  </outline>
</glyph>
<glyph name="x" format="2">
  <advance width="500"/>
  <unicode hex="0078"/>
  <anchor x="250" y="0" name="bottom"/>
  <anchor x="250" y="536" name="top"/>
  <anchor x="480" y="536" name="topright"/>
  <outline>
    <contour>
      <point x="30" y="0" type="line"/>
      <point x="126" y="0" type="line"/>
      <point x="250" y="213" type="line"/>
      <point x="373" y="0" type="line"/>
      <point x="470" y="0" type="line"/>
      <point x="297" y="272" type="line"/>
      <point x="462" y="536" type="line"/>
      <point x="368" y="536" type="line"/>
      <point x="248" y="336" type="line"/>
      <point x="134" y="536" type="line"/>
      <point x="39" y="536" type="line"/>
      <point x="200" y="275" type="line"/>
    </contour>
  </outline>
</glyph>
<glyph name="braceleft" format="2">
  <advance width="500"/>
  <unicode hex="007B"/>
  <outline>
    <contour>
      <point x="390" y="-161" type="curve"/>
      <point x="390" y="-95" type="line"/>
      <point x="320" y="-94"/>
      <point x="291" y="-65"/>
      <point x="291" y="1" type="curve" smooth="yes"/>
      <point x="291" y="151" type="line" smooth="yes"/>
      <point x="291" y="221"/>
      <point x="268" y="263"/>
      <point x="198" y="276" type="curve"/>
      <point x="198" y="280" type="line"/>
      <point x="266" y="292"/>
      <point x="291" y="331"/>
      <point x="291" y="405" type="curve" smooth="yes"/>
      <point x="291" y="555" type="line" smooth="yes"/>
      <point x="291" y="624"/>
      <point x="324" y="649"/>
      <point x="390" y="651" type="curve"/>
      <point x="390" y="717" type="line"/>
      <point x="265" y="715"/>
      <point x="212" y="662"/>
      <point x="212" y="558" type="curve" smooth="yes"/>
      <point x="212" y="407" type="line" smooth="yes"/>
      <point x="212" y="332"/>
      <point x="180" y="309"/>
      <point x="111" y="309" type="curve"/>
      <point x="111" y="247" type="line"/>
      <point x="188" y="247"/>
      <point x="212" y="215"/>
      <point x="212" y="149" type="curve" smooth="yes"/>
      <point x="212" y="-1" type="line" smooth="yes"/>
      <point x="212" y="-109"/>
      <point x="269" y="-159"/>
    </contour>
  </outline>
</glyph>
<glyph name="asciitilde" format="2">
  <advance width="500"/>
  <unicode hex="007E"/>
  <outline>
    <contour>
      <point x="63" y="288" type="line"/>
      <point x="93" y="325"/>
      <point x="127" y="347"/>
      <point x="156" y="347" type="curve" smooth="yes"/>
      <point x="180" y="347"/>
      <point x="208" y="337"/>
      <point x="239" y="320" type="curve" smooth="yes"/>
      <point x="275" y="300"/>
      <point x="299" y="291"/>
      <point x="339" y="291" type="curve" smooth="yes"/>
      <point x="377" y="291"/>
      <point x="410" y="309"/>
      <point x="436" y="340" type="curve"/>
      <point x="436" y="417" type="line"/>
      <point x="409" y="383"/>
      <point x="374" y="359"/>
      <point x="343" y="359" type="curve" smooth="yes"/>
      <point x="318" y="359"/>
      <point x="293" y="368"/>
      <point x="259" y="386" type="curve" smooth="yes"/>
      <point x="224" y="404"/>
      <point x="197" y="416"/>
      <point x="160" y="416" type="curve" smooth="yes"/>
      <point x="121" y="416"/>
      <point x="89" y="398"/>
      <point x="63" y="365" type="curve"/>
    </contour>
  </outline>
</glyph>
<glyph name="currency" format="2">
  <advance width="500"/>
  <unicode hex="00A4"/>
  <outline>
    <contour>
      <point x="429" y="132" type="line"/>
      <point x="470" y="173" type="line"/>
      <point x="406" y="238" type="line"/>
      <point x="430" y="272"/>
      <point x="443" y="310"/>
      <point x="443" y="353" type="curve" smooth="yes"/>
      <point x="443" y="395"/>
      <point x="430" y="434"/>
      <point x="406" y="467" type="curve"/>
      <point x="471" y="533" type="line"/>
      <point x="428" y="573" type="line"/>
      <point x="363" y="508" type="line"/>
      <point x="330" y="534"/>
      <point x="292" y="546"/>
      <point x="250" y="546" type="curve" smooth="yes"/>
      <point x="207" y="546"/>
      <point x="169" y="533"/>
      <point x="135" y="507" type="curve"/>
      <point x="71" y="573" type="line"/>
      <point x="29" y="532" type="line"/>
      <point x="94" y="466" type="line"/>
      <point x="69" y="432"/>
      <point x="57" y="394"/>
      <point x="57" y="353" type="curve" smooth="yes"/>
      <point x="57" y="311"/>
      <point x="69" y="273"/>
      <point x="94" y="239" type="curve"/>
      <point x="30" y="175" type="line"/>
      <point x="71" y="133" type="line"/>
      <point x="135" y="198" type="line"/>
      <point x="167" y="173"/>
      <point x="206" y="160"/>
      <point x="249" y="160" type="curve" smooth="yes"/>
      <point x="292" y="160"/>
      <point x="330" y="173"/>
      <point x="363" y="197" type="curve"/>
    </contour>
    <contour>
      <point x="250" y="222" type="curve" smooth="yes"/>
      <point x="171" y="222"/>
      <point x="121" y="282"/>
      <point x="121" y="352" type="curve" smooth="yes"/>
      <point x="121" y="424"/>
      <point x="174" y="485"/>
      <point x="251" y="485" type="curve" smooth="yes"/>
      <point x="326" y="485"/>
      <point x="377" y="428"/>
      <point x="377" y="354" type="curve" smooth="yes"/>
      <point x="377" y="283"/>
      <point x="330" y="222"/>
    </contour>
  </outline>
</glyph>
<glyph name="ordfeminine" format="2">
  <advance width="500"/>
  <unicode hex="00AA"/>
  <outline>
    <contour>
      <point x="216" y="382" type="curve" smooth="yes"/>
      <point x="258" y="382"/>
      <point x="285" y="397"/>
      <point x="308" y="434" type="curve"/>
      <point x="319" y="388" type="line"/>
      <point x="363" y="388" type="line"/>
      <point x="363" y="609" type="line" smooth="yes"/>
      <point x="363" y="685"/>
      <point x="324" y="722"/>
      <point x="244" y="722" type="curve" smooth="yes"/>
      <point x="205" y="722"/>
      <point x="174" y="713"/>
      <point x="141" y="695" type="curve"/>
      <point x="160" y="649" type="line"/>
      <point x="186" y="663"/>
      <point x="210" y="671"/>
      <point x="238" y="671" type="curve" smooth="yes"/>
      <point x="281" y="671"/>
      <point x="300" y="655"/>
      <point x="300" y="615" type="curve" smooth="yes"/>
      <point x="300" y="594" type="line"/>
      <point x="259" y="591" type="line" smooth="yes"/>
      <point x="163" y="584"/>
      <point x="113" y="549"/>
      <point x="113" y="481" type="curve" smooth="yes"/>
      <point x="113" y="418"/>
      <point x="157" y="382"/>
    </contour>
    <contour>
      <point x="230" y="436" type="curve" smooth="yes"/>
      <point x="198" y="436"/>
      <point x="178" y="451"/>
      <point x="178" y="484" type="curve" smooth="yes"/>
      <point x="178" y="525"/>
      <point x="210" y="535"/>
      <point x="270" y="541" type="curve" smooth="yes"/>
      <point x="300" y="544" type="line"/>
      <point x="300" y="519" type="line" smooth="yes"/>
      <point x="300" y="468"/>
      <point x="275" y="436"/>
    </contour>
  </outline>
</glyph>
<glyph name="plusminus" format="2">
  <advance width="500"/>
  <unicode hex="00B1"/>
  <outline>
    <contour>
      <point x="215" y="137" type="line"/>
      <point x="284" y="137" type="line"/>
      <point x="284" y="337" type="line"/>
      <point x="433" y="337" type="line"/>
      <point x="433" y="405" type="line"/>
      <point x="284" y="405" type="line"/>
      <point x="284" y="606" type="line"/>
      <point x="215" y="606" type="line"/>
      <point x="215" y="405" type="line"/>
      <point x="65" y="405" type="line"/>
      <point x="65" y="337" type="line"/>
      <point x="215" y="337" type="line"/>
    </contour>
    <contour>
      <point x="65" y="0" type="line"/>
      <point x="434" y="0" type="line"/>
      <point x="434" y="68" type="line"/>
      <point x="65" y="68" type="line"/>
    </contour>
  </outline>
</glyph>
<glyph name="threesuperior" format="2">
  <advance width="500"/>
  <unicode hex="00B3"/>
  <outline>
    <contour>
      <point x="233" y="407" type="curve" smooth="yes"/>
      <point x="322" y="407"/>
      <point x="385" y="452"/>
      <point x="385" y="532" type="curve" smooth="yes"/>
      <point x="385" y="587"/>
      <point x="356" y="623"/>
      <point x="305" y="638" type="curve"/>
      <point x="305" y="642" type="line"/>
      <point x="348" y="659"/>
      <point x="372" y="695"/>
      <point x="372" y="743" type="curve" smooth="yes"/>
      <point x="372" y="812"/>
      <point x="321" y="853"/>
      <point x="245" y="853" type="curve" smooth="yes"/>
      <point x="198" y="853"/>
      <point x="161" y="837"/>
      <point x="126" y="805" type="curve"/>
      <point x="158" y="759" type="line"/>
      <point x="184" y="783"/>
      <point x="207" y="794"/>
      <point x="238" y="794" type="curve" smooth="yes"/>
      <point x="282" y="794"/>
      <point x="309" y="772"/>
      <point x="309" y="734" type="curve" smooth="yes"/>
      <point x="309" y="692"/>
      <point x="277" y="663"/>
      <point x="220" y="663" type="curve" smooth="yes"/>
      <point x="188" y="663" type="line"/>
      <point x="188" y="608" type="line"/>
      <point x="222" y="608" type="line" smooth="yes"/>
      <point x="287" y="608"/>
      <point x="319" y="582"/>
      <point x="319" y="535" type="curve" smooth="yes"/>
      <point x="319" y="492"/>
      <point x="293" y="467"/>
      <point x="232" y="467" type="curve" smooth="yes"/>
      <point x="195" y="467"/>
      <point x="161" y="476"/>
      <point x="130" y="496" type="curve"/>
      <point x="130" y="431" type="line"/>
      <point x="162" y="415"/>
      <point x="196" y="407"/>
    </contour>
  </outline>
</glyph>
<glyph name="onesuperior" format="2">
  <advance width="500"/>
  <unicode hex="00B9"/>
  <outline>
    <contour>
      <point x="232" y="415" type="line"/>
      <point x="297" y="415" type="line"/>
      <point x="297" y="843" type="line"/>
      <point x="242" y="843" type="line"/>
      <point x="118" y="746" type="line"/>
      <point x="152" y="701" type="line"/>
      <point x="210" y="745" type="line" smooth="yes"/>
      <point x="220" y="753"/>
      <point x="227" y="760"/>
      <point x="236" y="768" type="curve"/>
      <point x="233" y="737"/>
      <point x="232" y="707"/>
      <point x="232" y="677" type="curve" smooth="yes"/>
    </contour>
    <contour>
      <point x="138" y="415" type="line"/>
      <point x="387" y="415" type="line"/>
      <point x="387" y="461" type="line"/>
      <point x="274" y="466" type="line"/>
      <point x="249" y="466" type="line"/>
      <point x="138" y="461" type="line"/>
    </contour>
  </outline>
</glyph>
<glyph name="germandbls" format="2">
  <advance width="500"/>
  <unicode hex="00DF"/>
  <anchor x="250" y="0" name="bottom"/>
  <anchor x="250" y="765" name="top"/>
  <outline>
    <contour>
      <point x="309" y="-10" type="curve" smooth="yes"/>
      <point x="401" y="-10"/>
      <point x="453" y="49"/>
      <point x="453" y="147" type="curve" smooth="yes"/>
      <point x="453" y="215"/>
      <point x="428" y="246"/>
      <point x="368" y="316" type="curve" smooth="yes"/>
      <point x="334" y="356"/>
      <point x="321" y="378"/>
      <point x="321" y="409" type="curve" smooth="yes"/>
      <point x="321" y="492"/>
      <point x="411" y="507"/>
      <point x="411" y="618" type="curve" smooth="yes"/>
      <point x="411" y="710"/>
      <point x="348" y="765"/>
      <point x="249" y="765" type="curve" smooth="yes"/>
      <point x="135" y="765"/>
      <point x="79" y="693"/>
      <point x="79" y="588" type="curve" smooth="yes"/>
      <point x="79" y="0" type="line"/>
      <point x="160" y="0" type="line"/>
      <point x="160" y="571" type="line" smooth="yes"/>
      <point x="160" y="653"/>
      <point x="184" y="694"/>
      <point x="245" y="694" type="curve" smooth="yes"/>
      <point x="297" y="694"/>
      <point x="325" y="665"/>
      <point x="325" y="614" type="curve" smooth="yes"/>
      <point x="325" y="521"/>
      <point x="234" y="504"/>
      <point x="234" y="406" type="curve" smooth="yes"/>
      <point x="234" y="343"/>
      <point x="272" y="300"/>
      <point x="307" y="263" type="curve" smooth="yes"/>
      <point x="348" y="220"/>
      <point x="371" y="195"/>
      <point x="371" y="145" type="curve" smooth="yes"/>
      <point x="371" y="93"/>
      <point x="347" y="63"/>
      <point x="300" y="63" type="curve" smooth="yes"/>
      <point x="267" y="63"/>
      <point x="237" y="78"/>
      <point x="211" y="96" type="curve"/>
      <point x="211" y="17" type="line"/>
      <point x="238" y="-2"/>
      <point x="275" y="-10"/>
    </contour>
  </outline>
</glyph>
<glyph name="eth" format="2">
  <advance width="500"/>
  <unicode hex="00F0"/>
  <anchor x="250" y="0" name="bottom"/>
  <anchor x="250" y="268" name="center"/>
  <anchor x="250" y="765" name="top"/>
  <anchor x="480" y="760" name="topright"/>
  <outline>
    <contour>
      <point x="253" y="-10" type="curve" smooth="yes"/>
      <point x="385" y="-10"/>
      <point x="460" y="84"/>
      <point x="460" y="267" type="curve" smooth="yes"/>
      <point x="460" y="489"/>
      <point x="365" y="668"/>
      <point x="179" y="764" type="curve"/>
      <point x="143" y="710" type="line"/>
      <point x="249" y="644"/>
      <point x="340" y="548"/>
      <point x="370" y="424" type="curve"/>
      <point x="366" y="422" type="line"/>
      <point x="339" y="458"/>
      <point x="296" y="474"/>
      <point x="240" y="474" type="curve" smooth="yes"/>
      <point x="118" y="474"/>
      <point x="40" y="385"/>
      <point x="40" y="233" type="curve" smooth="yes"/>
      <point x="40" y="92"/>
      <point x="122" y="-10"/>
    </contour>
    <contour>
      <point x="255" y="61" type="curve" smooth="yes"/>
      <point x="164" y="61"/>
      <point x="125" y="134"/>
      <point x="125" y="230" type="curve" smooth="yes"/>
      <point x="125" y="343"/>
      <point x="166" y="403"/>
      <point x="255" y="403" type="curve" smooth="yes"/>
      <point x="337" y="403"/>
      <point x="375" y="331"/>
      <point x="375" y="245" type="curve" smooth="yes"/>
      <point x="375" y="124"/>
      <point x="339" y="61"/>
    </contour>
    <contour>
      <point x="158" y="555" type="line"/>
      <point x="413" y="712" type="line"/>
      <point x="380" y="765" type="line"/>
      <point x="123" y="609" type="line"/>
    </contour>
  </outline>
</glyph>
<glyph name="dcroat" format="2">
  <advance width="500"/>
  <unicode hex="0111"/>
  <anchor x="250" y="0" name="bottom"/>
  <anchor x="250" y="268" name="center"/>
  <anchor x="250" y="760" name="top"/>
  <anchor x="480" y="760" name="topright"/>
  <outline>
    <contour>
      <point x="221" y="-10" type="curve" smooth="yes"/>
      <point x="289" y="-10"/>
      <point x="333" y="27"/>
      <point x="358" y="72" type="curve"/>
      <point x="362" y="72" type="line"/>
      <point x="377" y="0" type="line"/>
      <point x="440" y="0" type="line"/>
      <point x="440" y="760" type="line"/>
      <point x="358" y="760" type="line"/>
      <point x="358" y="542" type="line" smooth="yes"/>
      <point x="358" y="519"/>
      <point x="362" y="485"/>
      <point x="364" y="462" type="curve"/>
      <point x="359" y="462" type="line"/>
      <point x="332" y="506"/>
      <point x="289" y="542"/>
      <point x="222" y="542" type="curve" smooth="yes"/>
      <point x="111" y="542"/>
      <point x="40" y="445"/>
      <point x="40" y="262" type="curve" smooth="yes"/>
      <point x="40" y="83"/>
      <point x="111" y="-10"/>
    </contour>
    <contour>
      <point x="246" y="63" type="curve" smooth="yes"/>
      <point x="158" y="63"/>
      <point x="126" y="127"/>
      <point x="126" y="254" type="curve" smooth="yes"/>
      <point x="126" y="395"/>
      <point x="164" y="469"/>
      <point x="249" y="469" type="curve" smooth="yes"/>
      <point x="336" y="469"/>
      <point x="360" y="393"/>
      <point x="360" y="262" type="curve" smooth="yes"/>
      <point x="360" y="242" type="line" smooth="yes"/>
      <point x="360" y="132"/>
      <point x="332" y="63"/>
    </contour>
    <contour>
      <point x="185" y="605" type="line"/>
      <point x="500" y="605" type="line"/>
      <point x="500" y="670" type="line"/>
      <point x="185" y="670" type="line"/>
    </contour>
  </outline>
</glyph>
<glyph name="ij" format="2">
  <advance width="500"/>
  <unicode hex="0133"/>
  <anchor x="266" y="-245" name="bottom"/>
  <anchor x="0" y="0" name="caret_1"/>
  <anchor x="256" y="765" name="top"/>
  <outline>
    <contour>
      <point x="223" y="-245" type="curve" smooth="yes"/>
      <point x="341" y="-245"/>
      <point x="407" y="-186"/>
      <point x="407" y="-62" type="curve" smooth="yes"/>
      <point x="407" y="536" type="line"/>
      <point x="325" y="536" type="line"/>
      <point x="325" y="-68" type="line" smooth="yes"/>
      <point x="325" y="-136"/>
      <point x="287" y="-172"/>
      <point x="220" y="-172" type="curve" smooth="yes"/>
      <point x="187" y="-172"/>
      <point x="138" y="-163"/>
      <point x="105" y="-153" type="curve"/>
      <point x="105" y="-228" type="line"/>
      <point x="138" y="-238"/>
      <point x="183" y="-245"/>
    </contour>
    <contour>
      <point x="94" y="0" type="line"/>
      <point x="176" y="0" type="line"/>
      <point x="176" y="536" type="line"/>
      <point x="94" y="536" type="line"/>
    </contour>
    <contour>
      <point x="136" y="633" type="curve" smooth="yes"/>
      <point x="170" y="633"/>
      <point x="193" y="654"/>
      <point x="193" y="699" type="curve" smooth="yes"/>
      <point x="193" y="744"/>
      <point x="170" y="765"/>
      <point x="136" y="765" type="curve" smooth="yes"/>
      <point x="102" y="765"/>
      <point x="80" y="744"/>
      <point x="80" y="699" type="curve" smooth="yes"/>
      <point x="80" y="655"/>
      <point x="101" y="633"/>
    </contour>
    <contour>
      <point x="363" y="633" type="curve" smooth="yes"/>
      <point x="397" y="633"/>
      <point x="420" y="654"/>
      <point x="420" y="699" type="curve" smooth="yes"/>
      <point x="420" y="744"/>
      <point x="397" y="765"/>
      <point x="363" y="765" type="curve" smooth="yes"/>
      <point x="329" y="765"/>
      <point x="307" y="744"/>
      <point x="307" y="699" type="curve" smooth="yes"/>
      <point x="307" y="655"/>
      <point x="328" y="633"/>
    </contour>
  </outline>
</glyph>
<glyph name="Lslash" format="2">
  <advance width="500"/>
  <unicode hex="0141"/>
  <anchor x="287" y="0" name="bottom"/>
  <anchor x="150" y="714" name="top"/>
  <anchor x="363" y="714" name="topright"/>
  <anchor x="250" y="357" name="center"/>
  <outline>
    <contour>
      <point x="5" y="288" type="line"/>
      <point x="312" y="456" type="line"/>
      <point x="312" y="518" type="line"/>
      <point x="5" y="350" type="line"/>
    </contour>
    <component base="L"/>
  </outline>
</glyph>
<glyph name="Eng" format="2">
  <advance width="500"/>
  <unicode hex="014A"/>
  <anchor x="255" y="-192" name="bottom"/>
  <anchor x="255" y="714" name="top"/>
  <anchor x="500" y="714" name="topright"/>
  <outline>
    <contour>
      <point x="292" y="-192" type="curve" smooth="yes"/>
      <point x="398" y="-192"/>
      <point x="455" y="-128"/>
      <point x="455" y="5" type="curve" smooth="yes"/>
      <point x="455" y="65" type="line"/>
      <point x="387" y="65" type="line"/>
      <point x="387" y="1" type="line" smooth="yes"/>
      <point x="387" y="-92"/>
      <point x="341" y="-129"/>
      <point x="284" y="-129" type="curve" smooth="yes"/>
      <point x="265" y="-129"/>
      <point x="242" y="-125"/>
      <point x="224" y="-119" type="curve"/>
      <point x="224" y="-180" type="line"/>
      <point x="242" y="-188"/>
      <point x="266" y="-192"/>
    </contour>
    <component base="N"/>
  </outline>
</glyph>
<glyph name="Tbar" format="2">
  <advance width="500"/>
  <unicode hex="0166"/>
  <anchor x="250" y="0" name="bottom"/>
  <anchor x="250" y="714" name="top"/>
  <anchor x="480" y="714" name="topright"/>
  <anchor x="250" y="357" name="center"/>
  <outline>
    <contour>
      <point x="82" y="325" type="line"/>
      <point x="419" y="325" type="line"/>
      <point x="419" y="396" type="line"/>
      <point x="82" y="396" type="line"/>
    </contour>
    <component base="T"/>
  </outline>
</glyph>
<glyph name="longs" format="2">
  <advance width="500"/>
  <unicode hex="017F"/>
  <anchor x="250" y="0" name="bottom"/>
  <anchor x="336" y="765" name="top"/>
  <outline>
    <contour>
      <point x="188" y="0" type="line"/>
      <point x="272" y="0" type="line"/>
      <point x="272" y="562" type="line" smooth="yes"/>
      <point x="272" y="660"/>
      <point x="300" y="693"/>
      <point x="359" y="693" type="curve" smooth="yes"/>
      <point x="384" y="693"/>
      <point x="407" y="687"/>
      <point x="425" y="681" type="curve"/>
      <point x="447" y="748" type="line"/>
      <point x="420" y="758"/>
      <point x="393" y="765"/>
      <point x="355" y="765" type="curve" smooth="yes"/>
      <point x="244" y="765"/>
      <point x="188" y="704"/>
      <point x="188" y="574" type="curve" smooth="yes"/>
    </contour>
  </outline>
</glyph>
<glyph name="uni0191" format="2">
  <advance width="500"/>
  <unicode hex="0191"/>
  <anchor x="263" y="-193" name="bottom"/>
  <anchor x="263" y="714" name="top"/>
  <outline>
    <contour>
      <point x="11" y="-193" type="curve" smooth="yes"/>
      <point x="95" y="-193"/>
      <point x="149" y="-147"/>
      <point x="149" y="-17" type="curve" smooth="yes"/>
      <point x="149" y="305" type="line"/>
      <point x="428" y="305" type="line"/>
      <point x="428" y="383" type="line"/>
      <point x="149" y="383" type="line"/>
      <point x="149" y="636" type="line"/>
      <point x="440" y="636" type="line"/>
      <point x="440" y="714" type="line"/>
      <point x="65" y="714" type="line"/>
      <point x="65" y="1" type="line" smooth="yes"/>
      <point x="65" y="-89"/>
      <point x="46" y="-122"/>
      <point x="2" y="-122" type="curve" smooth="yes"/>
      <point x="-19" y="-122"/>
      <point x="-38" y="-118"/>
      <point x="-54" y="-112" type="curve"/>
      <point x="-54" y="-182" type="line"/>
      <point x="-35" y="-190"/>
      <point x="-14" y="-193"/>
    </contour>
  </outline>
</glyph>
<glyph name="florin" format="2">
  <advance width="500"/>
  <unicode hex="0192"/>
  <anchor x="242" y="-240" name="bottom"/>
  <anchor x="338" y="724" name="top"/>
  <outline>
    <contour>
      <point x="139" y="-240" type="curve" smooth="yes"/>
      <point x="253" y="-240"/>
      <point x="289" y="-175"/>
      <point x="289" y="-49" type="curve" smooth="yes"/>
      <point x="289" y="402" type="line"/>
      <point x="401" y="402" type="line"/>
      <point x="401" y="470" type="line"/>
      <point x="289" y="470" type="line"/>
      <point x="289" y="539" type="line" smooth="yes"/>
      <point x="289" y="622"/>
      <point x="310" y="653"/>
      <point x="360" y="653" type="curve" smooth="yes"/>
      <point x="380" y="653"/>
      <point x="397" y="648"/>
      <point x="417" y="638" type="curve"/>
      <point x="440" y="703" type="line"/>
      <point x="407" y="718"/>
      <point x="380" y="724"/>
      <point x="348" y="724" type="curve" smooth="yes"/>
      <point x="250" y="724"/>
      <point x="208" y="666"/>
      <point x="208" y="540" type="curve" smooth="yes"/>
      <point x="208" y="473" type="line"/>
      <point x="95" y="446" type="line"/>
      <point x="95" y="402" type="line"/>
      <point x="208" y="402" type="line"/>
      <point x="208" y="-65" type="line" smooth="yes"/>
      <point x="208" y="-136"/>
      <point x="185" y="-169"/>
      <point x="128" y="-169" type="curve" smooth="yes"/>
      <point x="111" y="-169"/>
      <point x="92" y="-166"/>
      <point x="70" y="-160" type="curve"/>
      <point x="70" y="-232" type="line"/>
      <point x="91" y="-237"/>
      <point x="114" y="-240"/>
    </contour>
  </outline>
</glyph>
<glyph name="uni0199" format="2">
  <advance width="500"/>
  <unicode hex="0199"/>
  <anchor x="250" y="0" name="bottom"/>
  <anchor x="250" y="765" name="top"/>
  <outline>
    <contour>
      <point x="65" y="0" type="line"/>
      <point x="147" y="0" type="line"/>
      <point x="147" y="201" type="line"/>
      <point x="202" y="242" type="line"/>
      <point x="378" y="0" type="line"/>
      <point x="477" y="0" type="line"/>
      <point x="258" y="304" type="line"/>
      <point x="465" y="536" type="line"/>
      <point x="362" y="536" type="line"/>
      <point x="194" y="343" type="line" smooth="yes"/>
      <point x="173" y="319"/>
      <point x="159" y="300"/>
      <point x="142" y="275" type="curve"/>
      <point x="141" y="275" type="line"/>
      <point x="145" y="325"/>
      <point x="147" y="363"/>
      <point x="147" y="410" type="curve" smooth="yes"/>
      <point x="147" y="620" type="line" smooth="yes"/>
      <point x="147" y="675"/>
      <point x="158" y="692"/>
      <point x="189" y="692" type="curve" smooth="yes"/>
      <point x="200" y="692"/>
      <point x="212" y="689"/>
      <point x="224" y="684" type="curve"/>
      <point x="224" y="756" type="line"/>
      <point x="213" y="761"/>
      <point x="193" y="765"/>
      <point x="176" y="765" type="curve" smooth="yes"/>
      <point x="103" y="765"/>
      <point x="65" y="714"/>
      <point x="65" y="624" type="curve" smooth="yes"/>
    </contour>
  </outline>
</glyph>
<glyph name="uni019B" format="2">
  <advance width="500"/>
  <unicode hex="019B"/>
  <anchor x="260" y="0" name="bottom"/>
  <anchor x="266" y="766" name="top"/>
  <outline>
    <contour>
      <point x="129" y="530" type="line"/>
      <point x="354" y="610" type="line"/>
      <point x="334" y="665" type="line"/>
      <point x="110" y="586" type="line"/>
    </contour>
    <component base="lambda" xOffset="10"/>
  </outline>
</glyph>
<glyph name="uni01AA" format="2">
  <advance width="500"/>
  <unicode hex="01AA"/>
  <anchor x="254" y="-240" name="bottom"/>
  <anchor x="254" y="770" name="top"/>
  <outline>
    <contour>
      <point x="365" y="-240" type="curve" smooth="yes"/>
      <point x="402" y="-240"/>
      <point x="437" y="-233"/>
      <point x="463" y="-219" type="curve"/>
      <point x="463" y="-150" type="line"/>
      <point x="439" y="-161"/>
      <point x="411" y="-168"/>
      <point x="377" y="-168" type="curve" smooth="yes"/>
      <point x="320" y="-168"/>
      <point x="295" y="-136"/>
      <point x="295" y="-72" type="curve" smooth="yes"/>
      <point x="295" y="614" type="line" smooth="yes"/>
      <point x="295" y="717"/>
      <point x="244" y="765"/>
      <point x="168" y="765" type="curve" smooth="yes"/>
      <point x="79" y="765"/>
      <point x="41" y="707"/>
      <point x="41" y="651" type="curve" smooth="yes"/>
      <point x="41" y="583"/>
      <point x="80" y="533"/>
      <point x="169" y="533" type="curve" smooth="yes"/>
      <point x="212" y="533" type="line"/>
      <point x="212" y="-73" type="line" smooth="yes"/>
      <point x="212" y="-193"/>
      <point x="270" y="-240"/>
    </contour>
    <contour>
      <point x="174" y="602" type="line" smooth="yes"/>
      <point x="138" y="602"/>
      <point x="121" y="619"/>
      <point x="121" y="649" type="curve" smooth="yes"/>
      <point x="121" y="678"/>
      <point x="138" y="695"/>
      <point x="164" y="695" type="curve" smooth="yes"/>
      <point x="196" y="695"/>
      <point x="212" y="665"/>
      <point x="212" y="621" type="curve" smooth="yes"/>
      <point x="212" y="602" type="line"/>
    </contour>
  </outline>
</glyph>
<glyph name="uni01AD" format="2">
  <advance width="500"/>
  <unicode hex="01AD"/>
  <anchor x="250" y="0" name="bottom"/>
  <anchor x="250" y="765" name="top"/>
  <outline>
    <contour>
      <point x="342" y="-10" type="curve" smooth="yes"/>
      <point x="375" y="-10"/>
      <point x="412" y="-5"/>
      <point x="442" y="4" type="curve"/>
      <point x="442" y="77" type="line"/>
      <point x="409" y="67"/>
      <point x="379" y="63"/>
      <point x="357" y="63" type="curve" smooth="yes"/>
      <point x="296" y="63"/>
      <point x="267" y="92"/>
      <point x="267" y="157" type="curve" smooth="yes"/>
      <point x="267" y="464" type="line"/>
      <point x="445" y="464" type="line"/>
      <point x="445" y="536" type="line"/>
      <point x="269" y="536" type="line"/>
      <point x="269" y="620" type="line" smooth="yes"/>
      <point x="269" y="675"/>
      <point x="283" y="692"/>
      <point x="320" y="692" type="curve" smooth="yes"/>
      <point x="333" y="692"/>
      <point x="347" y="689"/>
      <point x="361" y="684" type="curve"/>
      <point x="361" y="756" type="line"/>
      <point x="349" y="761"/>
      <point x="327" y="765"/>
      <point x="308" y="765" type="curve" smooth="yes"/>
      <point x="235" y="765"/>
      <point x="185" y="714"/>
      <point x="185" y="624" type="curve" smooth="yes"/>
      <point x="185" y="536" type="line"/>
      <point x="50" y="515" type="line"/>
      <point x="50" y="464" type="line"/>
      <point x="185" y="464" type="line"/>
      <point x="185" y="143" type="line" smooth="yes"/>
      <point x="185" y="27"/>
      <point x="251" y="-10"/>
    </contour>
  </outline>
</glyph>
<glyph name="uni01B2" format="2">
  <advance width="500"/>
  <unicode hex="01B2"/>
  <anchor x="250" y="0" name="bottom"/>
  <anchor x="450" y="10" name="ogonek"/>
  <anchor x="250" y="714" name="top"/>
  <anchor x="480" y="714" name="topright"/>
  <outline>
    <contour>
      <point x="251" y="-10" type="curve" smooth="yes"/>
      <point x="386" y="-10"/>
      <point x="455" y="63"/>
      <point x="455" y="219" type="curve" smooth="yes"/>
      <point x="455" y="612" type="line" smooth="yes"/>
      <point x="455" y="683"/>
      <point x="420" y="724"/>
      <point x="355" y="724" type="curve" smooth="yes"/>
      <point x="328" y="724"/>
      <point x="297" y="716"/>
      <point x="283" y="706" type="curve"/>
      <point x="283" y="634" type="line"/>
      <point x="294" y="641"/>
      <point x="312" y="648"/>
      <point x="329" y="648" type="curve" smooth="yes"/>
      <point x="353" y="648"/>
      <point x="371" y="633"/>
      <point x="371" y="598" type="curve" smooth="yes"/>
      <point x="371" y="223" type="line" smooth="yes"/>
      <point x="371" y="111"/>
      <point x="331" y="65"/>
      <point x="251" y="65" type="curve" smooth="yes"/>
      <point x="172" y="65"/>
      <point x="129" y="110"/>
      <point x="129" y="222" type="curve" smooth="yes"/>
      <point x="129" y="714" type="line"/>
      <point x="45" y="714" type="line"/>
      <point x="45" y="219" type="line" smooth="yes"/>
      <point x="45" y="63"/>
      <point x="115" y="-10"/>
    </contour>
  </outline>
</glyph>
<glyph name="uni01B3" format="2">
  <advance width="500"/>
  <unicode hex="01B3"/>
  <anchor x="250" y="0" name="bottom"/>
  <anchor x="250" y="714" name="top"/>
  <outline>
    <contour>
      <point x="201" y="0" type="line"/>
      <point x="285" y="0" type="line"/>
      <point x="285" y="278" type="line"/>
      <point x="480" y="714" type="line"/>
      <point x="392" y="714" type="line"/>
      <point x="244" y="357" type="line"/>
      <point x="132" y="626" type="line" smooth="yes"/>
      <point x="103" y="696"/>
      <point x="80" y="722"/>
      <point x="32" y="722" type="curve" smooth="yes"/>
      <point x="10" y="722"/>
      <point x="-6" y="718"/>
      <point x="-17" y="713" type="curve"/>
      <point x="-17" y="640" type="line"/>
      <point x="-10" y="643"/>
      <point x="1" y="647"/>
      <point x="15" y="647" type="curve" smooth="yes"/>
      <point x="34" y="647"/>
      <point x="47" y="634"/>
      <point x="64" y="594" type="curve" smooth="yes"/>
      <point x="201" y="276" type="line"/>
    </contour>
  </outline>
</glyph>
<glyph name="uni01B5" format="2">
  <advance width="500"/>
  <unicode hex="01B5"/>
  <anchor x="260" y="0" name="bottom"/>
  <anchor x="260" y="714" name="top"/>
  <anchor x="480" y="714" name="topright"/>
  <outline>
    <contour>
      <point x="86" y="329" type="line"/>
      <point x="424" y="329" type="line"/>
      <point x="424" y="407" type="line"/>
      <point x="86" y="407" type="line"/>
    </contour>
    <component base="Z"/>
  </outline>
</glyph>
<glyph name="uni01BB" format="2">
  <advance width="500"/>
  <unicode hex="01BB"/>
  <anchor x="264" y="0" name="bottom"/>
  <anchor x="250" y="714" name="top"/>
  <outline>
    <contour>
      <point x="93" y="323" type="line"/>
      <point x="428" y="323" type="line"/>
      <point x="428" y="385" type="line"/>
      <point x="93" y="385" type="line"/>
    </contour>
    <component base="two"/>
  </outline>
</glyph>
<glyph name="uni01BC" format="2">
  <advance width="500"/>
  <unicode hex="01BC"/>
  <anchor x="250" y="0" name="bottom"/>
  <anchor x="250" y="714" name="top"/>
  <outline>
    <contour>
      <point x="212" y="-10" type="curve" smooth="yes"/>
      <point x="364" y="-10"/>
      <point x="447" y="87"/>
      <point x="447" y="230" type="curve" smooth="yes"/>
      <point x="447" y="354"/>
      <point x="376" y="439"/>
      <point x="238" y="439" type="curve"/>
      <point x="217" y="439" type="line"/>
      <point x="217" y="639" type="line"/>
      <point x="412" y="639" type="line"/>
      <point x="412" y="714" type="line"/>
      <point x="43" y="714" type="line"/>
      <point x="43" y="639" type="line"/>
      <point x="137" y="639" type="line"/>
      <point x="137" y="368" type="line"/>
      <point x="214" y="368" type="line"/>
      <point x="308" y="368"/>
      <point x="362" y="320"/>
      <point x="362" y="227" type="curve" smooth="yes"/>
      <point x="362" y="138"/>
      <point x="312" y="63"/>
      <point x="207" y="63" type="curve" smooth="yes"/>
      <point x="157" y="63"/>
      <point x="99" y="78"/>
      <point x="62" y="103" type="curve"/>
      <point x="62" y="20" type="line"/>
      <point x="95" y="0"/>
      <point x="150" y="-10"/>
    </contour>
  </outline>
</glyph>
<glyph name="uni01BF" format="2">
  <advance width="500"/>
  <unicode hex="01BF"/>
  <anchor x="273" y="-240" name="bottom"/>
  <anchor x="273" y="553" name="top"/>
  <outline>
    <contour>
      <point x="65" y="-240" type="line"/>
      <point x="146" y="-240" type="line"/>
      <point x="146" y="-10" type="line"/>
      <point x="277" y="-7"/>
      <point x="441" y="96"/>
      <point x="441" y="325" type="curve" smooth="yes"/>
      <point x="441" y="464"/>
      <point x="386" y="547"/>
      <point x="273" y="547" type="curve" smooth="yes"/>
      <point x="215" y="547"/>
      <point x="173" y="525"/>
      <point x="146" y="464" type="curve"/>
      <point x="141" y="464" type="line"/>
      <point x="131" y="537" type="line"/>
      <point x="65" y="537" type="line"/>
    </contour>
    <contour>
      <point x="146" y="61" type="curve"/>
      <point x="146" y="285" type="line" smooth="yes"/>
      <point x="146" y="417"/>
      <point x="178" y="477"/>
      <point x="255" y="477" type="curve" smooth="yes"/>
      <point x="332" y="477"/>
      <point x="358" y="412"/>
      <point x="358" y="323" type="curve" smooth="yes"/>
      <point x="358" y="141"/>
      <point x="236" y="63"/>
    </contour>
  </outline>
</glyph>
<glyph name="uni01C0" format="2">
  <advance width="500"/>
  <unicode hex="01C0"/>
  <anchor x="250" y="0" name="bottom"/>
  <anchor x="250" y="763" name="top"/>
  <outline>
    <contour>
      <point x="212" y="0" type="line"/>
      <point x="287" y="0" type="line"/>
      <point x="287" y="763" type="line"/>
      <point x="212" y="763" type="line"/>
    </contour>
  </outline>
</glyph>
<glyph name="uni01F6" format="2">
  <advance width="500"/>
  <unicode hex="01F6"/>
  <anchor x="250" y="0" name="bottom"/>
  <anchor x="250" y="357" name="center"/>
  <anchor x="250" y="714" name="top"/>
  <anchor x="20" y="714" name="topleft"/>
  <outline>
    <contour>
      <point x="340" y="-10" type="curve" smooth="yes"/>
      <point x="411" y="-10"/>
      <point x="455" y="45"/>
      <point x="455" y="108" type="curve" smooth="yes"/>
      <point x="455" y="537" type="line"/>
      <point x="375" y="537" type="line"/>
      <point x="375" y="110" type="line" smooth="yes"/>
      <point x="375" y="82"/>
      <point x="361" y="65"/>
      <point x="340" y="65" type="curve" smooth="yes"/>
      <point x="316" y="65"/>
      <point x="304" y="82"/>
      <point x="304" y="110" type="curve" smooth="yes"/>
      <point x="304" y="714" type="line"/>
      <point x="224" y="714" type="line"/>
      <point x="224" y="411" type="line"/>
      <point x="130" y="411" type="line"/>
      <point x="130" y="714" type="line"/>
      <point x="50" y="714" type="line"/>
      <point x="50" y="0" type="line"/>
      <point x="130" y="0" type="line"/>
      <point x="130" y="335" type="line"/>
      <point x="224" y="335" type="line"/>
      <point x="224" y="108" type="line" smooth="yes"/>
      <point x="224" y="45"/>
      <point x="258" y="-10"/>
    </contour>
  </outline>
</glyph>
<glyph name="uni01F7" format="2">
  <advance width="500"/>
  <unicode hex="01F7"/>
  <anchor x="269" y="-240" name="bottom"/>
  <anchor x="269" y="714" name="top"/>
  <outline>
    <contour>
      <point x="66" y="-240" type="line"/>
      <point x="150" y="-240" type="line"/>
      <point x="150" y="-1" type="line"/>
      <point x="299" y="55"/>
      <point x="469" y="213"/>
      <point x="469" y="450" type="curve" smooth="yes"/>
      <point x="469" y="629"/>
      <point x="408" y="724"/>
      <point x="288" y="724" type="curve" smooth="yes"/>
      <point x="223" y="724"/>
      <point x="179" y="698"/>
      <point x="150" y="639" type="curve"/>
      <point x="146" y="639" type="line"/>
      <point x="135" y="714" type="line"/>
      <point x="66" y="714" type="line"/>
    </contour>
    <contour>
      <point x="150" y="76" type="curve"/>
      <point x="150" y="502" type="line" smooth="yes"/>
      <point x="150" y="598"/>
      <point x="203" y="648"/>
      <point x="265" y="648" type="curve" smooth="yes"/>
      <point x="342" y="648"/>
      <point x="381" y="592"/>
      <point x="381" y="456" type="curve" smooth="yes"/>
      <point x="381" y="251"/>
      <point x="253" y="126"/>
    </contour>
  </outline>
</glyph>
<glyph name="uni0220" format="2">
  <advance width="500"/>
  <unicode hex="0220"/>
  <anchor x="250" y="-240" name="bottom"/>
  <anchor x="250" y="357" name="center"/>
  <anchor x="250" y="714" name="top"/>
  <anchor x="20" y="714" name="topleft"/>
  <outline>
    <contour>
      <point x="357" y="-240" type="line"/>
      <point x="441" y="-240" type="line"/>
      <point x="441" y="542" type="line" smooth="yes"/>
      <point x="441" y="669"/>
      <point x="389" y="724"/>
      <point x="290" y="724" type="curve" smooth="yes"/>
      <point x="228" y="724"/>
      <point x="179" y="692"/>
      <point x="154" y="640" type="curve"/>
      <point x="150" y="640" type="line"/>
      <point x="139" y="714" type="line"/>
      <point x="70" y="714" type="line"/>
      <point x="70" y="0" type="line"/>
      <point x="154" y="0" type="line"/>
      <point x="154" y="509" type="line" smooth="yes"/>
      <point x="154" y="606"/>
      <point x="209" y="648"/>
      <point x="266" y="648" type="curve" smooth="yes"/>
      <point x="331" y="648"/>
      <point x="357" y="611"/>
      <point x="357" y="527" type="curve" smooth="yes"/>
    </contour>
  </outline>
</glyph>
<glyph name="uni0223" format="2">
  <advance width="500"/>
  <unicode hex="0223"/>
  <anchor x="250" y="0" name="bottom"/>
  <anchor x="250" y="760" name="top"/>
  <outline>
    <contour>
      <point x="249" y="-10" type="curve" smooth="yes"/>
      <point x="386" y="-10"/>
      <point x="461" y="89"/>
      <point x="461" y="237" type="curve" smooth="yes"/>
      <point x="461" y="352"/>
      <point x="413" y="425"/>
      <point x="352" y="449" type="curve"/>
      <point x="407" y="473"/>
      <point x="428" y="521"/>
      <point x="428" y="601" type="curve" smooth="yes"/>
      <point x="428" y="760" type="line"/>
      <point x="348" y="760" type="line"/>
      <point x="348" y="601" type="line" smooth="yes"/>
      <point x="348" y="518"/>
      <point x="317" y="481"/>
      <point x="249" y="481" type="curve" smooth="yes"/>
      <point x="181" y="481"/>
      <point x="153" y="515"/>
      <point x="153" y="602" type="curve" smooth="yes"/>
      <point x="153" y="760" type="line"/>
      <point x="73" y="760" type="line"/>
      <point x="73" y="604" type="line" smooth="yes"/>
      <point x="73" y="517"/>
      <point x="96" y="470"/>
      <point x="146" y="447" type="curve"/>
      <point x="85" y="421"/>
      <point x="41" y="349"/>
      <point x="41" y="237" type="curve" smooth="yes"/>
      <point x="41" y="88"/>
      <point x="118" y="-10"/>
    </contour>
    <contour>
      <point x="251" y="61" type="curve" smooth="yes"/>
      <point x="171" y="61"/>
      <point x="124" y="122"/>
      <point x="124" y="238" type="curve" smooth="yes"/>
      <point x="124" y="357"/>
      <point x="170" y="414"/>
      <point x="251" y="414" type="curve" smooth="yes"/>
      <point x="334" y="414"/>
      <point x="379" y="356"/>
      <point x="379" y="239" type="curve" smooth="yes"/>
      <point x="379" y="120"/>
      <point x="330" y="61"/>
    </contour>
  </outline>
</glyph>
<glyph name="uni0224" format="2">
  <advance width="500"/>
  <unicode hex="0224"/>
  <anchor x="266" y="-240" name="bottom"/>
  <anchor x="250" y="714" name="top"/>
  <anchor x="480" y="714" name="topright"/>
  <outline>
    <contour>
      <point x="337" y="-192" type="curve" smooth="yes"/>
      <point x="409" y="-192"/>
      <point x="450" y="-147"/>
      <point x="450" y="-59" type="curve" smooth="yes"/>
      <point x="450" y="78" type="line"/>
      <point x="358" y="78" type="line"/>
      <point x="358" y="0" type="line"/>
      <point x="367" y="0" type="line"/>
      <point x="367" y="-57" type="line" smooth="yes"/>
      <point x="367" y="-101"/>
      <point x="352" y="-121"/>
      <point x="318" y="-121" type="curve" smooth="yes"/>
      <point x="304" y="-121"/>
      <point x="290" y="-118"/>
      <point x="275" y="-112" type="curve"/>
      <point x="275" y="-183" type="line"/>
      <point x="291" y="-189"/>
      <point x="312" y="-192"/>
    </contour>
    <component base="Z"/>
  </outline>
</glyph>
<glyph name="uni0236" format="2">
  <advance width="500"/>
  <unicode hex="0236"/>
  <anchor x="341" y="0" name="bottom"/>
  <anchor x="244" y="679" name="top"/>
  <outline>
    <contour>
      <point x="149" y="-25" type="line"/>
      <point x="159" y="7"/>
      <point x="177" y="40"/>
      <point x="197" y="63" type="curve"/>
      <point x="218" y="24"/>
      <point x="253" y="-10"/>
      <point x="328" y="-10" type="curve" smooth="yes"/>
      <point x="419" y="-10"/>
      <point x="468" y="45"/>
      <point x="468" y="116" type="curve" smooth="yes"/>
      <point x="468" y="180"/>
      <point x="429" y="231"/>
      <point x="339" y="231" type="curve" smooth="yes"/>
      <point x="305" y="231"/>
      <point x="277" y="222"/>
      <point x="257" y="211" type="curve"/>
      <point x="257" y="464" type="line"/>
      <point x="434" y="464" type="line"/>
      <point x="434" y="536" type="line"/>
      <point x="259" y="536" type="line"/>
      <point x="259" y="679" type="line"/>
      <point x="206" y="679" type="line"/>
      <point x="178" y="539" type="line"/>
      <point x="40" y="515" type="line"/>
      <point x="40" y="464" type="line"/>
      <point x="175" y="464" type="line"/>
      <point x="175" y="209" type="line" smooth="yes"/>
      <point x="175" y="185"/>
      <point x="176" y="166"/>
      <point x="178" y="151" type="curve"/>
      <point x="144" y="121"/>
      <point x="104" y="66"/>
      <point x="82" y="1" type="curve"/>
    </contour>
    <contour>
      <point x="336" y="58" type="curve" smooth="yes"/>
      <point x="285" y="58"/>
      <point x="262" y="93"/>
      <point x="261" y="137" type="curve"/>
      <point x="274" y="150"/>
      <point x="298" y="163"/>
      <point x="333" y="163" type="curve" smooth="yes"/>
      <point x="374" y="163"/>
      <point x="394" y="142"/>
      <point x="394" y="111" type="curve" smooth="yes"/>
      <point x="394" y="82"/>
      <point x="375" y="58"/>
    </contour>
  </outline>
</glyph>
<glyph name="uni023B" format="2">
  <advance width="500"/>
  <unicode hex="023B"/>
  <anchor x="250" y="-75" name="bottom"/>
  <anchor x="290" y="760" name="top"/>
  <anchor x="480" y="714" name="topright"/>
  <outline>
    <contour>
      <point x="201" y="-75" type="line"/>
      <point x="247" y="-75" type="line"/>
      <point x="409" y="760" type="line"/>
      <point x="363" y="760" type="line"/>
    </contour>
    <component base="C"/>
  </outline>
</glyph>
<glyph name="uni023D" format="2">
  <advance width="500"/>
  <unicode hex="023D"/>
  <anchor x="250" y="0" name="bottom"/>
  <anchor x="115" y="714" name="top"/>
  <anchor x="363" y="714" name="topright"/>
  <anchor x="250" y="357" name="center"/>
  <outline>
    <contour>
      <point x="0" y="328" type="line"/>
      <point x="278" y="328" type="line"/>
      <point x="278" y="384" type="line"/>
      <point x="0" y="384" type="line"/>
    </contour>
    <component base="L"/>
  </outline>
</glyph>
<glyph name="uni0246" format="2">
  <advance width="500"/>
  <unicode hex="0246"/>
  <anchor x="250" y="-75" name="bottom"/>
  <anchor x="260" y="760" name="top"/>
  <anchor x="20" y="714" name="topleft"/>
  <anchor x="386" y="10" name="ogonek"/>
  <anchor x="480" y="714" name="topright"/>
  <outline>
    <contour>
      <point x="143" y="-75" type="line"/>
      <point x="195" y="-75" type="line"/>
      <point x="387" y="760" type="line"/>
      <point x="335" y="760" type="line"/>
    </contour>
    <component base="E"/>
  </outline>
</glyph>
<glyph name="uni0248" format="2">
  <advance width="500"/>
  <unicode hex="0248"/>
  <anchor x="250" y="-191" name="bottom"/>
  <anchor x="250" y="714" name="top"/>
  <outline>
    <contour>
      <point x="87" y="-191" type="curve" smooth="yes"/>
      <point x="221" y="-191"/>
      <point x="290" y="-102"/>
      <point x="290" y="22" type="curve" smooth="yes"/>
      <point x="290" y="714" type="line"/>
      <point x="208" y="714" type="line"/>
      <point x="208" y="37" type="line" smooth="yes"/>
      <point x="208" y="-59"/>
      <point x="163" y="-116"/>
      <point x="80" y="-116" type="curve" smooth="yes"/>
      <point x="42" y="-116"/>
      <point x="-4" y="-105"/>
      <point x="-40" y="-86" type="curve"/>
      <point x="-40" y="-162" type="line"/>
      <point x="-8" y="-180"/>
      <point x="38" y="-191"/>
    </contour>
    <contour>
      <point x="86" y="320" type="line"/>
      <point x="410" y="320" type="line"/>
      <point x="410" y="386" type="line"/>
      <point x="86" y="386" type="line"/>
    </contour>
  </outline>
</glyph>
<glyph name="uni0249" format="2">
  <advance width="500"/>
  <unicode hex="0249"/>
  <anchor x="250" y="-245" name="bottom"/>
  <anchor x="286" y="765" name="top"/>
  <anchor x="480" y="765" name="topright"/>
  <outline>
    <contour>
      <point x="108" y="207" type="line"/>
      <point x="454" y="207" type="line"/>
      <point x="454" y="270" type="line"/>
      <point x="108" y="270" type="line"/>
    </contour>
    <component base="j"/>
  </outline>
</glyph>
<glyph name="uni024A" format="2">
  <advance width="500"/>
  <unicode hex="024A"/>
  <anchor x="250" y="-240" name="bottom"/>
  <anchor x="250" y="714" name="top"/>
  <outline>
    <contour>
      <point x="501" y="-240" type="curve" smooth="yes"/>
      <point x="529" y="-240"/>
      <point x="552" y="-234"/>
      <point x="566" y="-228" type="curve"/>
      <point x="566" y="-157" type="line"/>
      <point x="555" y="-161"/>
      <point x="535" y="-166"/>
      <point x="517" y="-166" type="curve" smooth="yes"/>
      <point x="476" y="-166"/>
      <point x="454" y="-141"/>
      <point x="454" y="-83" type="curve" smooth="yes"/>
      <point x="454" y="146" type="line"/>
      <point x="373" y="117" type="line"/>
      <point x="370" y="87"/>
      <point x="370" y="56"/>
      <point x="370" y="24" type="curve" smooth="yes"/>
      <point x="370" y="-89" type="line" smooth="yes"/>
      <point x="370" y="-193"/>
      <point x="414" y="-240"/>
    </contour>
    <component base="uni2C6D"/>
  </outline>
</glyph>
<glyph name="uni024D" format="2">
  <advance width="500"/>
  <unicode hex="024D"/>
  <anchor x="250" y="0" name="bottom"/>
  <anchor x="250" y="536" name="top"/>
  <anchor x="480" y="536" name="topright"/>
  <outline>
    <contour>
      <point x="54" y="228" type="line"/>
      <point x="372" y="228" type="line"/>
      <point x="372" y="290" type="line"/>
      <point x="54" y="290" type="line"/>
    </contour>
    <component base="r"/>
  </outline>
</glyph>
<glyph name="uni024F" format="2">
  <advance width="500"/>
  <unicode hex="024F"/>
  <anchor x="250" y="-245" name="bottom"/>
  <anchor x="250" y="536" name="top"/>
  <anchor x="480" y="536" name="topright"/>
  <outline>
    <contour>
      <point x="25" y="309" type="line"/>
      <point x="485" y="309" type="line"/>
      <point x="485" y="362" type="line"/>
      <point x="25" y="362" type="line"/>
    </contour>
    <component base="y"/>
  </outline>
</glyph>
<glyph name="uni0257" format="2">
  <advance width="500"/>
  <unicode hex="0257"/>
  <anchor x="250" y="0" name="bottom"/>
  <anchor x="250" y="768" name="top"/>
  <outline>
    <contour>
      <point x="221" y="-10" type="curve" smooth="yes"/>
      <point x="288" y="-10"/>
      <point x="331" y="27"/>
      <point x="356" y="72" type="curve"/>
      <point x="360" y="72" type="line"/>
      <point x="377" y="0" type="line"/>
      <point x="440" y="0" type="line"/>
      <point x="440" y="624" type="line" smooth="yes"/>
      <point x="440" y="680"/>
      <point x="459" y="696"/>
      <point x="489" y="696" type="curve" smooth="yes"/>
      <point x="501" y="696"/>
      <point x="510" y="693"/>
      <point x="517" y="690" type="curve"/>
      <point x="517" y="761" type="line"/>
      <point x="506" y="765"/>
      <point x="491" y="768"/>
      <point x="471" y="768" type="curve" smooth="yes"/>
      <point x="404" y="768"/>
      <point x="358" y="718"/>
      <point x="358" y="627" type="curve" smooth="yes"/>
      <point x="358" y="547" type="line" smooth="yes"/>
      <point x="358" y="518"/>
      <point x="361" y="490"/>
      <point x="364" y="467" type="curve"/>
      <point x="359" y="467" type="line"/>
      <point x="332" y="511"/>
      <point x="289" y="547"/>
      <point x="222" y="547" type="curve" smooth="yes"/>
      <point x="111" y="547"/>
      <point x="40" y="450"/>
      <point x="40" y="267" type="curve" smooth="yes"/>
      <point x="40" y="85"/>
      <point x="111" y="-10"/>
    </contour>
    <contour>
      <point x="246" y="63" type="curve" smooth="yes"/>
      <point x="158" y="63"/>
      <point x="126" y="129"/>
      <point x="126" y="259" type="curve" smooth="yes"/>
      <point x="126" y="400"/>
      <point x="164" y="474"/>
      <point x="249" y="474" type="curve" smooth="yes"/>
      <point x="336" y="474"/>
      <point x="360" y="398"/>
      <point x="360" y="267" type="curve" smooth="yes"/>
      <point x="360" y="247" type="line" smooth="yes"/>
      <point x="360" y="134"/>
      <point x="332" y="63"/>
    </contour>
  </outline>
</glyph>
<glyph name="schwahook" format="2">
  <advance width="500"/>
  <unicode hex="025A"/>
  <anchor x="195" y="0" name="bottom"/>
  <anchor x="195" y="536" name="top"/>
  <outline>
    <contour>
      <point x="176" y="-10" type="curve" smooth="yes"/>
      <point x="295" y="-10"/>
      <point x="331" y="97"/>
      <point x="331" y="288" type="curve"/>
      <point x="348" y="294" type="line"/>
      <point x="359" y="205"/>
      <point x="386" y="179"/>
      <point x="436" y="179" type="curve" smooth="yes"/>
      <point x="466" y="179"/>
      <point x="488" y="193"/>
      <point x="503" y="209" type="curve"/>
      <point x="480" y="248" type="line"/>
      <point x="468" y="238"/>
      <point x="457" y="231"/>
      <point x="440" y="231" type="curve" smooth="yes"/>
      <point x="411" y="231"/>
      <point x="403" y="251"/>
      <point x="396" y="320" type="curve" smooth="yes"/>
      <point x="391" y="369" type="line"/>
      <point x="326" y="350" type="line"/>
      <point x="316" y="475"/>
      <point x="261" y="546"/>
      <point x="155" y="546" type="curve" smooth="yes"/>
      <point x="105" y="546"/>
      <point x="73" y="534"/>
      <point x="49" y="522" type="curve"/>
      <point x="49" y="453" type="line"/>
      <point x="75" y="467"/>
      <point x="103" y="478"/>
      <point x="147" y="478" type="curve" smooth="yes"/>
      <point x="215" y="478"/>
      <point x="252" y="432"/>
      <point x="257" y="329" type="curve"/>
      <point x="31" y="252" type="line"/>
      <point x="31" y="74"/>
      <point x="70" y="-10"/>
    </contour>
    <contour>
      <point x="177" y="56" type="curve" smooth="yes"/>
      <point x="118" y="56"/>
      <point x="101" y="122"/>
      <point x="99" y="214" type="curve"/>
      <point x="259" y="267" type="line"/>
      <point x="259" y="137"/>
      <point x="250" y="56"/>
    </contour>
  </outline>
</glyph>
<glyph name="uni025E" format="2">
  <advance width="500"/>
  <unicode hex="025E"/>
  <anchor x="250" y="0" name="bottom"/>
  <anchor x="250" y="536" name="top"/>
  <outline>
    <contour>
      <point x="260" y="-10" type="curve" smooth="yes"/>
      <point x="385" y="-10"/>
      <point x="455" y="60"/>
      <point x="455" y="154" type="curve" smooth="yes"/>
      <point x="455" y="225"/>
      <point x="416" y="268"/>
      <point x="355" y="283" type="curve"/>
      <point x="355" y="287" type="line"/>
      <point x="405" y="306"/>
      <point x="435" y="344"/>
      <point x="435" y="405" type="curve" smooth="yes"/>
      <point x="435" y="487"/>
      <point x="377" y="547"/>
      <point x="262" y="547" type="curve" smooth="yes"/>
      <point x="116" y="547"/>
      <point x="46" y="452"/>
      <point x="46" y="267" type="curve" smooth="yes"/>
      <point x="46" y="89"/>
      <point x="111" y="-10"/>
    </contour>
    <contour>
      <point x="264" y="61" type="curve" smooth="yes"/>
      <point x="166" y="61"/>
      <point x="129" y="132"/>
      <point x="129" y="266" type="curve" smooth="yes"/>
      <point x="129" y="407"/>
      <point x="168" y="477"/>
      <point x="260" y="477" type="curve" smooth="yes"/>
      <point x="328" y="477"/>
      <point x="357" y="441"/>
      <point x="357" y="396" type="curve" smooth="yes"/>
      <point x="357" y="339"/>
      <point x="323" y="314"/>
      <point x="274" y="314" type="curve" smooth="yes"/>
      <point x="236" y="314" type="line"/>
      <point x="236" y="249" type="line"/>
      <point x="281" y="249" type="line" smooth="yes"/>
      <point x="331" y="249"/>
      <point x="372" y="220"/>
      <point x="372" y="157" type="curve" smooth="yes"/>
      <point x="372" y="98"/>
      <point x="328" y="61"/>
    </contour>
  </outline>
</glyph>
<glyph name="uni025F" format="2">
  <advance width="500"/>
  <unicode hex="025F"/>
  <anchor x="242" y="-240" name="bottom"/>
  <anchor x="260" y="536" name="top"/>
  <outline>
    <contour>
      <point x="188" y="-240" type="curve" smooth="yes"/>
      <point x="260" y="-240"/>
      <point x="298" y="-190"/>
      <point x="298" y="-82" type="curve" smooth="yes"/>
      <point x="298" y="255" type="line"/>
      <point x="360" y="255" type="line"/>
      <point x="360" y="317" type="line"/>
      <point x="298" y="317" type="line"/>
      <point x="298" y="537" type="line"/>
      <point x="217" y="537" type="line"/>
      <point x="217" y="317" type="line"/>
      <point x="155" y="317" type="line"/>
      <point x="155" y="255" type="line"/>
      <point x="217" y="255" type="line"/>
      <point x="217" y="-83" type="line" smooth="yes"/>
      <point x="217" y="-141"/>
      <point x="205" y="-167"/>
      <point x="174" y="-167" type="curve" smooth="yes"/>
      <point x="163" y="-167"/>
      <point x="151" y="-164"/>
      <point x="139" y="-159" type="curve"/>
      <point x="139" y="-231" type="line"/>
      <point x="153" y="-237"/>
      <point x="169" y="-240"/>
    </contour>
  </outline>
</glyph>
<glyph name="uni0263" format="2">
  <advance width="500"/>
  <unicode hex="0263"/>
  <anchor x="250" y="-240" name="bottom"/>
  <anchor x="250" y="536" name="top"/>
  <outline>
    <contour>
      <point x="234" y="-240" type="curve" smooth="yes"/>
      <point x="313" y="-240"/>
      <point x="355" y="-189"/>
      <point x="355" y="-109" type="curve" smooth="yes"/>
      <point x="355" y="-58"/>
      <point x="333" y="23"/>
      <point x="290" y="93" type="curve"/>
      <point x="458" y="537" type="line"/>
      <point x="359" y="537" type="line"/>
      <point x="280" y="294" type="line" smooth="yes"/>
      <point x="267" y="255"/>
      <point x="242" y="182"/>
      <point x="237" y="148" type="curve"/>
      <point x="235" y="148" type="line"/>
      <point x="228" y="181"/>
      <point x="206" y="262"/>
      <point x="194" y="298" type="curve" smooth="yes"/>
      <point x="112" y="537" type="line"/>
      <point x="14" y="537" type="line"/>
      <point x="178" y="99" type="line"/>
      <point x="140" y="27"/>
      <point x="112" y="-51"/>
      <point x="112" y="-110" type="curve" smooth="yes"/>
      <point x="112" y="-192"/>
      <point x="152" y="-240"/>
    </contour>
    <contour>
      <point x="232" y="-178" type="curve" smooth="yes"/>
      <point x="207" y="-178"/>
      <point x="192" y="-159"/>
      <point x="192" y="-107" type="curve" smooth="yes"/>
      <point x="192" y="-77"/>
      <point x="200" y="-28"/>
      <point x="232" y="37" type="curve"/>
      <point x="264" y="-25"/>
      <point x="273" y="-75"/>
      <point x="273" y="-109" type="curve" smooth="yes"/>
      <point x="273" y="-160"/>
      <point x="259" y="-178"/>
    </contour>
  </outline>
</glyph>
<glyph name="uni026B" format="2">
  <advance width="500"/>
  <unicode hex="026B"/>
  <anchor x="250" y="0" name="bottom"/>
  <anchor x="250" y="760" name="top"/>
  <anchor x="411" y="760" name="topright"/>
  <anchor x="252" y="370" name="center"/>
  <outline>
    <contour>
      <point x="91" y="324" type="curve"/>
      <point x="144" y="324" type="line"/>
      <point x="149" y="361"/>
      <point x="162" y="384"/>
      <point x="182" y="384" type="curve" smooth="yes"/>
      <point x="215" y="384"/>
      <point x="287" y="325"/>
      <point x="333" y="325" type="curve" smooth="yes"/>
      <point x="370" y="325"/>
      <point x="409" y="363"/>
      <point x="412" y="447" type="curve"/>
      <point x="359" y="447" type="line"/>
      <point x="354" y="412"/>
      <point x="345" y="387"/>
      <point x="323" y="387" type="curve" smooth="yes"/>
      <point x="289" y="387"/>
      <point x="220" y="446"/>
      <point x="172" y="446" type="curve" smooth="yes"/>
      <point x="126" y="446"/>
      <point x="96" y="394"/>
    </contour>
    <component base="l"/>
  </outline>
</glyph>
<glyph name="uni026C" format="2">
  <advance width="500"/>
  <unicode hex="026C"/>
  <anchor x="250" y="0" name="bottom"/>
  <anchor x="256" y="760" name="top"/>
  <anchor x="411" y="760" name="topright"/>
  <anchor x="252" y="370" name="center"/>
  <outline>
    <contour>
      <point x="178" y="303" type="curve"/>
      <point x="383" y="303" type="line"/>
      <point x="383" y="363" type="line"/>
      <point x="292" y="363" type="line"/>
      <point x="210" y="467" type="line"/>
      <point x="195" y="485"/>
      <point x="175" y="493"/>
      <point x="151" y="493" type="curve" smooth="yes"/>
      <point x="93" y="493"/>
      <point x="62" y="455"/>
      <point x="62" y="401" type="curve" smooth="yes"/>
      <point x="62" y="339"/>
      <point x="100" y="303"/>
    </contour>
    <contour>
      <point x="177" y="363" type="line" smooth="yes"/>
      <point x="142" y="363"/>
      <point x="122" y="374"/>
      <point x="122" y="403" type="curve" smooth="yes"/>
      <point x="122" y="424"/>
      <point x="134" y="438"/>
      <point x="158" y="438" type="curve" smooth="yes"/>
      <point x="196" y="438"/>
      <point x="210" y="406"/>
      <point x="210" y="371" type="curve" smooth="yes"/>
      <point x="210" y="363" type="line"/>
    </contour>
    <component base="l"/>
  </outline>
</glyph>
<glyph name="uni026D" format="2">
  <advance width="500"/>
  <unicode hex="026D"/>
  <anchor x="332" y="-240" name="bottom"/>
  <anchor x="233" y="760" name="top"/>
  <outline>
    <contour>
      <point x="333" y="-240" type="curve" smooth="yes"/>
      <point x="364" y="-240"/>
      <point x="388" y="-235"/>
      <point x="407" y="-226" type="curve"/>
      <point x="407" y="-155" type="line"/>
      <point x="397" y="-161"/>
      <point x="374" y="-167"/>
      <point x="352" y="-167" type="curve" smooth="yes"/>
      <point x="314" y="-167"/>
      <point x="292" y="-145"/>
      <point x="292" y="-87" type="curve" smooth="yes"/>
      <point x="292" y="760" type="line"/>
      <point x="78" y="760" type="line"/>
      <point x="78" y="701" type="line"/>
      <point x="210" y="691" type="line"/>
      <point x="210" y="-88" type="line" smooth="yes"/>
      <point x="210" y="-195"/>
      <point x="264" y="-240"/>
    </contour>
  </outline>
</glyph>
<glyph name="uni026E" format="2">
  <advance width="500"/>
  <unicode hex="026E"/>
  <anchor x="248" y="-240" name="bottom"/>
  <anchor x="112" y="760" name="top"/>
  <outline>
    <contour>
      <point x="235" y="-240" type="curve" smooth="yes"/>
      <point x="378" y="-240"/>
      <point x="460" y="-137"/>
      <point x="460" y="8" type="curve" smooth="yes"/>
      <point x="460" y="147"/>
      <point x="386" y="215"/>
      <point x="284" y="224" type="curve"/>
      <point x="445" y="480" type="line"/>
      <point x="445" y="537" type="line"/>
      <point x="146" y="537" type="line"/>
      <point x="146" y="760" type="line"/>
      <point x="65" y="760" type="line"/>
      <point x="65" y="0" type="line"/>
      <point x="146" y="0" type="line"/>
      <point x="146" y="467" type="line"/>
      <point x="352" y="467" type="line"/>
      <point x="198" y="219" type="line"/>
      <point x="198" y="159" type="line"/>
      <point x="230" y="159" type="line" smooth="yes"/>
      <point x="322" y="159"/>
      <point x="378" y="109"/>
      <point x="378" y="6" type="curve" smooth="yes"/>
      <point x="378" y="-102"/>
      <point x="327" y="-166"/>
      <point x="235" y="-166" type="curve" smooth="yes"/>
      <point x="180" y="-166"/>
      <point x="139" y="-148"/>
      <point x="112" y="-131" type="curve"/>
      <point x="112" y="-213" type="line"/>
      <point x="136" y="-227"/>
      <point x="172" y="-240"/>
    </contour>
  </outline>
</glyph>
<glyph name="uni0271" format="2">
  <advance width="500"/>
  <unicode hex="0271"/>
  <anchor x="399" y="-240" name="bottom"/>
  <anchor x="251" y="536" name="top"/>
  <outline>
    <contour>
      <point x="368" y="-240" type="curve" smooth="yes"/>
      <point x="437" y="-240"/>
      <point x="475" y="-199"/>
      <point x="475" y="-102" type="curve" smooth="yes"/>
      <point x="475" y="401" type="line" smooth="yes"/>
      <point x="475" y="504"/>
      <point x="445" y="547"/>
      <point x="376" y="547" type="curve" smooth="yes"/>
      <point x="331" y="547"/>
      <point x="301" y="526"/>
      <point x="280" y="478" type="curve"/>
      <point x="277" y="478" type="line"/>
      <point x="261" y="524"/>
      <point x="239" y="547"/>
      <point x="191" y="547" type="curve" smooth="yes"/>
      <point x="150" y="547"/>
      <point x="118" y="526"/>
      <point x="100" y="482" type="curve"/>
      <point x="95" y="482" type="line"/>
      <point x="84" y="536" type="line"/>
      <point x="25" y="536" type="line"/>
      <point x="25" y="0" type="line"/>
      <point x="103" y="0" type="line"/>
      <point x="103" y="331" type="line" smooth="yes"/>
      <point x="103" y="397"/>
      <point x="111" y="474"/>
      <point x="166" y="474" type="curve" smooth="yes"/>
      <point x="201" y="474"/>
      <point x="209" y="445"/>
      <point x="209" y="391" type="curve" smooth="yes"/>
      <point x="209" y="0" type="line"/>
      <point x="290" y="0" type="line"/>
      <point x="290" y="341" type="line" smooth="yes"/>
      <point x="290" y="412"/>
      <point x="297" y="474"/>
      <point x="351" y="474" type="curve" smooth="yes"/>
      <point x="388" y="474"/>
      <point x="397" y="445"/>
      <point x="397" y="391" type="curve" smooth="yes"/>
      <point x="397" y="-107" type="line" smooth="yes"/>
      <point x="397" y="-152"/>
      <point x="379" y="-170"/>
      <point x="352" y="-170" type="curve" smooth="yes"/>
      <point x="331" y="-170"/>
      <point x="316" y="-164"/>
      <point x="306" y="-159" type="curve"/>
      <point x="306" y="-228" type="line"/>
      <point x="320" y="-234"/>
      <point x="342" y="-240"/>
    </contour>
  </outline>
</glyph>
<glyph name="uni0276" format="2">
  <advance width="500"/>
  <unicode hex="0276"/>
  <anchor x="250" y="0" name="bottom"/>
  <anchor x="250" y="536" name="top"/>
  <outline>
    <contour>
      <point x="177" y="-10" type="curve" smooth="yes"/>
      <point x="227" y="-10"/>
      <point x="256" y="14"/>
      <point x="278" y="51" type="curve"/>
      <point x="278" y="0" type="line"/>
      <point x="487" y="0" type="line"/>
      <point x="487" y="67" type="line"/>
      <point x="343" y="67" type="line"/>
      <point x="343" y="247" type="line"/>
      <point x="475" y="247" type="line"/>
      <point x="475" y="315" type="line"/>
      <point x="343" y="315" type="line"/>
      <point x="343" y="470" type="line"/>
      <point x="487" y="470" type="line"/>
      <point x="487" y="537" type="line"/>
      <point x="278" y="537" type="line"/>
      <point x="278" y="491" type="line"/>
      <point x="259" y="523"/>
      <point x="230" y="547"/>
      <point x="180" y="547" type="curve" smooth="yes"/>
      <point x="82" y="547"/>
      <point x="29" y="456"/>
      <point x="29" y="267" type="curve" smooth="yes"/>
      <point x="29" y="78"/>
      <point x="82" y="-10"/>
    </contour>
    <contour>
      <point x="190" y="61" type="curve" smooth="yes"/>
      <point x="134" y="61"/>
      <point x="105" y="116"/>
      <point x="105" y="269" type="curve" smooth="yes"/>
      <point x="105" y="413"/>
      <point x="131" y="476"/>
      <point x="189" y="476" type="curve" smooth="yes"/>
      <point x="243" y="476"/>
      <point x="269" y="422"/>
      <point x="269" y="266" type="curve" smooth="yes"/>
      <point x="269" y="110"/>
      <point x="243" y="61"/>
    </contour>
  </outline>
</glyph>
<glyph name="omegaclosed" format="2">
  <advance width="500"/>
  <unicode hex="0277"/>
  <anchor x="251" y="0" name="bottom"/>
  <anchor x="252" y="536" name="top"/>
  <outline>
    <contour>
      <point x="149" y="-10" type="curve" smooth="yes"/>
      <point x="200" y="-10"/>
      <point x="234" y="23"/>
      <point x="248" y="81" type="curve"/>
      <point x="250" y="81" type="line"/>
      <point x="264" y="23"/>
      <point x="299" y="-10"/>
      <point x="347" y="-10" type="curve" smooth="yes"/>
      <point x="429" y="-10"/>
      <point x="475" y="80"/>
      <point x="475" y="248" type="curve" smooth="yes"/>
      <point x="475" y="437"/>
      <point x="398" y="547"/>
      <point x="254" y="547" type="curve" smooth="yes"/>
      <point x="101" y="547"/>
      <point x="24" y="428"/>
      <point x="24" y="248" type="curve" smooth="yes"/>
      <point x="24" y="80"/>
      <point x="67" y="-10"/>
    </contour>
    <contour>
      <point x="159" y="65" type="curve" smooth="yes"/>
      <point x="119" y="65"/>
      <point x="104" y="122"/>
      <point x="104" y="245" type="curve" smooth="yes"/>
      <point x="104" y="387"/>
      <point x="154" y="474"/>
      <point x="252" y="474" type="curve" smooth="yes"/>
      <point x="355" y="474"/>
      <point x="394" y="381"/>
      <point x="394" y="245" type="curve" smooth="yes"/>
      <point x="394" y="122"/>
      <point x="378" y="66"/>
      <point x="339" y="66" type="curve" smooth="yes"/>
      <point x="303" y="66"/>
      <point x="288" y="113"/>
      <point x="288" y="215" type="curve" smooth="yes"/>
      <point x="288" y="299" type="line"/>
      <point x="210" y="299" type="line"/>
      <point x="210" y="215" type="line" smooth="yes"/>
      <point x="210" y="114"/>
      <point x="193" y="65"/>
    </contour>
  </outline>
</glyph>
<glyph name="uni027D" format="2">
  <advance width="500"/>
  <unicode hex="027D"/>
  <anchor x="266" y="-240" name="bottom"/>
  <anchor x="252" y="536" name="top"/>
  <outline>
    <contour>
      <point x="273" y="-240" type="curve" smooth="yes"/>
      <point x="305" y="-240"/>
      <point x="328" y="-234"/>
      <point x="345" y="-226" type="curve"/>
      <point x="345" y="-155" type="line"/>
      <point x="335" y="-160"/>
      <point x="319" y="-165"/>
      <point x="300" y="-165" type="curve" smooth="yes"/>
      <point x="262" y="-165"/>
      <point x="242" y="-142"/>
      <point x="242" y="-95" type="curve" smooth="yes"/>
      <point x="242" y="267" type="line" smooth="yes"/>
      <point x="242" y="377"/>
      <point x="292" y="462"/>
      <point x="378" y="462" type="curve" smooth="yes"/>
      <point x="398" y="462"/>
      <point x="426" y="459"/>
      <point x="447" y="448" type="curve"/>
      <point x="470" y="530" type="line"/>
      <point x="441" y="542"/>
      <point x="414" y="547"/>
      <point x="389" y="547" type="curve" smooth="yes"/>
      <point x="316" y="547"/>
      <point x="266" y="506"/>
      <point x="239" y="441" type="curve"/>
      <point x="235" y="441" type="line"/>
      <point x="227" y="536" type="line"/>
      <point x="43" y="536" type="line"/>
      <point x="43" y="477" type="line"/>
      <point x="159" y="463" type="line"/>
      <point x="159" y="-102" type="line" smooth="yes"/>
      <point x="159" y="-199"/>
      <point x="204" y="-240"/>
    </contour>
  </outline>
</glyph>
<glyph name="uni0280" format="2">
  <advance width="500"/>
  <unicode hex="0280"/>
  <anchor x="261" y="0" name="bottom"/>
  <anchor x="250" y="536" name="top"/>
  <outline>
    <contour>
      <point x="84" y="0" type="line"/>
      <point x="165" y="0" type="line"/>
      <point x="165" y="216" type="line"/>
      <point x="243" y="216" type="line"/>
      <point x="350" y="0" type="line"/>
      <point x="444" y="0" type="line"/>
      <point x="320" y="232" type="line"/>
      <point x="377" y="252"/>
      <point x="419" y="306"/>
      <point x="419" y="379" type="curve" smooth="yes"/>
      <point x="419" y="480"/>
      <point x="356" y="537"/>
      <point x="246" y="537" type="curve" smooth="yes"/>
      <point x="84" y="537" type="line"/>
    </contour>
    <contour>
      <point x="165" y="281" type="line"/>
      <point x="165" y="471" type="line"/>
      <point x="242" y="471" type="line" smooth="yes"/>
      <point x="303" y="471"/>
      <point x="337" y="439"/>
      <point x="337" y="378" type="curve" smooth="yes"/>
      <point x="337" y="304"/>
      <point x="293" y="281"/>
      <point x="238" y="281" type="curve" smooth="yes"/>
    </contour>
  </outline>
</glyph>
<glyph name="uni0284" format="2">
  <advance width="500"/>
  <unicode hex="0284"/>
  <anchor x="173" y="-240" name="bottom"/>
  <anchor x="318" y="765" name="top"/>
  <outline>
    <contour>
      <point x="89" y="261" type="line"/>
      <point x="404" y="261" type="line"/>
      <point x="404" y="323" type="line"/>
      <point x="89" y="323" type="line"/>
    </contour>
    <component base="uni0283"/>
  </outline>
</glyph>
<glyph name="eshsquatreversed" format="2">
  <advance width="500"/>
  <unicode hex="0285"/>
  <anchor x="330" y="-240" name="bottom"/>
  <anchor x="162" y="535" name="top"/>
  <outline>
    <contour>
      <point x="386" y="-240" type="curve" smooth="yes"/>
      <point x="428" y="-240"/>
      <point x="454" y="-233"/>
      <point x="468" y="-226" type="curve"/>
      <point x="468" y="-148" type="line"/>
      <point x="455" y="-155"/>
      <point x="429" y="-163"/>
      <point x="396" y="-163" type="curve" smooth="yes"/>
      <point x="330" y="-163"/>
      <point x="295" y="-121"/>
      <point x="295" y="-42" type="curve" smooth="yes"/>
      <point x="295" y="349" type="line" smooth="yes"/>
      <point x="295" y="480"/>
      <point x="216" y="546"/>
      <point x="113" y="546" type="curve" smooth="yes"/>
      <point x="74" y="546"/>
      <point x="50" y="540"/>
      <point x="32" y="533" type="curve"/>
      <point x="32" y="458" type="line"/>
      <point x="44" y="464"/>
      <point x="66" y="470"/>
      <point x="100" y="470" type="curve" smooth="yes"/>
      <point x="171" y="470"/>
      <point x="209" y="427"/>
      <point x="209" y="348" type="curve" smooth="yes"/>
      <point x="209" y="-43" type="line" smooth="yes"/>
      <point x="209" y="-171"/>
      <point x="286" y="-240"/>
    </contour>
  </outline>
</glyph>
<glyph name="uni0290" format="2">
  <advance width="500"/>
  <unicode hex="0290"/>
  <anchor x="270" y="-240" name="bottom"/>
  <anchor x="250" y="536" name="top"/>
  <anchor x="480" y="536" name="topright"/>
  <outline>
    <contour>
      <point x="479" y="-240" type="curve" smooth="yes"/>
      <point x="507" y="-240"/>
      <point x="535" y="-233"/>
      <point x="549" y="-224" type="curve"/>
      <point x="549" y="-157" type="line"/>
      <point x="538" y="-162"/>
      <point x="514" y="-168"/>
      <point x="496" y="-168" type="curve" smooth="yes"/>
      <point x="456" y="-168"/>
      <point x="435" y="-151"/>
      <point x="435" y="-72" type="curve" smooth="yes"/>
      <point x="435" y="72" type="line"/>
      <point x="357" y="0" type="line"/>
      <point x="357" y="-73" type="line" smooth="yes"/>
      <point x="357" y="-204"/>
      <point x="408" y="-240"/>
    </contour>
    <component base="z"/>
  </outline>
</glyph>
<glyph name="uni029D" format="2">
  <advance width="500"/>
  <unicode hex="029D"/>
  <anchor x="289" y="-240" name="bottom"/>
  <anchor x="290" y="760" name="top"/>
  <outline>
    <contour>
      <point x="202" y="-240" type="curve" smooth="yes"/>
      <point x="286" y="-240"/>
      <point x="337" y="-187"/>
      <point x="337" y="-82" type="curve"/>
      <point x="394" y="-82" type="line"/>
      <point x="394" y="-25" type="line"/>
      <point x="337" y="-25" type="line"/>
      <point x="337" y="536" type="line"/>
      <point x="82" y="536" type="line"/>
      <point x="82" y="477" type="line"/>
      <point x="255" y="463" type="line"/>
      <point x="255" y="-25" type="line"/>
      <point x="225" y="-25" type="line" smooth="yes"/>
      <point x="138" y="-25"/>
      <point x="86" y="-64"/>
      <point x="86" y="-133" type="curve" smooth="yes"/>
      <point x="86" y="-200"/>
      <point x="121" y="-240"/>
    </contour>
    <contour>
      <point x="197" y="-182" type="curve" smooth="yes"/>
      <point x="166" y="-182"/>
      <point x="149" y="-163"/>
      <point x="149" y="-136" type="curve" smooth="yes"/>
      <point x="149" y="-98"/>
      <point x="176" y="-82"/>
      <point x="219" y="-82" type="curve" smooth="yes"/>
      <point x="255" y="-82" type="line"/>
      <point x="255" y="-91" type="line" smooth="yes"/>
      <point x="255" y="-148"/>
      <point x="237" y="-182"/>
    </contour>
    <contour>
      <point x="286" y="633" type="curve" smooth="yes"/>
      <point x="320" y="633"/>
      <point x="343" y="654"/>
      <point x="343" y="698" type="curve" smooth="yes"/>
      <point x="343" y="744"/>
      <point x="320" y="765"/>
      <point x="286" y="765" type="curve" smooth="yes"/>
      <point x="252" y="765"/>
      <point x="230" y="744"/>
      <point x="230" y="698" type="curve" smooth="yes"/>
      <point x="230" y="655"/>
      <point x="251" y="633"/>
    </contour>
  </outline>
</glyph>
<glyph name="uni029F" format="2">
  <advance width="500"/>
  <unicode hex="029F"/>
  <anchor x="290" y="0" name="bottom"/>
  <anchor x="174" y="536" name="top"/>
  <outline>
    <contour>
      <point x="133" y="0" type="line"/>
      <point x="429" y="0" type="line"/>
      <point x="429" y="71" type="line"/>
      <point x="214" y="71" type="line"/>
      <point x="214" y="537" type="line"/>
      <point x="133" y="537" type="line"/>
    </contour>
  </outline>
</glyph>
<glyph name="uni02A4" format="2">
  <advance width="500"/>
  <unicode hex="02A4"/>
  <anchor x="250" y="-240" name="bottom"/>
  <anchor x="250" y="760" name="top"/>
  <outline>
    <contour>
      <point x="325" y="-240" type="curve" smooth="yes"/>
      <point x="425" y="-240"/>
      <point x="479" y="-139"/>
      <point x="479" y="4" type="curve" smooth="yes"/>
      <point x="479" y="150"/>
      <point x="436" y="214"/>
      <point x="367" y="224" type="curve"/>
      <point x="464" y="488" type="line"/>
      <point x="464" y="537" type="line"/>
      <point x="272" y="537" type="line"/>
      <point x="272" y="760" type="line"/>
      <point x="204" y="760" type="line"/>
      <point x="204" y="552" type="line" smooth="yes"/>
      <point x="204" y="531"/>
      <point x="205" y="514"/>
      <point x="207" y="494" type="curve"/>
      <point x="203" y="494" type="line"/>
      <point x="191" y="531"/>
      <point x="169" y="547"/>
      <point x="139" y="547" type="curve" smooth="yes"/>
      <point x="60" y="547"/>
      <point x="24" y="467"/>
      <point x="24" y="268" type="curve" smooth="yes"/>
      <point x="24" y="67"/>
      <point x="59" y="-10"/>
      <point x="133" y="-10" type="curve" smooth="yes"/>
      <point x="174" y="-10"/>
      <point x="193" y="11"/>
      <point x="204" y="50" type="curve"/>
      <point x="207" y="50" type="line"/>
      <point x="215" y="0" type="line"/>
      <point x="272" y="0" type="line"/>
      <point x="272" y="475" type="line"/>
      <point x="389" y="475" type="line"/>
      <point x="298" y="220" type="line"/>
      <point x="298" y="166" type="line"/>
      <point x="327" y="166" type="line" smooth="yes"/>
      <point x="383" y="166"/>
      <point x="410" y="112"/>
      <point x="410" y="7" type="curve" smooth="yes"/>
      <point x="410" y="-109"/>
      <point x="377" y="-175"/>
      <point x="321" y="-175" type="curve" smooth="yes"/>
      <point x="294" y="-175"/>
      <point x="274" y="-167"/>
      <point x="259" y="-157" type="curve"/>
      <point x="259" y="-225" type="line"/>
      <point x="272" y="-233"/>
      <point x="293" y="-240"/>
    </contour>
    <contour>
      <point x="149" y="51" type="curve" smooth="yes"/>
      <point x="115" y="51"/>
      <point x="92" y="110"/>
      <point x="92" y="268" type="curve" smooth="yes"/>
      <point x="92" y="425"/>
      <point x="111" y="483"/>
      <point x="144" y="483" type="curve" smooth="yes"/>
      <point x="187" y="483"/>
      <point x="204" y="435"/>
      <point x="204" y="274" type="curve" smooth="yes"/>
      <point x="204" y="244" type="line" smooth="yes"/>
      <point x="204" y="100"/>
      <point x="189" y="51"/>
    </contour>
  </outline>
</glyph>
<glyph name="uni02A7" format="2">
  <advance width="500"/>
  <unicode hex="02A7"/>
  <anchor x="250" y="-240" name="bottom"/>
  <anchor x="250" y="765" name="top"/>
  <outline>
    <contour>
      <point x="308" y="-240" type="curve" smooth="yes"/>
      <point x="377" y="-240"/>
      <point x="407" y="-199"/>
      <point x="407" y="-102" type="curve" smooth="yes"/>
      <point x="407" y="622" type="line" smooth="yes"/>
      <point x="407" y="675"/>
      <point x="421" y="692"/>
      <point x="458" y="692" type="curve" smooth="yes"/>
      <point x="470" y="692"/>
      <point x="485" y="689"/>
      <point x="499" y="684" type="curve"/>
      <point x="499" y="756" type="line"/>
      <point x="487" y="761"/>
      <point x="465" y="765"/>
      <point x="445" y="765" type="curve" smooth="yes"/>
      <point x="373" y="765"/>
      <point x="326" y="720"/>
      <point x="326" y="624" type="curve" smooth="yes"/>
      <point x="326" y="537" type="line"/>
      <point x="162" y="537" type="line"/>
      <point x="162" y="658" type="line"/>
      <point x="107" y="658" type="line"/>
      <point x="85" y="535" type="line"/>
      <point x="31" y="513" type="line"/>
      <point x="31" y="469" type="line"/>
      <point x="81" y="469" type="line"/>
      <point x="81" y="133" type="line" smooth="yes"/>
      <point x="81" y="37"/>
      <point x="126" y="-10"/>
      <point x="225" y="-10" type="curve" smooth="yes"/>
      <point x="264" y="-10"/>
      <point x="298" y="-4"/>
      <point x="326" y="6" type="curve"/>
      <point x="326" y="-102" type="line" smooth="yes"/>
      <point x="326" y="-150"/>
      <point x="315" y="-167"/>
      <point x="287" y="-167" type="curve" smooth="yes"/>
      <point x="269" y="-167"/>
      <point x="245" y="-161"/>
      <point x="235" y="-155" type="curve"/>
      <point x="235" y="-224" type="line"/>
      <point x="256" y="-234"/>
      <point x="281" y="-240"/>
    </contour>
    <contour>
      <point x="248" y="62" type="curve" smooth="yes"/>
      <point x="179" y="62"/>
      <point x="162" y="89"/>
      <point x="162" y="143" type="curve" smooth="yes"/>
      <point x="162" y="469" type="line"/>
      <point x="326" y="469" type="line"/>
      <point x="326" y="72" type="line"/>
      <point x="300" y="66"/>
      <point x="274" y="62"/>
    </contour>
  </outline>
</glyph>
<glyph name="uni02AB" format="2">
  <advance width="500"/>
  <unicode hex="02AB"/>
  <anchor x="250" y="0" name="bottom"/>
  <anchor x="250" y="760" name="top"/>
  <outline>
    <contour>
      <point x="75" y="0" type="line"/>
      <point x="451" y="0" type="line"/>
      <point x="451" y="69" type="line"/>
      <point x="243" y="69" type="line"/>
      <point x="444" y="478" type="line"/>
      <point x="444" y="537" type="line"/>
      <point x="156" y="537" type="line"/>
      <point x="156" y="760" type="line"/>
      <point x="75" y="760" type="line"/>
    </contour>
    <contour>
      <point x="156" y="63" type="line"/>
      <point x="156" y="468" type="line"/>
      <point x="356" y="468" type="line"/>
    </contour>
  </outline>
</glyph>
<glyph name="uni02AC" format="2">
  <advance width="500"/>
  <unicode hex="02AC"/>
  <anchor x="250" y="0" name="bottom"/>
  <anchor x="250" y="714" name="top"/>
  <outline>
    <contour>
      <point x="107" y="379" type="line"/>
      <point x="199" y="379" type="line"/>
      <point x="248" y="624" type="line"/>
      <point x="295" y="379" type="line"/>
      <point x="386" y="379" type="line"/>
      <point x="468" y="714" type="line"/>
      <point x="391" y="714" type="line"/>
      <point x="339" y="459" type="line"/>
      <point x="290" y="714" type="line"/>
      <point x="206" y="714" type="line"/>
      <point x="159" y="459" type="line"/>
      <point x="109" y="714" type="line"/>
      <point x="33" y="714" type="line"/>
    </contour>
    <contour>
      <point x="107" y="0" type="line"/>
      <point x="199" y="0" type="line"/>
      <point x="248" y="245" type="line"/>
      <point x="295" y="0" type="line"/>
      <point x="386" y="0" type="line"/>
      <point x="468" y="335" type="line"/>
      <point x="391" y="335" type="line"/>
      <point x="339" y="80" type="line"/>
      <point x="290" y="335" type="line"/>
      <point x="206" y="335" type="line"/>
      <point x="159" y="80" type="line"/>
      <point x="109" y="335" type="line"/>
      <point x="33" y="335" type="line"/>
    </contour>
  </outline>
</glyph>
<glyph name="uni02AD" format="2">
  <advance width="500"/>
  <unicode hex="02AD"/>
  <anchor x="250" y="0" name="bottom"/>
  <anchor x="250" y="714" name="top"/>
  <outline>
    <contour>
      <point x="68" y="476" type="line"/>
      <point x="140" y="476" type="line"/>
      <point x="140" y="645" type="line"/>
      <point x="354" y="645" type="line"/>
      <point x="354" y="476" type="line"/>
      <point x="426" y="476" type="line"/>
      <point x="426" y="714" type="line"/>
      <point x="68" y="714" type="line"/>
    </contour>
    <contour>
      <point x="68" y="0" type="line"/>
      <point x="140" y="0" type="line"/>
      <point x="140" y="170" type="line"/>
      <point x="354" y="170" type="line"/>
      <point x="354" y="0" type="line"/>
      <point x="426" y="0" type="line"/>
      <point x="426" y="238" type="line"/>
      <point x="68" y="238" type="line"/>
    </contour>
  </outline>
</glyph>
<glyph name="uni02BE" format="2">
  <advance width="500"/>
  <unicode hex="02BE"/>
  <outline>
    <contour>
      <point x="191" y="575" type="line"/>
      <point x="260" y="575"/>
      <point x="309" y="616"/>
      <point x="309" y="685" type="curve" smooth="yes"/>
      <point x="309" y="754"/>
      <point x="260" y="795"/>
      <point x="191" y="795" type="curve"/>
      <point x="191" y="743" type="line"/>
      <point x="230" y="743"/>
      <point x="254" y="721"/>
      <point x="254" y="685" type="curve" smooth="yes"/>
      <point x="254" y="649"/>
      <point x="227" y="627"/>
      <point x="191" y="627" type="curve"/>
    </contour>
  </outline>
</glyph>
<glyph name="uni02BF" format="2">
  <advance width="500"/>
  <unicode hex="02BF"/>
  <outline>
    <contour>
      <point x="308" y="575" type="curve"/>
      <point x="308" y="622" type="line"/>
      <point x="269" y="622"/>
      <point x="245" y="645"/>
      <point x="245" y="685" type="curve" smooth="yes"/>
      <point x="245" y="724"/>
      <point x="272" y="747"/>
      <point x="308" y="747" type="curve"/>
      <point x="308" y="795" type="line"/>
      <point x="241" y="795"/>
      <point x="193" y="754"/>
      <point x="193" y="685" type="curve" smooth="yes"/>
      <point x="193" y="616"/>
      <point x="242" y="575"/>
    </contour>
  </outline>
</glyph>
<glyph name="uni02C0" format="2">
  <advance width="500"/>
  <unicode hex="02C0"/>
  <outline>
    <contour>
      <point x="204" y="512" type="line"/>
      <point x="262" y="512" type="line"/>
      <point x="262" y="556" type="line"/>
      <point x="322" y="575"/>
      <point x="349" y="604"/>
      <point x="349" y="661" type="curve" smooth="yes"/>
      <point x="349" y="721"/>
      <point x="313" y="766"/>
      <point x="240" y="766" type="curve" smooth="yes"/>
      <point x="204" y="766"/>
      <point x="173" y="755"/>
      <point x="151" y="739" type="curve"/>
      <point x="170" y="688" type="line"/>
      <point x="187" y="703"/>
      <point x="208" y="711"/>
      <point x="231" y="711" type="curve" smooth="yes"/>
      <point x="267" y="711"/>
      <point x="282" y="685"/>
      <point x="282" y="658" type="curve" smooth="yes"/>
      <point x="282" y="617"/>
      <point x="255" y="600"/>
      <point x="204" y="589" type="curve"/>
    </contour>
  </outline>
</glyph>
<glyph name="caron" format="2">
  <advance width="500"/>
  <unicode hex="02C7"/>
  <anchor x="249" y="528" name="_top"/>
  <anchor x="249" y="763" name="top"/>
  <outline>
    <contour>
      <point x="211" y="606" type="curve"/>
      <point x="288" y="606" type="line"/>
      <point x="309" y="652"/>
      <point x="351" y="715"/>
      <point x="381" y="756" type="curve"/>
      <point x="381" y="766" type="line"/>
      <point x="336" y="766" type="line"/>
      <point x="302" y="731"/>
      <point x="284" y="712"/>
      <point x="250" y="672" type="curve"/>
      <point x="220" y="706"/>
      <point x="189" y="743"/>
      <point x="164" y="766" type="curve"/>
      <point x="119" y="766" type="line"/>
      <point x="119" y="756" type="line"/>
      <point x="154" y="709"/>
      <point x="190" y="650"/>
    </contour>
  </outline>
</glyph>
<glyph name="ogonek" format="2">
  <advance width="500"/>
  <unicode hex="02DB"/>
  <outline>
    <contour>
      <point x="274" y="-224" type="curve" smooth="yes"/>
      <point x="294" y="-224"/>
      <point x="310" y="-221"/>
      <point x="321" y="-216" type="curve"/>
      <point x="321" y="-160" type="line"/>
      <point x="314" y="-163"/>
      <point x="304" y="-166"/>
      <point x="291" y="-166" type="curve" smooth="yes"/>
      <point x="260" y="-166"/>
      <point x="245" y="-149"/>
      <point x="245" y="-115" type="curve" smooth="yes"/>
      <point x="245" y="-80"/>
      <point x="260" y="-45"/>
      <point x="305" y="0" type="curve"/>
      <point x="259" y="12" type="line"/>
      <point x="211" y="-27"/>
      <point x="178" y="-76"/>
      <point x="178" y="-134" type="curve" smooth="yes"/>
      <point x="178" y="-191"/>
      <point x="210" y="-224"/>
    </contour>
  </outline>
</glyph>
<glyph name="tilde" format="2">
  <advance width="500"/>
  <unicode hex="02DC"/>
  <outline>
    <contour>
      <point x="102" y="609" type="curve"/>
      <point x="152" y="609" type="line"/>
      <point x="158" y="646"/>
      <point x="168" y="668"/>
      <point x="190" y="668" type="curve" smooth="yes"/>
      <point x="221" y="668"/>
      <point x="268" y="610"/>
      <point x="316" y="610" type="curve" smooth="yes"/>
      <point x="361" y="610"/>
      <point x="393" y="653"/>
      <point x="398" y="732" type="curve"/>
      <point x="347" y="732" type="line"/>
      <point x="341" y="697"/>
      <point x="334" y="674"/>
      <point x="312" y="674" type="curve" smooth="yes"/>
      <point x="275" y="674"/>
      <point x="234" y="731"/>
      <point x="185" y="731" type="curve" smooth="yes"/>
      <point x="129" y="731"/>
      <point x="108" y="672"/>
    </contour>
  </outline>
</glyph>
<glyph name="uni02EA" format="2">
  <advance width="500"/>
  <unicode hex="02EA"/>
  <outline>
    <contour>
      <point x="141" y="166" type="line"/>
      <point x="359" y="166" type="line"/>
      <point x="359" y="221" type="line"/>
      <point x="196" y="221" type="line"/>
      <point x="196" y="528" type="line"/>
      <point x="141" y="528" type="line"/>
    </contour>
  </outline>
</glyph>
<glyph name="uni02F1" format="2">
  <advance width="500"/>
  <unicode hex="02F1"/>
  <outline>
    <contour>
      <point x="333" y="-224" type="line"/>
      <point x="333" y="-175" type="line"/>
      <point x="219" y="-108" type="line"/>
      <point x="333" y="-42" type="line"/>
      <point x="333" y="7" type="line"/>
      <point x="167" y="-91" type="line"/>
      <point x="167" y="-126" type="line"/>
    </contour>
  </outline>
</glyph>
<glyph name="uni02FD" format="2">
  <advance width="500"/>
  <unicode hex="02FD"/>
  <outline>
    <contour>
      <point x="125" y="-195" type="line"/>
      <point x="375" y="-195" type="line"/>
      <point x="375" y="-46" type="line"/>
      <point x="328" y="-46" type="line"/>
      <point x="328" y="-148" type="line"/>
      <point x="172" y="-148" type="line"/>
      <point x="172" y="-46" type="line"/>
      <point x="125" y="-46" type="line"/>
    </contour>
  </outline>
</glyph>
<glyph name="uni02FE" format="2">
  <advance width="500"/>
  <unicode hex="02FE"/>
  <outline>
    <contour>
      <point x="133" y="-195" type="line"/>
      <point x="367" y="-195" type="line"/>
      <point x="367" y="-149" type="line"/>
      <point x="180" y="-149" type="line"/>
      <point x="180" y="-45" type="line"/>
      <point x="133" y="-45" type="line"/>
    </contour>
  </outline>
</glyph>
<glyph name="dblgravecomb" format="2">
  <unicode hex="030F"/>
  <anchor x="0" y="537" name="_top"/>
  <anchor x="0" y="766" name="top"/>
  <outline>
    <contour>
      <point x="86" y="606" type="curve"/>
      <point x="124" y="606" type="line"/>
      <point x="124" y="617" type="line"/>
      <point x="99" y="658"/>
      <point x="60" y="729"/>
      <point x="45" y="766" type="curve"/>
      <point x="-38" y="766" type="line"/>
      <point x="-38" y="757" type="line"/>
      <point x="-19" y="717"/>
      <point x="45" y="639"/>
    </contour>
    <contour>
      <point x="-62" y="606" type="curve"/>
      <point x="-21" y="606" type="line"/>
      <point x="-21" y="617" type="line"/>
      <point x="-49" y="662"/>
      <point x="-75" y="712"/>
      <point x="-99" y="766" type="curve"/>
      <point x="-184" y="766" type="line"/>
      <point x="-184" y="757" type="line"/>
      <point x="-162" y="715"/>
      <point x="-101" y="641"/>
    </contour>
  </outline>
</glyph>
<glyph name="candraBinducomb" format="2">
  <unicode hex="0310"/>
  <anchor x="0" y="537" name="_top"/>
  <anchor x="0" y="808" name="top"/>
  <outline>
    <contour>
      <point x="-1" y="606" type="curve" smooth="yes"/>
      <point x="76" y="606"/>
      <point x="118" y="656"/>
      <point x="125" y="744" type="curve"/>
      <point x="78" y="744" type="line"/>
      <point x="72" y="688"/>
      <point x="45" y="660"/>
      <point x="-1" y="660" type="curve" smooth="yes"/>
      <point x="-44" y="660"/>
      <point x="-73" y="687"/>
      <point x="-79" y="744" type="curve"/>
      <point x="-125" y="744" type="line"/>
      <point x="-121" y="655"/>
      <point x="-80" y="606"/>
    </contour>
    <contour>
      <point x="-2" y="705" type="curve" smooth="yes"/>
      <point x="22" y="705"/>
      <point x="36" y="725"/>
      <point x="36" y="756" type="curve" smooth="yes"/>
      <point x="36" y="790"/>
      <point x="22" y="808"/>
      <point x="-2" y="808" type="curve" smooth="yes"/>
      <point x="-26" y="808"/>
      <point x="-38" y="791"/>
      <point x="-38" y="756" type="curve" smooth="yes"/>
      <point x="-38" y="722"/>
      <point x="-26" y="705"/>
    </contour>
  </outline>
</glyph>
<glyph name="ringhalfleftbelowcomb" format="2">
  <unicode hex="031C"/>
  <anchor x="0" y="0" name="_bottom"/>
  <anchor x="0" y="-234" name="bottom"/>
  <outline>
    <contour>
      <point x="57" y="-234" type="curve"/>
      <point x="57" y="-188" type="line"/>
      <point x="18" y="-188"/>
      <point x="-6" y="-166"/>
      <point x="-6" y="-126" type="curve" smooth="yes"/>
      <point x="-6" y="-87"/>
      <point x="21" y="-65"/>
      <point x="57" y="-65" type="curve"/>
      <point x="57" y="-19" type="line"/>
      <point x="-12" y="-19"/>
      <point x="-58" y="-59"/>
      <point x="-58" y="-127" type="curve" smooth="yes"/>
      <point x="-58" y="-194"/>
      <point x="-12" y="-234"/>
    </contour>
  </outline>
</glyph>
<glyph name="slashshortoverlaycomb" format="2">
  <unicode hex="0337"/>
  <anchor x="0" y="283" name="_center"/>
  <outline>
    <contour>
      <point x="-93" y="167" type="line"/>
      <point x="131" y="352" type="line"/>
      <point x="92" y="399" type="line"/>
      <point x="-131" y="214" type="line"/>
    </contour>
  </outline>
</glyph>
<glyph name="seagullbelowcomb" format="2">
  <unicode hex="033C"/>
  <anchor x="0" y="0" name="_bottom"/>
  <anchor x="0" y="-170" name="bottom"/>
  <outline>
    <contour>
      <point x="-133" y="-170" type="curve"/>
      <point x="-92" y="-170" type="line"/>
      <point x="-92" y="-125"/>
      <point x="-80" y="-104"/>
      <point x="-56" y="-104" type="curve" smooth="yes"/>
      <point x="-30" y="-104"/>
      <point x="-19" y="-125"/>
      <point x="-19" y="-170" type="curve"/>
      <point x="20" y="-170" type="line"/>
      <point x="20" y="-125"/>
      <point x="33" y="-104"/>
      <point x="57" y="-104" type="curve" smooth="yes"/>
      <point x="82" y="-104"/>
      <point x="92" y="-125"/>
      <point x="92" y="-170" type="curve"/>
      <point x="133" y="-170" type="line"/>
      <point x="133" y="-91"/>
      <point x="99" y="-61"/>
      <point x="56" y="-61" type="curve" smooth="yes"/>
      <point x="31" y="-61"/>
      <point x="11" y="-78"/>
      <point x="1" y="-103" type="curve"/>
      <point x="-11" y="-78"/>
      <point x="-30" y="-61"/>
      <point x="-56" y="-61" type="curve" smooth="yes"/>
      <point x="-98" y="-61"/>
      <point x="-133" y="-90"/>
    </contour>
  </outline>
</glyph>
<glyph name="xabovecomb" format="2">
  <unicode hex="033D"/>
  <anchor x="0" y="537" name="_top"/>
  <anchor x="0" y="768" name="top"/>
  <outline>
    <contour>
      <point x="-60" y="578" type="line"/>
      <point x="1" y="637" type="line"/>
      <point x="59" y="578" type="line"/>
      <point x="95" y="613" type="line"/>
      <point x="35" y="673" type="line"/>
      <point x="95" y="732" type="line"/>
      <point x="59" y="768" type="line"/>
      <point x="1" y="708" type="line"/>
      <point x="-60" y="768" type="line"/>
      <point x="-95" y="732" type="line"/>
      <point x="-37" y="673" type="line"/>
      <point x="-95" y="613" type="line"/>
    </contour>
  </outline>
</glyph>
<glyph name="tildeverticalcomb" format="2">
  <unicode hex="033E"/>
  <anchor x="0" y="537" name="_top"/>
  <anchor x="0" y="866" name="top"/>
  <outline>
    <contour>
      <point x="-44" y="576" type="line"/>
      <point x="16" y="581"/>
      <point x="47" y="612"/>
      <point x="47" y="662" type="curve" smooth="yes"/>
      <point x="47" y="718"/>
      <point x="0" y="746"/>
      <point x="0" y="781" type="curve" smooth="yes"/>
      <point x="0" y="808"/>
      <point x="11" y="822"/>
      <point x="45" y="825" type="curve"/>
      <point x="45" y="866" type="line"/>
      <point x="-16" y="861"/>
      <point x="-47" y="831"/>
      <point x="-47" y="783" type="curve" smooth="yes"/>
      <point x="-47" y="728"/>
      <point x="1" y="702"/>
      <point x="1" y="661" type="curve" smooth="yes"/>
      <point x="1" y="637"/>
      <point x="-10" y="619"/>
      <point x="-44" y="614" type="curve"/>
    </contour>
  </outline>
</glyph>
<glyph name="nottildeabovecomb" format="2">
  <unicode hex="034A"/>
  <anchor x="0" y="537" name="_top"/>
  <anchor x="0" y="759" name="top"/>
  <outline>
    <contour>
      <point x="-31" y="563" type="line"/>
      <point x="6" y="628" type="line"/>
      <point x="23" y="617"/>
      <point x="41" y="607"/>
      <point x="60" y="607" type="curve" smooth="yes"/>
      <point x="108" y="607"/>
      <point x="135" y="650"/>
      <point x="141" y="717" type="curve"/>
      <point x="98" y="717" type="line"/>
      <point x="93" y="680"/>
      <point x="84" y="657"/>
      <point x="62" y="657" type="curve" smooth="yes"/>
      <point x="52" y="657"/>
      <point x="41" y="662"/>
      <point x="30" y="671" type="curve"/>
      <point x="68" y="739" type="line"/>
      <point x="31" y="759" type="line"/>
      <point x="-5" y="696" type="line"/>
      <point x="-21" y="707"/>
      <point x="-38" y="716"/>
      <point x="-58" y="716" type="curve" smooth="yes"/>
      <point x="-108" y="716"/>
      <point x="-134" y="670"/>
      <point x="-141" y="606" type="curve"/>
      <point x="-99" y="606" type="line"/>
      <point x="-93" y="644"/>
      <point x="-81" y="667"/>
      <point x="-60" y="667" type="curve" smooth="yes"/>
      <point x="-50" y="667"/>
      <point x="-40" y="661"/>
      <point x="-29" y="653" type="curve"/>
      <point x="-68" y="583" type="line"/>
    </contour>
  </outline>
</glyph>
<glyph name="homotheticabovecomb" format="2">
  <unicode hex="034B"/>
  <anchor x="0" y="537" name="_top"/>
  <anchor x="0" y="924" name="top"/>
  <outline>
    <contour>
      <point x="-141" y="693" type="curve"/>
      <point x="-95" y="693" type="line"/>
      <point x="-91" y="728"/>
      <point x="-77" y="748"/>
      <point x="-60" y="748" type="curve" smooth="yes"/>
      <point x="-28" y="748"/>
      <point x="16" y="694"/>
      <point x="60" y="694" type="curve" smooth="yes"/>
      <point x="105" y="694"/>
      <point x="136" y="732"/>
      <point x="141" y="806" type="curve"/>
      <point x="95" y="806" type="line"/>
      <point x="92" y="771"/>
      <point x="79" y="751"/>
      <point x="61" y="751" type="curve" smooth="yes"/>
      <point x="28" y="751"/>
      <point x="-15" y="805"/>
      <point x="-57" y="805" type="curve" smooth="yes"/>
      <point x="-106" y="805"/>
      <point x="-135" y="764"/>
    </contour>
    <contour>
      <point x="1" y="575" type="curve" smooth="yes"/>
      <point x="21" y="575"/>
      <point x="34" y="592"/>
      <point x="34" y="623" type="curve" smooth="yes"/>
      <point x="34" y="655"/>
      <point x="21" y="672"/>
      <point x="1" y="672" type="curve" smooth="yes"/>
      <point x="-20" y="672"/>
      <point x="-32" y="656"/>
      <point x="-32" y="623" type="curve" smooth="yes"/>
      <point x="-32" y="590"/>
      <point x="-20" y="575"/>
    </contour>
    <contour>
      <point x="1" y="827" type="curve" smooth="yes"/>
      <point x="21" y="827"/>
      <point x="34" y="844"/>
      <point x="34" y="875" type="curve" smooth="yes"/>
      <point x="34" y="907"/>
      <point x="21" y="924"/>
      <point x="1" y="924" type="curve" smooth="yes"/>
      <point x="-20" y="924"/>
      <point x="-32" y="908"/>
      <point x="-32" y="875" type="curve" smooth="yes"/>
      <point x="-32" y="842"/>
      <point x="-20" y="827"/>
    </contour>
  </outline>
</glyph>
<glyph name="almostequaltoabovecomb" format="2">
  <unicode hex="034C"/>
  <anchor x="0" y="536" name="_top"/>
  <anchor x="0" y="846" name="top"/>
  <outline>
    <contour>
      <point x="58" y="747" type="curve" smooth="yes"/>
      <point x="106" y="747"/>
      <point x="130" y="781"/>
      <point x="132" y="846" type="curve"/>
      <point x="90" y="846" type="line"/>
      <point x="88" y="812"/>
      <point x="82" y="797"/>
      <point x="60" y="797" type="curve" smooth="yes"/>
      <point x="29" y="797"/>
      <point x="-7" y="846"/>
      <point x="-55" y="846" type="curve" smooth="yes"/>
      <point x="-105" y="846"/>
      <point x="-128" y="810"/>
      <point x="-132" y="749" type="curve"/>
      <point x="-89" y="749" type="line"/>
      <point x="-86" y="783"/>
      <point x="-78" y="796"/>
      <point x="-57" y="796" type="curve" smooth="yes"/>
      <point x="-28" y="796"/>
      <point x="11" y="747"/>
    </contour>
    <contour>
      <point x="58" y="621" type="curve" smooth="yes"/>
      <point x="106" y="621"/>
      <point x="130" y="656"/>
      <point x="132" y="721" type="curve"/>
      <point x="90" y="721" type="line"/>
      <point x="88" y="686"/>
      <point x="82" y="671"/>
      <point x="60" y="671" type="curve" smooth="yes"/>
      <point x="29" y="671"/>
      <point x="-7" y="720"/>
      <point x="-55" y="720" type="curve" smooth="yes"/>
      <point x="-105" y="720"/>
      <point x="-128" y="685"/>
      <point x="-132" y="624" type="curve"/>
      <point x="-89" y="624" type="line"/>
      <point x="-86" y="657"/>
      <point x="-78" y="670"/>
      <point x="-57" y="670" type="curve" smooth="yes"/>
      <point x="-28" y="670"/>
      <point x="11" y="621"/>
    </contour>
  </outline>
</glyph>
<glyph name="arrowleftrightbelowcomb" format="2">
  <unicode hex="034D"/>
  <anchor x="0" y="0" name="_bottom"/>
  <anchor x="0" y="-203" name="bottom"/>
  <outline>
    <contour>
      <point x="-37" y="-203" type="line"/>
      <point x="-37" y="-149" type="line"/>
      <point x="35" y="-149" type="line"/>
      <point x="35" y="-203" type="line"/>
      <point x="117" y="-128" type="line"/>
      <point x="35" y="-51" type="line"/>
      <point x="35" y="-105" type="line"/>
      <point x="-37" y="-105" type="line"/>
      <point x="-37" y="-51" type="line"/>
      <point x="-117" y="-127" type="line"/>
    </contour>
  </outline>
</glyph>
<glyph name="arrowheadrightabovecomb" format="2">
  <unicode hex="0350"/>
  <anchor x="0" y="537" name="_top"/>
  <anchor x="0" y="796" name="top"/>
  <outline>
    <contour>
      <point x="-57" y="589" type="line"/>
      <point x="-51" y="589" type="line"/>
      <point x="-15" y="625"/>
      <point x="26" y="655"/>
      <point x="57" y="670" type="curve"/>
      <point x="57" y="714" type="line"/>
      <point x="25" y="732"/>
      <point x="-23" y="771"/>
      <point x="-51" y="796" type="curve"/>
      <point x="-57" y="796" type="line"/>
      <point x="-57" y="758" type="line"/>
      <point x="-37" y="735"/>
      <point x="-15" y="714"/>
      <point x="11" y="692" type="curve"/>
      <point x="-14" y="672"/>
      <point x="-37" y="651"/>
      <point x="-57" y="628" type="curve"/>
    </contour>
  </outline>
</glyph>
<glyph name="arrowheadleftbelowcomb" format="2">
  <unicode hex="0354"/>
  <anchor x="0" y="0" name="_bottom"/>
  <anchor x="0" y="-240" name="bottom"/>
  <outline>
    <contour>
      <point x="50" y="-240" type="curve"/>
      <point x="57" y="-240" type="line"/>
      <point x="57" y="-202" type="line"/>
      <point x="36" y="-180"/>
      <point x="14" y="-161"/>
      <point x="-11" y="-139" type="curve"/>
      <point x="14" y="-119"/>
      <point x="37" y="-100"/>
      <point x="57" y="-78" type="curve"/>
      <point x="57" y="-39" type="line"/>
      <point x="50" y="-39" type="line"/>
      <point x="14" y="-73"/>
      <point x="-27" y="-102"/>
      <point x="-57" y="-117" type="curve"/>
      <point x="-57" y="-161" type="line"/>
      <point x="-26" y="-179"/>
      <point x="22" y="-216"/>
    </contour>
  </outline>
</glyph>
<glyph name="arrowheadrightheadupbelowcomb" format="2">
  <unicode hex="0356"/>
  <anchor x="0" y="0" name="_bottom"/>
  <anchor x="0" y="-240" name="bottom"/>
  <outline>
    <contour>
      <point x="-19" y="-230" type="line"/>
      <point x="16" y="-230" type="line"/>
      <point x="30" y="-199"/>
      <point x="44" y="-159"/>
      <point x="57" y="-120" type="curve"/>
      <point x="69" y="-157"/>
      <point x="85" y="-197"/>
      <point x="99" y="-230" type="curve"/>
      <point x="135" y="-230" type="line"/>
      <point x="135" y="-219" type="line"/>
      <point x="113" y="-160"/>
      <point x="92" y="-97"/>
      <point x="82" y="-53" type="curve"/>
      <point x="34" y="-53" type="line"/>
      <point x="23" y="-100"/>
      <point x="-4" y="-180"/>
      <point x="-19" y="-220" type="curve"/>
    </contour>
    <contour>
      <point x="-135" y="-240" type="line"/>
      <point x="-128" y="-240" type="line"/>
      <point x="-92" y="-206"/>
      <point x="-51" y="-177"/>
      <point x="-21" y="-163" type="curve"/>
      <point x="-21" y="-118" type="line"/>
      <point x="-53" y="-100"/>
      <point x="-101" y="-63"/>
      <point x="-128" y="-39" type="curve"/>
      <point x="-135" y="-39" type="line"/>
      <point x="-135" y="-77" type="line"/>
      <point x="-115" y="-99"/>
      <point x="-93" y="-118"/>
      <point x="-67" y="-140" type="curve"/>
      <point x="-92" y="-160"/>
      <point x="-115" y="-180"/>
      <point x="-135" y="-202" type="curve"/>
    </contour>
  </outline>
</glyph>
<glyph name="doublebrevebelowcomb" format="2">
  <unicode hex="035C"/>
  <anchor x="0" y="0" name="_bottom"/>
  <anchor x="0" y="-229" name="bottom"/>
  <outline>
    <contour>
      <point x="2" y="-229" type="curve"/>
      <point x="128" y="-229"/>
      <point x="227" y="-175"/>
      <point x="275" y="-42" type="curve"/>
      <point x="217" y="-42" type="line"/>
      <point x="177" y="-124"/>
      <point x="100" y="-159"/>
      <point x="2" y="-159" type="curve"/>
      <point x="-112" y="-159"/>
      <point x="-183" y="-115"/>
      <point x="-217" y="-42" type="curve"/>
      <point x="-276" y="-42" type="line"/>
      <point x="-237" y="-166"/>
      <point x="-140" y="-229"/>
    </contour>
  </outline>
</glyph>
<glyph name="Upsilontonos" format="2">
  <advance width="500"/>
  <unicode hex="038E"/>
  <anchor x="300" y="0" name="bottom"/>
  <anchor x="300" y="714" name="top"/>
  <outline>
    <contour>
      <point x="258" y="0" type="line"/>
      <point x="340" y="0" type="line"/>
      <point x="340" y="273" type="line"/>
      <point x="490" y="714" type="line"/>
      <point x="400" y="714" type="line"/>
      <point x="300" y="363" type="line"/>
      <point x="193" y="714" type="line"/>
      <point x="105" y="714" type="line"/>
      <point x="258" y="273" type="line"/>
    </contour>
    <component base="tonos" xOffset="-243"/>
  </outline>
</glyph>
<glyph name="Gamma" format="2">
  <advance width="500"/>
  <unicode hex="0393"/>
  <anchor x="270" y="0" name="bottom"/>
  <anchor x="270" y="714" name="top"/>
  <outline>
    <contour>
      <point x="75" y="0" type="line"/>
      <point x="159" y="0" type="line"/>
      <point x="159" y="638" type="line"/>
      <point x="440" y="638" type="line"/>
      <point x="440" y="714" type="line"/>
      <point x="75" y="714" type="line"/>
    </contour>
  </outline>
</glyph>
<glyph name="Delta" format="2">
  <advance width="500"/>
  <unicode hex="0394"/>
  <anchor x="250" y="0" name="bottom"/>
  <anchor x="250" y="714" name="top"/>
  <outline>
    <contour>
      <point x="20" y="0" type="line"/>
      <point x="480" y="0" type="line"/>
      <point x="480" y="57" type="line"/>
      <point x="300" y="714" type="line"/>
      <point x="198" y="714" type="line"/>
      <point x="20" y="62" type="line"/>
    </contour>
    <contour>
      <point x="114" y="76" type="line"/>
      <point x="218" y="491" type="line" smooth="yes"/>
      <point x="228" y="532"/>
      <point x="241" y="587"/>
      <point x="248" y="631" type="curve"/>
      <point x="255" y="587"/>
      <point x="267" y="534"/>
      <point x="278" y="491" type="curve" smooth="yes"/>
      <point x="386" y="76" type="line"/>
    </contour>
  </outline>
</glyph>
<glyph name="Theta" format="2">
  <advance width="500"/>
  <unicode hex="0398"/>
  <anchor x="250" y="0" name="bottom"/>
  <anchor x="250" y="714" name="top"/>
  <anchor x="20" y="714" name="topleft"/>
  <anchor x="249" y="10" name="ogonek"/>
  <anchor x="250" y="357" name="center"/>
  <anchor x="500" y="714" name="topright"/>
  <outline>
    <contour>
      <point x="165" y="327" type="line"/>
      <point x="336" y="327" type="line"/>
      <point x="336" y="400" type="line"/>
      <point x="165" y="400" type="line"/>
    </contour>
    <component base="O"/>
  </outline>
</glyph>
<glyph name="Omega" format="2">
  <advance width="500"/>
  <unicode hex="03A9"/>
  <anchor x="250" y="0" name="bottom"/>
  <anchor x="249" y="714" name="top"/>
  <anchor x="20" y="714" name="topleft"/>
  <outline>
    <contour>
      <point x="20" y="0" type="line"/>
      <point x="212" y="0" type="line"/>
      <point x="212" y="67" type="line"/>
      <point x="142" y="142"/>
      <point x="111" y="251"/>
      <point x="111" y="396" type="curve" smooth="yes"/>
      <point x="111" y="566"/>
      <point x="160" y="651"/>
      <point x="252" y="651" type="curve" smooth="yes"/>
      <point x="346" y="651"/>
      <point x="389" y="559"/>
      <point x="389" y="397" type="curve" smooth="yes"/>
      <point x="389" y="249"/>
      <point x="362" y="144"/>
      <point x="287" y="67" type="curve"/>
      <point x="287" y="0" type="line"/>
      <point x="480" y="0" type="line"/>
      <point x="480" y="76" type="line"/>
      <point x="370" y="76" type="line"/>
      <point x="435" y="140"/>
      <point x="475" y="246"/>
      <point x="475" y="404" type="curve" smooth="yes"/>
      <point x="475" y="614"/>
      <point x="397" y="724"/>
      <point x="252" y="724" type="curve" smooth="yes"/>
      <point x="106" y="724"/>
      <point x="24" y="619"/>
      <point x="24" y="403" type="curve" smooth="yes"/>
      <point x="24" y="249"/>
      <point x="64" y="142"/>
      <point x="129" y="76" type="curve"/>
      <point x="20" y="76" type="line"/>
    </contour>
  </outline>
</glyph>
<glyph name="beta" format="2">
  <advance width="500"/>
  <unicode hex="03B2"/>
  <anchor x="286" y="0" name="bottom"/>
  <anchor x="254" y="765" name="top"/>
  <anchor x="480" y="765" name="topright"/>
  <outline>
    <contour>
      <point x="60" y="-240" type="line"/>
      <point x="141" y="-240" type="line"/>
      <point x="141" y="23" type="line"/>
      <point x="174" y="1"/>
      <point x="208" y="-10"/>
      <point x="254" y="-10" type="curve" smooth="yes"/>
      <point x="374" y="-10"/>
      <point x="448" y="63"/>
      <point x="448" y="209" type="curve" smooth="yes"/>
      <point x="448" y="331"/>
      <point x="397" y="390"/>
      <point x="315" y="401" type="curve"/>
      <point x="315" y="405" type="line"/>
      <point x="387" y="415"/>
      <point x="419" y="480"/>
      <point x="419" y="570" type="curve" smooth="yes"/>
      <point x="419" y="695"/>
      <point x="358" y="765"/>
      <point x="244" y="765" type="curve" smooth="yes"/>
      <point x="127" y="765"/>
      <point x="60" y="691"/>
      <point x="60" y="560" type="curve" smooth="yes"/>
    </contour>
    <contour>
      <point x="245" y="63" type="curve" smooth="yes"/>
      <point x="205" y="63"/>
      <point x="167" y="76"/>
      <point x="141" y="97" type="curve"/>
      <point x="141" y="557" type="line" smooth="yes"/>
      <point x="141" y="646"/>
      <point x="177" y="694"/>
      <point x="243" y="694" type="curve" smooth="yes"/>
      <point x="301" y="694"/>
      <point x="339" y="657"/>
      <point x="339" y="560" type="curve" smooth="yes"/>
      <point x="339" y="476"/>
      <point x="310" y="434"/>
      <point x="248" y="434" type="curve" smooth="yes"/>
      <point x="233" y="434" type="line"/>
      <point x="233" y="362" type="line"/>
      <point x="253" y="362" type="line" smooth="yes"/>
      <point x="329" y="362"/>
      <point x="366" y="309"/>
      <point x="366" y="214" type="curve" smooth="yes"/>
      <point x="366" y="114"/>
      <point x="325" y="63"/>
    </contour>
  </outline>
</glyph>
<glyph name="epsilon" format="2">
  <advance width="500"/>
  <unicode hex="03B5"/>
  <anchor x="266" y="0" name="bottom"/>
  <anchor x="250" y="536" name="top"/>
  <outline>
    <contour>
      <point x="287" y="-10" type="curve" smooth="yes"/>
      <point x="345" y="-10"/>
      <point x="385" y="0"/>
      <point x="424" y="23" type="curve"/>
      <point x="424" y="97" type="line"/>
      <point x="389" y="76"/>
      <point x="348" y="61"/>
      <point x="293" y="61" type="curve" smooth="yes"/>
      <point x="214" y="61"/>
      <point x="154" y="92"/>
      <point x="154" y="155" type="curve" smooth="yes"/>
      <point x="154" y="212"/>
      <point x="204" y="249"/>
      <point x="312" y="249" type="curve" smooth="yes"/>
      <point x="355" y="249" type="line"/>
      <point x="355" y="314" type="line"/>
      <point x="319" y="314" type="line" smooth="yes"/>
      <point x="221" y="314"/>
      <point x="171" y="346"/>
      <point x="171" y="399" type="curve" smooth="yes"/>
      <point x="171" y="448"/>
      <point x="214" y="477"/>
      <point x="292" y="477" type="curve" smooth="yes"/>
      <point x="325" y="477"/>
      <point x="357" y="472"/>
      <point x="397" y="449" type="curve"/>
      <point x="429" y="512" type="line"/>
      <point x="384" y="536"/>
      <point x="341" y="547"/>
      <point x="288" y="547" type="curve" smooth="yes"/>
      <point x="170" y="547"/>
      <point x="92" y="492"/>
      <point x="92" y="407" type="curve" smooth="yes"/>
      <point x="92" y="349"/>
      <point x="129" y="305"/>
      <point x="198" y="287" type="curve"/>
      <point x="198" y="283" type="line"/>
      <point x="120" y="267"/>
      <point x="71" y="222"/>
      <point x="71" y="146" type="curve" smooth="yes"/>
      <point x="71" y="56"/>
      <point x="139" y="-10"/>
    </contour>
  </outline>
</glyph>
<glyph name="zeta" format="2">
  <advance width="500"/>
  <unicode hex="03B6"/>
  <anchor x="277" y="-198" name="bottom"/>
  <anchor x="279" y="760" name="top"/>
  <outline>
    <contour>
      <point x="265" y="-198" type="curve"/>
      <point x="347" y="-198" type="line"/>
      <point x="378" y="-155"/>
      <point x="404" y="-101"/>
      <point x="404" y="-52" type="curve" smooth="yes"/>
      <point x="404" y="25"/>
      <point x="339" y="53"/>
      <point x="297" y="74" type="curve" smooth="yes"/>
      <point x="207" y="119"/>
      <point x="186" y="157"/>
      <point x="186" y="238" type="curve" smooth="yes"/>
      <point x="186" y="415"/>
      <point x="286" y="563"/>
      <point x="416" y="701" type="curve"/>
      <point x="416" y="760" type="line"/>
      <point x="120" y="760" type="line"/>
      <point x="120" y="690" type="line"/>
      <point x="213" y="690" type="line" smooth="yes"/>
      <point x="262" y="690"/>
      <point x="298" y="692"/>
      <point x="329" y="696" type="curve"/>
      <point x="172" y="532"/>
      <point x="103" y="402"/>
      <point x="103" y="230" type="curve" smooth="yes"/>
      <point x="103" y="118"/>
      <point x="144" y="66"/>
      <point x="241" y="13" type="curve" smooth="yes"/>
      <point x="291" y="-14"/>
      <point x="323" y="-32"/>
      <point x="323" y="-69" type="curve" smooth="yes"/>
      <point x="323" y="-101"/>
      <point x="298" y="-153"/>
    </contour>
  </outline>
</glyph>
<glyph name="eta" format="2">
  <advance width="500"/>
  <unicode hex="03B7"/>
  <anchor x="251" y="-240" name="bottom"/>
  <anchor x="250" y="536" name="top"/>
  <anchor x="480" y="536" name="topright"/>
  <outline>
    <contour>
      <point x="363" y="-240" type="line"/>
      <point x="445" y="-240" type="line"/>
      <point x="445" y="121" type="line"/>
      <point x="363" y="121" type="line"/>
    </contour>
    <component base="n"/>
  </outline>
</glyph>
<glyph name="theta" format="2">
  <advance width="500"/>
  <unicode hex="03B8"/>
  <anchor x="249" y="0" name="bottom"/>
  <anchor x="251" y="771" name="top"/>
  <anchor x="480" y="771" name="topright"/>
  <outline>
    <contour>
      <point x="248" y="-10" type="curve" smooth="yes"/>
      <point x="375" y="-10"/>
      <point x="438" y="120"/>
      <point x="438" y="382" type="curve" smooth="yes"/>
      <point x="438" y="642"/>
      <point x="376" y="771"/>
      <point x="250" y="771" type="curve" smooth="yes"/>
      <point x="126" y="771"/>
      <point x="61" y="640"/>
      <point x="61" y="381" type="curve" smooth="yes"/>
      <point x="61" y="119"/>
      <point x="122" y="-10"/>
    </contour>
    <contour>
      <point x="248" y="59" type="curve" smooth="yes"/>
      <point x="180" y="59"/>
      <point x="146" y="158"/>
      <point x="143" y="354" type="curve"/>
      <point x="355" y="354" type="line"/>
      <point x="351" y="157"/>
      <point x="316" y="59"/>
    </contour>
    <contour>
      <point x="144" y="423" type="line"/>
      <point x="149" y="608"/>
      <point x="181" y="702"/>
      <point x="249" y="702" type="curve" smooth="yes"/>
      <point x="317" y="702"/>
      <point x="350" y="607"/>
      <point x="355" y="423" type="curve"/>
    </contour>
  </outline>
</glyph>
<glyph name="lambda" format="2">
  <advance width="500"/>
  <unicode hex="03BB"/>
  <anchor x="237" y="0" name="bottom"/>
  <anchor x="239" y="767" name="top"/>
  <outline>
    <contour>
      <point x="408" y="-10" type="curve" smooth="yes"/>
      <point x="423" y="-10"/>
      <point x="438" y="-8"/>
      <point x="450" y="-3" type="curve"/>
      <point x="450" y="68" type="line"/>
      <point x="442" y="65"/>
      <point x="431" y="63"/>
      <point x="422" y="63" type="curve" smooth="yes"/>
      <point x="393" y="63"/>
      <point x="380" y="85"/>
      <point x="369" y="134" type="curve" smooth="yes"/>
      <point x="258" y="628" type="line" smooth="yes"/>
      <point x="235" y="732"/>
      <point x="195" y="767"/>
      <point x="132" y="767" type="curve" smooth="yes"/>
      <point x="113" y="767"/>
      <point x="98" y="764"/>
      <point x="85" y="760" type="curve"/>
      <point x="85" y="691" type="line"/>
      <point x="94" y="695"/>
      <point x="106" y="697"/>
      <point x="117" y="697" type="curve" smooth="yes"/>
      <point x="153" y="697"/>
      <point x="168" y="673"/>
      <point x="179" y="620" type="curve" smooth="yes"/>
      <point x="198" y="529" type="line"/>
      <point x="50" y="0" type="line"/>
      <point x="133" y="0" type="line"/>
      <point x="222" y="345" type="line" smooth="yes"/>
      <point x="227" y="365"/>
      <point x="230" y="385"/>
      <point x="233" y="405" type="curve"/>
      <point x="237" y="405" type="line"/>
      <point x="242" y="373"/>
      <point x="248" y="337"/>
      <point x="256" y="301" type="curve" smooth="yes"/>
      <point x="295" y="119" type="line" smooth="yes"/>
      <point x="316" y="22"/>
      <point x="349" y="-10"/>
    </contour>
  </outline>
</glyph>
<glyph name="xi" format="2">
  <advance width="500"/>
  <unicode hex="03BE"/>
  <anchor x="293" y="-198" name="bottom"/>
  <anchor x="295" y="760" name="top"/>
  <outline>
    <contour>
      <point x="292" y="-198" type="curve"/>
      <point x="376" y="-198" type="line"/>
      <point x="406" y="-153"/>
      <point x="432" y="-102"/>
      <point x="432" y="-53" type="curve" smooth="yes"/>
      <point x="432" y="33"/>
      <point x="354" y="59"/>
      <point x="306" y="74" type="curve" smooth="yes"/>
      <point x="219" y="101"/>
      <point x="186" y="138"/>
      <point x="186" y="214" type="curve" smooth="yes"/>
      <point x="186" y="316"/>
      <point x="246" y="363"/>
      <point x="366" y="363" type="curve" smooth="yes"/>
      <point x="403" y="363" type="line"/>
      <point x="403" y="435" type="line"/>
      <point x="362" y="435" type="line" smooth="yes"/>
      <point x="248" y="435"/>
      <point x="204" y="482"/>
      <point x="204" y="550" type="curve" smooth="yes"/>
      <point x="204" y="657"/>
      <point x="313" y="692"/>
      <point x="397" y="692" type="curve" smooth="yes"/>
      <point x="422" y="692" type="line"/>
      <point x="422" y="760" type="line"/>
      <point x="121" y="760" type="line"/>
      <point x="121" y="690" type="line"/>
      <point x="186" y="690" type="line" smooth="yes"/>
      <point x="209" y="690"/>
      <point x="232" y="691"/>
      <point x="257" y="694" type="curve"/>
      <point x="180" y="674"/>
      <point x="123" y="633"/>
      <point x="123" y="546" type="curve" smooth="yes"/>
      <point x="123" y="471"/>
      <point x="165" y="413"/>
      <point x="252" y="402" type="curve"/>
      <point x="252" y="398" type="line"/>
      <point x="147" y="378"/>
      <point x="103" y="301"/>
      <point x="103" y="206" type="curve" smooth="yes"/>
      <point x="103" y="69"/>
      <point x="195" y="32"/>
      <point x="255" y="12" type="curve" smooth="yes"/>
      <point x="298" y="-2"/>
      <point x="351" y="-20"/>
      <point x="351" y="-68" type="curve" smooth="yes"/>
      <point x="351" y="-101"/>
      <point x="326" y="-153"/>
    </contour>
  </outline>
</glyph>
<glyph name="pi" format="2">
  <advance width="500"/>
  <unicode hex="03C0"/>
  <anchor x="250" y="0" name="bottom"/>
  <anchor x="250" y="536" name="top"/>
  <outline>
    <contour>
      <point x="404" y="-7" type="curve" smooth="yes"/>
      <point x="428" y="-7"/>
      <point x="451" y="-3"/>
      <point x="464" y="5" type="curve"/>
      <point x="464" y="72" type="line"/>
      <point x="453" y="67"/>
      <point x="440" y="65"/>
      <point x="429" y="65" type="curve" smooth="yes"/>
      <point x="403" y="65"/>
      <point x="391" y="84"/>
      <point x="391" y="132" type="curve" smooth="yes"/>
      <point x="391" y="466" type="line"/>
      <point x="473" y="466" type="line"/>
      <point x="473" y="536" type="line"/>
      <point x="66" y="536" type="line"/>
      <point x="17" y="500" type="line"/>
      <point x="17" y="466" type="line"/>
      <point x="104" y="466" type="line"/>
      <point x="104" y="0" type="line"/>
      <point x="185" y="0" type="line"/>
      <point x="185" y="466" type="line"/>
      <point x="309" y="466" type="line"/>
      <point x="309" y="119" type="line" smooth="yes"/>
      <point x="309" y="38"/>
      <point x="339" y="-7"/>
    </contour>
  </outline>
</glyph>
<glyph name="rho" format="2">
  <advance width="500"/>
  <unicode hex="03C1"/>
  <anchor x="250" y="-240" name="bottom"/>
  <anchor x="263" y="536" name="top"/>
  <outline>
    <contour>
      <point x="60" y="-240" type="line"/>
      <point x="141" y="-240" type="line"/>
      <point x="141" y="-98" type="line" smooth="yes"/>
      <point x="141" y="-59"/>
      <point x="140" y="-13"/>
      <point x="135" y="33" type="curve"/>
      <point x="140" y="33" type="line"/>
      <point x="170" y="6"/>
      <point x="212" y="-10"/>
      <point x="269" y="-10" type="curve" smooth="yes"/>
      <point x="400" y="-10"/>
      <point x="460" y="96"/>
      <point x="460" y="270" type="curve" smooth="yes"/>
      <point x="460" y="456"/>
      <point x="389" y="547"/>
      <point x="263" y="547" type="curve" smooth="yes"/>
      <point x="122" y="547"/>
      <point x="60" y="449"/>
      <point x="60" y="276" type="curve" smooth="yes"/>
    </contour>
    <contour>
      <point x="251" y="60" type="curve" smooth="yes"/>
      <point x="206" y="60"/>
      <point x="168" y="74"/>
      <point x="140" y="102" type="curve"/>
      <point x="140" y="286" type="line" smooth="yes"/>
      <point x="140" y="416"/>
      <point x="178" y="476"/>
      <point x="260" y="476" type="curve" smooth="yes"/>
      <point x="342" y="476"/>
      <point x="377" y="410"/>
      <point x="377" y="270" type="curve" smooth="yes"/>
      <point x="377" y="129"/>
      <point x="339" y="60"/>
    </contour>
  </outline>
</glyph>
<glyph name="tau" format="2">
  <advance width="500"/>
  <unicode hex="03C4"/>
  <anchor x="320" y="0" name="bottom"/>
  <anchor x="261" y="536" name="top"/>
  <outline>
    <contour>
      <point x="346" y="-11" type="curve" smooth="yes"/>
      <point x="377" y="-11"/>
      <point x="417" y="-5"/>
      <point x="432" y="4" type="curve"/>
      <point x="432" y="71" type="line"/>
      <point x="414" y="65"/>
      <point x="388" y="61"/>
      <point x="369" y="61" type="curve" smooth="yes"/>
      <point x="315" y="61"/>
      <point x="291" y="92"/>
      <point x="291" y="158" type="curve" smooth="yes"/>
      <point x="291" y="467" type="line"/>
      <point x="454" y="467" type="line"/>
      <point x="454" y="537" type="line"/>
      <point x="89" y="537" type="line"/>
      <point x="41" y="501" type="line"/>
      <point x="41" y="467" type="line"/>
      <point x="211" y="467" type="line"/>
      <point x="211" y="142" type="line" smooth="yes"/>
      <point x="211" y="42"/>
      <point x="252" y="-11"/>
    </contour>
  </outline>
</glyph>
<glyph name="uni03E1" format="2">
  <advance width="500"/>
  <unicode hex="03E1"/>
  <anchor x="270" y="-240" name="bottom"/>
  <anchor x="270" y="714" name="top"/>
  <outline>
    <contour>
      <point x="298" y="-240" type="curve"/>
      <point x="383" y="-240" type="line"/>
      <point x="418" y="-144"/>
      <point x="439" y="-24"/>
      <point x="439" y="118" type="curve" smooth="yes"/>
      <point x="439" y="453"/>
      <point x="299" y="706"/>
      <point x="61" y="765" type="curve"/>
      <point x="88" y="673" type="line"/>
      <point x="165" y="643"/>
      <point x="233" y="576"/>
      <point x="275" y="486" type="curve"/>
      <point x="140" y="415" type="line"/>
      <point x="156" y="357" type="line"/>
      <point x="301" y="431" type="line"/>
      <point x="318" y="391"/>
      <point x="333" y="340"/>
      <point x="341" y="291" type="curve"/>
      <point x="187" y="211" type="line"/>
      <point x="203" y="153" type="line"/>
      <point x="350" y="231" type="line"/>
      <point x="354" y="198"/>
      <point x="356" y="155"/>
      <point x="356" y="118" type="curve" smooth="yes"/>
      <point x="356" y="-20"/>
      <point x="333" y="-138"/>
    </contour>
  </outline>
</glyph>
<glyph name="afii10060" format="2">
  <advance width="500"/>
  <unicode hex="040B"/>
  <anchor x="276" y="0" name="bottom"/>
  <anchor x="172" y="714" name="top"/>
  <outline>
    <contour>
      <point x="99" y="0" type="line"/>
      <point x="184" y="0" type="line"/>
      <point x="184" y="364" type="line"/>
      <point x="247" y="364" type="line" smooth="yes"/>
      <point x="327" y="364"/>
      <point x="360" y="334"/>
      <point x="360" y="266" type="curve" smooth="yes"/>
      <point x="360" y="0" type="line"/>
      <point x="445" y="0" type="line"/>
      <point x="445" y="265" type="line" smooth="yes"/>
      <point x="445" y="381"/>
      <point x="381" y="440"/>
      <point x="255" y="440" type="curve" smooth="yes"/>
      <point x="184" y="440" type="line"/>
      <point x="184" y="638" type="line"/>
      <point x="316" y="638" type="line"/>
      <point x="316" y="714" type="line"/>
      <point x="0" y="714" type="line"/>
      <point x="0" y="638" type="line"/>
      <point x="99" y="638" type="line"/>
    </contour>
  </outline>
</glyph>
<glyph name="afii10018" format="2">
  <advance width="500"/>
  <unicode hex="0411"/>
  <anchor x="240" y="0" name="bottom"/>
  <anchor x="240" y="714" name="top"/>
  <outline>
    <contour>
      <point x="65" y="0" type="line"/>
      <point x="242" y="0" type="line" smooth="yes"/>
      <point x="376" y="0"/>
      <point x="455" y="78"/>
      <point x="455" y="211" type="curve" smooth="yes"/>
      <point x="455" y="350"/>
      <point x="386" y="416"/>
      <point x="238" y="416" type="curve" smooth="yes"/>
      <point x="143" y="416" type="line"/>
      <point x="143" y="638" type="line"/>
      <point x="418" y="638" type="line"/>
      <point x="418" y="714" type="line"/>
      <point x="65" y="714" type="line"/>
    </contour>
    <contour>
      <point x="149" y="74" type="line"/>
      <point x="149" y="342" type="line"/>
      <point x="239" y="342" type="line" smooth="yes"/>
      <point x="329" y="342"/>
      <point x="370" y="300"/>
      <point x="370" y="210" type="curve" smooth="yes"/>
      <point x="370" y="121"/>
      <point x="325" y="74"/>
      <point x="240" y="74" type="curve" smooth="yes"/>
    </contour>
  </outline>
</glyph>
<glyph name="afii10024" format="2">
  <advance width="500"/>
  <unicode hex="0416"/>
  <anchor x="250" y="0" name="bottom"/>
  <anchor x="480" y="0" name="bottomright"/>
  <anchor x="250" y="714" name="top"/>
  <outline>
    <contour>
      <point x="2" y="0" type="line"/>
      <point x="87" y="0" type="line"/>
      <point x="211" y="362" type="line"/>
      <point x="211" y="0" type="line"/>
      <point x="288" y="0" type="line"/>
      <point x="288" y="362" type="line"/>
      <point x="411" y="0" type="line"/>
      <point x="496" y="0" type="line"/>
      <point x="365" y="368" type="line"/>
      <point x="490" y="714" type="line"/>
      <point x="408" y="714" type="line"/>
      <point x="288" y="368" type="line"/>
      <point x="288" y="714" type="line"/>
      <point x="211" y="714" type="line"/>
      <point x="211" y="368" type="line"/>
      <point x="90" y="714" type="line"/>
      <point x="7" y="714" type="line"/>
      <point x="134" y="368" type="line"/>
    </contour>
  </outline>
</glyph>
<glyph name="afii10025" format="2">
  <advance width="500"/>
  <unicode hex="0417"/>
  <anchor x="250" y="0" name="bottom"/>
  <anchor x="250" y="714" name="top"/>
  <outline>
    <contour>
      <point x="211" y="-10" type="curve" smooth="yes"/>
      <point x="361" y="-10"/>
      <point x="444" y="76"/>
      <point x="444" y="197" type="curve" smooth="yes"/>
      <point x="444" y="298"/>
      <point x="392" y="361"/>
      <point x="299" y="372" type="curve"/>
      <point x="299" y="376" type="line"/>
      <point x="382" y="396"/>
      <point x="431" y="458"/>
      <point x="431" y="550" type="curve" smooth="yes"/>
      <point x="431" y="655"/>
      <point x="366" y="724"/>
      <point x="245" y="724" type="curve" smooth="yes"/>
      <point x="161" y="724"/>
      <point x="103" y="694"/>
      <point x="58" y="656" type="curve"/>
      <point x="99" y="595" type="line"/>
      <point x="126" y="618"/>
      <point x="171" y="648"/>
      <point x="231" y="648" type="curve" smooth="yes"/>
      <point x="307" y="648"/>
      <point x="346" y="613"/>
      <point x="346" y="540" type="curve" smooth="yes"/>
      <point x="346" y="450"/>
      <point x="295" y="408"/>
      <point x="192" y="408" type="curve" smooth="yes"/>
      <point x="139" y="408" type="line"/>
      <point x="139" y="333" type="line"/>
      <point x="192" y="333" type="line" smooth="yes"/>
      <point x="305" y="333"/>
      <point x="357" y="293"/>
      <point x="357" y="200" type="curve" smooth="yes"/>
      <point x="357" y="113"/>
      <point x="309" y="66"/>
      <point x="208" y="66" type="curve" smooth="yes"/>
      <point x="145" y="66"/>
      <point x="90" y="86"/>
      <point x="55" y="109" type="curve"/>
      <point x="55" y="25" type="line"/>
      <point x="96" y="5"/>
      <point x="140" y="-10"/>
    </contour>
  </outline>
</glyph>
<glyph name="afii10037" format="2">
  <advance width="500"/>
  <unicode hex="0423"/>
  <anchor x="150" y="0" name="bottom"/>
  <anchor x="250" y="714" name="top"/>
  <outline>
    <contour>
      <point x="107" y="-10" type="curve" smooth="yes"/>
      <point x="202" y="-10"/>
      <point x="242" y="45"/>
      <point x="298" y="202" type="curve" smooth="yes"/>
      <point x="480" y="714" type="line"/>
      <point x="392" y="714" type="line"/>
      <point x="285" y="398" type="line" smooth="yes"/>
      <point x="276" y="370"/>
      <point x="264" y="344"/>
      <point x="256" y="309" type="curve"/>
      <point x="251" y="309" type="line"/>
      <point x="240" y="348"/>
      <point x="228" y="378"/>
      <point x="219" y="402" type="curve" smooth="yes"/>
      <point x="108" y="714" type="line"/>
      <point x="20" y="714" type="line"/>
      <point x="208" y="207" type="line"/>
      <point x="170" y="93"/>
      <point x="149" y="65"/>
      <point x="99" y="65" type="curve" smooth="yes"/>
      <point x="74" y="65"/>
      <point x="52" y="69"/>
      <point x="28" y="77" type="curve"/>
      <point x="28" y="1" type="line"/>
      <point x="52" y="-6"/>
      <point x="78" y="-10"/>
    </contour>
  </outline>
</glyph>
<glyph name="afii10038" format="2">
  <advance width="500"/>
  <unicode hex="0424"/>
  <anchor x="250" y="0" name="bottom"/>
  <anchor x="250" y="714" name="top"/>
  <outline>
    <contour>
      <point x="208" y="-10" type="line"/>
      <point x="294" y="-10" type="line"/>
      <point x="294" y="100" type="line"/>
      <point x="432" y="103"/>
      <point x="485" y="227"/>
      <point x="485" y="372" type="curve" smooth="yes"/>
      <point x="485" y="520"/>
      <point x="431" y="634"/>
      <point x="294" y="636" type="curve"/>
      <point x="294" y="724" type="line"/>
      <point x="208" y="724" type="line"/>
      <point x="208" y="636" type="line"/>
      <point x="72" y="635"/>
      <point x="15" y="516"/>
      <point x="15" y="372" type="curve" smooth="yes"/>
      <point x="15" y="229"/>
      <point x="68" y="102"/>
      <point x="208" y="100" type="curve"/>
    </contour>
    <contour>
      <point x="208" y="174" type="line"/>
      <point x="136" y="176"/>
      <point x="103" y="247"/>
      <point x="103" y="372" type="curve" smooth="yes"/>
      <point x="103" y="489"/>
      <point x="133" y="560"/>
      <point x="208" y="562" type="curve"/>
    </contour>
    <contour>
      <point x="294" y="174" type="curve"/>
      <point x="294" y="562" type="line"/>
      <point x="368" y="560"/>
      <point x="397" y="492"/>
      <point x="397" y="372" type="curve" smooth="yes"/>
      <point x="397" y="250"/>
      <point x="365" y="176"/>
    </contour>
  </outline>
</glyph>
<glyph name="afii10042" format="2">
  <advance width="500"/>
  <unicode hex="0428"/>
  <anchor x="250" y="0" name="bottom"/>
  <anchor x="250" y="714" name="top"/>
  <outline>
    <contour>
      <point x="30" y="0" type="line"/>
      <point x="470" y="0" type="line"/>
      <point x="470" y="714" type="line"/>
      <point x="388" y="714" type="line"/>
      <point x="388" y="76" type="line"/>
      <point x="291" y="76" type="line"/>
      <point x="291" y="714" type="line"/>
      <point x="209" y="714" type="line"/>
      <point x="209" y="76" type="line"/>
      <point x="112" y="76" type="line"/>
      <point x="112" y="714" type="line"/>
      <point x="30" y="714" type="line"/>
    </contour>
  </outline>
</glyph>
<glyph name="afii10043" format="2">
  <advance width="500"/>
  <unicode hex="0429"/>
  <anchor x="250" y="-193" name="bottom"/>
  <anchor x="250" y="714" name="top"/>
  <outline>
    <contour>
      <point x="424" y="-193" type="line"/>
      <point x="500" y="-193" type="line"/>
      <point x="500" y="76" type="line"/>
      <point x="399" y="76" type="line"/>
      <point x="399" y="0" type="line"/>
      <point x="424" y="0" type="line"/>
    </contour>
    <component base="afii10042"/>
  </outline>
</glyph>
<glyph name="afii10072" format="2">
  <advance width="500"/>
  <unicode hex="0436"/>
  <anchor x="250" y="0" name="bottom"/>
  <anchor x="480" y="0" name="bottomright"/>
  <anchor x="256" y="536" name="top"/>
  <outline>
    <contour>
      <point x="5" y="0" type="line"/>
      <point x="96" y="0" type="line"/>
      <point x="214" y="278" type="line"/>
      <point x="214" y="0" type="line"/>
      <point x="294" y="0" type="line"/>
      <point x="294" y="278" type="line"/>
      <point x="402" y="0" type="line"/>
      <point x="494" y="0" type="line"/>
      <point x="374" y="283" type="line"/>
      <point x="481" y="537" type="line"/>
      <point x="393" y="537" type="line"/>
      <point x="294" y="282" type="line"/>
      <point x="294" y="537" type="line"/>
      <point x="214" y="537" type="line"/>
      <point x="214" y="282" type="line"/>
      <point x="106" y="537" type="line"/>
      <point x="18" y="537" type="line"/>
      <point x="135" y="283" type="line"/>
    </contour>
  </outline>
</glyph>
<glyph name="afii10077" format="2">
  <advance width="500"/>
  <unicode hex="043B"/>
  <anchor x="277" y="0" name="bottom"/>
  <anchor x="282" y="536" name="top"/>
  <outline>
    <contour>
      <point x="80" y="-6" type="curve" smooth="yes"/>
      <point x="178" y="-6"/>
      <point x="212" y="133"/>
      <point x="219" y="463" type="curve"/>
      <point x="359" y="463" type="line"/>
      <point x="359" y="0" type="line"/>
      <point x="440" y="0" type="line"/>
      <point x="440" y="536" type="line"/>
      <point x="144" y="536" type="line"/>
      <point x="142" y="219"/>
      <point x="115" y="66"/>
      <point x="62" y="66" type="curve" smooth="yes"/>
      <point x="56" y="66"/>
      <point x="43" y="68"/>
      <point x="36" y="71" type="curve"/>
      <point x="36" y="1" type="line"/>
      <point x="51" y="-4"/>
      <point x="68" y="-6"/>
    </contour>
  </outline>
</glyph>
<glyph name="afii10079" format="2">
  <advance width="500"/>
  <unicode hex="043D"/>
  <anchor x="254" y="0" name="bottom"/>
  <anchor x="480" y="0" name="bottomright"/>
  <anchor x="254" y="536" name="top"/>
  <outline>
    <contour>
      <point x="60" y="0" type="line"/>
      <point x="141" y="0" type="line"/>
      <point x="141" y="244" type="line"/>
      <point x="359" y="244" type="line"/>
      <point x="359" y="0" type="line"/>
      <point x="440" y="0" type="line"/>
      <point x="440" y="536" type="line"/>
      <point x="359" y="536" type="line"/>
      <point x="359" y="314" type="line"/>
      <point x="141" y="314" type="line"/>
      <point x="141" y="536" type="line"/>
      <point x="60" y="536" type="line"/>
    </contour>
  </outline>
</glyph>
<glyph name="afii10081" format="2">
  <advance width="500"/>
  <unicode hex="043F"/>
  <anchor x="253" y="0" name="bottom"/>
  <anchor x="480" y="0" name="bottomright"/>
  <anchor x="253" y="536" name="top"/>
  <outline>
    <contour>
      <point x="60" y="0" type="line"/>
      <point x="141" y="0" type="line"/>
      <point x="141" y="466" type="line"/>
      <point x="359" y="466" type="line"/>
      <point x="359" y="0" type="line"/>
      <point x="440" y="0" type="line"/>
      <point x="440" y="536" type="line"/>
      <point x="60" y="536" type="line"/>
    </contour>
  </outline>
</glyph>
<glyph name="afii10088" format="2">
  <advance width="500"/>
  <unicode hex="0446"/>
  <anchor x="249" y="-147" name="bottom"/>
  <anchor x="249" y="536" name="top"/>
  <outline>
    <contour>
      <point x="423" y="-187" type="line"/>
      <point x="500" y="-187" type="line"/>
      <point x="500" y="69" type="line"/>
      <point x="414" y="69" type="line"/>
      <point x="414" y="0" type="line"/>
      <point x="423" y="0" type="line"/>
    </contour>
    <contour>
      <point x="60" y="536" type="line"/>
      <point x="60" y="0" type="line"/>
      <point x="440" y="0" type="line"/>
      <point x="440" y="536" type="line"/>
      <point x="359" y="536" type="line"/>
      <point x="359" y="70" type="line"/>
      <point x="141" y="70" type="line"/>
      <point x="141" y="536" type="line"/>
    </contour>
  </outline>
</glyph>
<glyph name="afii10090" format="2">
  <advance width="500"/>
  <unicode hex="0448"/>
  <anchor x="250" y="0" name="bottom"/>
  <anchor x="250" y="536" name="top"/>
  <outline>
    <contour>
      <point x="25" y="0" type="line"/>
      <point x="475" y="0" type="line"/>
      <point x="475" y="536" type="line"/>
      <point x="394" y="536" type="line"/>
      <point x="394" y="71" type="line"/>
      <point x="290" y="71" type="line"/>
      <point x="290" y="536" type="line"/>
      <point x="210" y="536" type="line"/>
      <point x="210" y="71" type="line"/>
      <point x="106" y="71" type="line"/>
      <point x="106" y="536" type="line"/>
      <point x="25" y="536" type="line"/>
    </contour>
  </outline>
</glyph>
<glyph name="afii10093" format="2">
  <advance width="500"/>
  <unicode hex="044B"/>
  <anchor x="250" y="0" name="bottom"/>
  <anchor x="250" y="536" name="top"/>
  <outline>
    <contour>
      <point x="25" y="0" type="line"/>
      <point x="178" y="0" type="line" smooth="yes"/>
      <point x="278" y="0"/>
      <point x="337" y="55"/>
      <point x="337" y="159" type="curve" smooth="yes"/>
      <point x="337" y="262"/>
      <point x="279" y="315"/>
      <point x="175" y="315" type="curve" smooth="yes"/>
      <point x="106" y="315" type="line"/>
      <point x="106" y="537" type="line"/>
      <point x="25" y="537" type="line"/>
    </contour>
    <contour>
      <point x="106" y="65" type="line"/>
      <point x="106" y="250" type="line"/>
      <point x="172" y="250" type="line" smooth="yes"/>
      <point x="229" y="250"/>
      <point x="256" y="217"/>
      <point x="256" y="157" type="curve" smooth="yes"/>
      <point x="256" y="95"/>
      <point x="228" y="65"/>
      <point x="172" y="65" type="curve" smooth="yes"/>
    </contour>
    <contour>
      <point x="394" y="0" type="line"/>
      <point x="475" y="0" type="line"/>
      <point x="475" y="537" type="line"/>
      <point x="394" y="537" type="line"/>
    </contour>
  </outline>
</glyph>
<glyph name="afii10101" format="2">
  <advance width="500"/>
  <unicode hex="0454"/>
  <anchor x="250" y="0" name="bottom"/>
  <anchor x="250" y="536" name="top"/>
  <anchor x="480" y="536" name="topright"/>
  <outline>
    <contour>
      <point x="141" y="244" type="line"/>
      <point x="356" y="244" type="line"/>
      <point x="356" y="309" type="line"/>
      <point x="141" y="309" type="line"/>
    </contour>
    <component base="c"/>
  </outline>
</glyph>
<glyph name="afii10106" format="2">
  <advance width="500"/>
  <unicode hex="0459"/>
  <anchor x="250" y="0" name="bottom"/>
  <anchor x="213" y="536" name="top"/>
  <outline>
    <contour>
      <point x="48" y="-6" type="curve" smooth="yes"/>
      <point x="153" y="-6"/>
      <point x="176" y="142"/>
      <point x="192" y="464" type="curve"/>
      <point x="281" y="464" type="line"/>
      <point x="281" y="537" type="line"/>
      <point x="118" y="537" type="line"/>
      <point x="107" y="209"/>
      <point x="84" y="66"/>
      <point x="32" y="66" type="curve" smooth="yes"/>
      <point x="23" y="66"/>
      <point x="15" y="68"/>
      <point x="10" y="71" type="curve"/>
      <point x="10" y="1" type="line"/>
      <point x="22" y="-4"/>
      <point x="34" y="-6"/>
    </contour>
    <contour>
      <point x="311" y="65" type="line"/>
      <point x="311" y="250" type="line"/>
      <point x="347" y="250" type="line" smooth="yes"/>
      <point x="391" y="250"/>
      <point x="411" y="218"/>
      <point x="411" y="156" type="curve" smooth="yes"/>
      <point x="411" y="96"/>
      <point x="389" y="65"/>
      <point x="347" y="65" type="curve" smooth="yes"/>
    </contour>
    <contour>
      <point x="233" y="0" type="line"/>
      <point x="353" y="0" type="line" smooth="yes"/>
      <point x="441" y="0"/>
      <point x="492" y="55"/>
      <point x="492" y="159" type="curve" smooth="yes"/>
      <point x="492" y="262"/>
      <point x="441" y="315"/>
      <point x="350" y="315" type="curve" smooth="yes"/>
      <point x="311" y="315" type="line"/>
      <point x="311" y="537" type="line"/>
      <point x="233" y="537" type="line"/>
    </contour>
  </outline>
</glyph>
<glyph name="uni0461" format="2">
  <advance width="500"/>
  <unicode hex="0461"/>
  <anchor x="250" y="0" name="bottom"/>
  <anchor x="250" y="536" name="top"/>
  <outline>
    <contour>
      <point x="110" y="0" type="curve"/>
      <point x="182" y="0" type="line"/>
      <point x="251" y="269" type="line"/>
      <point x="265" y="182"/>
      <point x="293" y="78"/>
      <point x="327" y="0" type="curve"/>
      <point x="390" y="0" type="line"/>
      <point x="456" y="154"/>
      <point x="479" y="331"/>
      <point x="481" y="536" type="curve"/>
      <point x="415" y="536" type="line"/>
      <point x="413" y="346"/>
      <point x="394" y="205"/>
      <point x="359" y="95" type="curve"/>
      <point x="358" y="95" type="line"/>
      <point x="324" y="206"/>
      <point x="288" y="375"/>
      <point x="287" y="536" type="curve"/>
      <point x="216" y="536" type="line"/>
      <point x="216" y="488"/>
      <point x="219" y="445"/>
      <point x="224" y="394" type="curve"/>
      <point x="171" y="197" type="line" smooth="yes"/>
      <point x="160" y="157"/>
      <point x="155" y="129"/>
      <point x="148" y="100" type="curve"/>
      <point x="146" y="100" type="line"/>
      <point x="114" y="203"/>
      <point x="91" y="353"/>
      <point x="84" y="536" type="curve"/>
      <point x="17" y="536" type="line"/>
      <point x="23" y="341"/>
      <point x="46" y="164"/>
    </contour>
  </outline>
</glyph>
<glyph name="uni0464" format="2">
  <advance width="500"/>
  <unicode hex="0464"/>
  <anchor x="250" y="0" name="bottom"/>
  <anchor x="250" y="714" name="top"/>
  <outline>
    <contour>
      <point x="406" y="-10" type="curve" smooth="yes"/>
      <point x="447" y="-10"/>
      <point x="472" y="-3"/>
      <point x="488" y="3" type="curve"/>
      <point x="488" y="77" type="line"/>
      <point x="469" y="71"/>
      <point x="449" y="66"/>
      <point x="417" y="66" type="curve" smooth="yes"/>
      <point x="336" y="66"/>
      <point x="289" y="132"/>
      <point x="286" y="333" type="curve"/>
      <point x="450" y="333" type="line"/>
      <point x="450" y="409" type="line"/>
      <point x="287" y="409" type="line"/>
      <point x="296" y="571"/>
      <point x="338" y="649"/>
      <point x="419" y="649" type="curve" smooth="yes"/>
      <point x="441" y="649"/>
      <point x="457" y="646"/>
      <point x="476" y="638" type="curve"/>
      <point x="500" y="710" type="line"/>
      <point x="479" y="720"/>
      <point x="453" y="725"/>
      <point x="422" y="725" type="curve" smooth="yes"/>
      <point x="287" y="725"/>
      <point x="216" y="626"/>
      <point x="203" y="409" type="curve"/>
      <point x="130" y="409" type="line"/>
      <point x="130" y="714" type="line"/>
      <point x="46" y="714" type="line"/>
      <point x="46" y="0" type="line"/>
      <point x="130" y="0" type="line"/>
      <point x="130" y="333" type="line"/>
      <point x="201" y="333" type="line"/>
      <point x="207" y="104"/>
      <point x="269" y="-10"/>
    </contour>
  </outline>
</glyph>
<glyph name="uni046A" format="2">
  <advance width="500"/>
  <unicode hex="046A"/>
  <anchor x="250" y="0" name="bottom"/>
  <anchor x="250" y="714" name="top"/>
  <outline>
    <contour>
      <point x="2" y="0" type="line"/>
      <point x="86" y="0" type="line"/>
      <point x="127" y="235" type="line" smooth="yes"/>
      <point x="141" y="317"/>
      <point x="162" y="336"/>
      <point x="210" y="338" type="curve"/>
      <point x="210" y="0" type="line"/>
      <point x="288" y="0" type="line"/>
      <point x="288" y="338" type="line"/>
      <point x="332" y="335"/>
      <point x="356" y="317"/>
      <point x="371" y="235" type="curve" smooth="yes"/>
      <point x="413" y="0" type="line"/>
      <point x="497" y="0" type="line"/>
      <point x="451" y="242" type="line" smooth="yes"/>
      <point x="429" y="356"/>
      <point x="391" y="393"/>
      <point x="324" y="404" type="curve"/>
      <point x="441" y="659" type="line"/>
      <point x="441" y="714" type="line"/>
      <point x="57" y="714" type="line"/>
      <point x="57" y="659" type="line"/>
      <point x="173" y="404" type="line"/>
      <point x="103" y="392"/>
      <point x="71" y="361"/>
      <point x="48" y="242" type="curve" smooth="yes"/>
    </contour>
    <contour>
      <point x="249" y="414" type="line"/>
      <point x="152" y="645" type="line"/>
      <point x="348" y="645" type="line"/>
    </contour>
  </outline>
</glyph>
<glyph name="uni046B" format="2">
  <advance width="500"/>
  <unicode hex="046B"/>
  <anchor x="250" y="0" name="bottom"/>
  <anchor x="250" y="536" name="top"/>
  <outline>
    <contour>
      <point x="4" y="0" type="line"/>
      <point x="87" y="0" type="line"/>
      <point x="131" y="171" type="line" smooth="yes"/>
      <point x="146" y="229"/>
      <point x="160" y="250"/>
      <point x="213" y="250" type="curve"/>
      <point x="213" y="0" type="line"/>
      <point x="287" y="0" type="line"/>
      <point x="287" y="251" type="line"/>
      <point x="339" y="251"/>
      <point x="356" y="234"/>
      <point x="372" y="170" type="curve" smooth="yes"/>
      <point x="414" y="0" type="line"/>
      <point x="497" y="0" type="line"/>
      <point x="450" y="163" type="line" smooth="yes"/>
      <point x="426" y="246"/>
      <point x="401" y="300"/>
      <point x="322" y="311" type="curve"/>
      <point x="441" y="491" type="line"/>
      <point x="441" y="537" type="line"/>
      <point x="58" y="537" type="line"/>
      <point x="58" y="491" type="line"/>
      <point x="178" y="311" type="line"/>
      <point x="99" y="301"/>
      <point x="74" y="248"/>
      <point x="50" y="163" type="curve" smooth="yes"/>
    </contour>
    <contour>
      <point x="250" y="321" type="line"/>
      <point x="152" y="474" type="line"/>
      <point x="348" y="474" type="line"/>
    </contour>
  </outline>
</glyph>
<glyph name="uni046D" format="2">
  <advance width="500"/>
  <unicode hex="046D"/>
  <anchor x="360" y="0" name="bottom"/>
  <anchor x="360" y="553" name="top"/>
  <outline>
    <contour>
      <point x="-187" y="0" type="line"/>
      <point x="-101" y="0" type="line"/>
      <point x="-101" y="240" type="line"/>
      <point x="134" y="240" type="line"/>
      <point x="119" y="224"/>
      <point x="106" y="196"/>
      <point x="94" y="164" type="curve" smooth="yes"/>
      <point x="31" y="0" type="line"/>
      <point x="118" y="0" type="line"/>
      <point x="182" y="162" type="line" smooth="yes"/>
      <point x="208" y="229"/>
      <point x="227" y="250"/>
      <point x="319" y="250" type="curve"/>
      <point x="319" y="0" type="line"/>
      <point x="400" y="0" type="line"/>
      <point x="400" y="250" type="line"/>
      <point x="491" y="250"/>
      <point x="510" y="228"/>
      <point x="536" y="162" type="curve" smooth="yes"/>
      <point x="599" y="0" type="line"/>
      <point x="687" y="0" type="line"/>
      <point x="624" y="164" type="line" smooth="yes"/>
      <point x="593" y="245"/>
      <point x="575" y="301"/>
      <point x="452" y="311" type="curve"/>
      <point x="623" y="475" type="line"/>
      <point x="623" y="536" type="line"/>
      <point x="95" y="536" type="line"/>
      <point x="95" y="475" type="line"/>
      <point x="261" y="313" type="line"/>
      <point x="-101" y="313" type="line"/>
      <point x="-101" y="536" type="line"/>
      <point x="-187" y="536" type="line"/>
    </contour>
    <contour>
      <point x="359" y="316" type="line"/>
      <point x="210" y="464" type="line"/>
      <point x="509" y="464" type="line"/>
    </contour>
  </outline>
</glyph>
<glyph name="uni0474" format="2">
  <advance width="500"/>
  <unicode hex="0474"/>
  <anchor x="225" y="0" name="bottom"/>
  <anchor x="250" y="714" name="top"/>
  <outline>
    <contour>
      <point x="171" y="0" type="line"/>
      <point x="268" y="0" type="line"/>
      <point x="398" y="542" type="line" smooth="yes"/>
      <point x="414" y="609"/>
      <point x="428" y="646"/>
      <point x="463" y="646" type="curve" smooth="yes"/>
      <point x="472" y="646"/>
      <point x="482" y="643"/>
      <point x="492" y="639" type="curve"/>
      <point x="492" y="711" type="line"/>
      <point x="479" y="718"/>
      <point x="463" y="721"/>
      <point x="444" y="721" type="curve" smooth="yes"/>
      <point x="376" y="721"/>
      <point x="348" y="682"/>
      <point x="319" y="558" type="curve" smooth="yes"/>
      <point x="244" y="234" type="line" smooth="yes"/>
      <point x="235" y="197"/>
      <point x="226" y="137"/>
      <point x="220" y="94" type="curve"/>
      <point x="214" y="146"/>
      <point x="204" y="205"/>
      <point x="192" y="256" type="curve" smooth="yes"/>
      <point x="88" y="714" type="line"/>
      <point x="0" y="714" type="line"/>
    </contour>
  </outline>
</glyph>
<glyph name="uni047A" format="2">
  <advance width="500"/>
  <unicode hex="047A"/>
  <outline>
    <contour>
      <point x="251" y="-10" type="curve" smooth="yes"/>
      <point x="419" y="-10"/>
      <point x="475" y="152"/>
      <point x="475" y="358" type="curve" smooth="yes"/>
      <point x="475" y="563"/>
      <point x="415" y="726"/>
      <point x="250" y="726" type="curve" smooth="yes"/>
      <point x="97" y="726"/>
      <point x="25" y="597"/>
      <point x="25" y="359" type="curve" smooth="yes"/>
      <point x="25" y="156"/>
      <point x="81" y="-10"/>
    </contour>
    <contour>
      <point x="251" y="55" type="curve" smooth="yes"/>
      <point x="153" y="55"/>
      <point x="103" y="162"/>
      <point x="103" y="358" type="curve" smooth="yes"/>
      <point x="103" y="553"/>
      <point x="145" y="661"/>
      <point x="250" y="661" type="curve" smooth="yes"/>
      <point x="349" y="661"/>
      <point x="398" y="556"/>
      <point x="398" y="358" type="curve" smooth="yes"/>
      <point x="398" y="158"/>
      <point x="350" y="55"/>
    </contour>
    <contour>
      <point x="251" y="600" type="curve" smooth="yes"/>
      <point x="292" y="600"/>
      <point x="308" y="637"/>
      <point x="308" y="683" type="curve" smooth="yes"/>
      <point x="308" y="729"/>
      <point x="292" y="766"/>
      <point x="251" y="766" type="curve" smooth="yes"/>
      <point x="209" y="766"/>
      <point x="193" y="729"/>
      <point x="193" y="683" type="curve" smooth="yes"/>
      <point x="193" y="637"/>
      <point x="209" y="600"/>
    </contour>
    <contour>
      <point x="251" y="-48" type="curve" smooth="yes"/>
      <point x="292" y="-48"/>
      <point x="308" y="-11"/>
      <point x="308" y="35" type="curve" smooth="yes"/>
      <point x="308" y="81"/>
      <point x="292" y="118"/>
      <point x="251" y="118" type="curve" smooth="yes"/>
      <point x="209" y="118"/>
      <point x="193" y="81"/>
      <point x="193" y="35" type="curve" smooth="yes"/>
      <point x="193" y="-11"/>
      <point x="209" y="-48"/>
    </contour>
  </outline>
</glyph>
<glyph name="uni047C" format="2">
  <advance width="500"/>
  <unicode hex="047C"/>
  <outline>
    <contour>
      <point x="114" y="930" type="line"/>
      <point x="172" y="930" type="line"/>
      <point x="172" y="968"/>
      <point x="183" y="987"/>
      <point x="214" y="987" type="curve" smooth="yes"/>
      <point x="256" y="987"/>
      <point x="321" y="930"/>
      <point x="400" y="930" type="curve" smooth="yes"/>
      <point x="406" y="930" type="line"/>
      <point x="406" y="990" type="line"/>
      <point x="398" y="990" type="line" smooth="yes"/>
      <point x="320" y="990"/>
      <point x="277" y="1050"/>
      <point x="204" y="1050" type="curve" smooth="yes"/>
      <point x="147" y="1050"/>
      <point x="114" y="1017"/>
      <point x="114" y="944" type="curve" smooth="yes"/>
    </contour>
    <contour>
      <point x="201" y="750" type="line"/>
      <point x="275" y="764"/>
      <point x="308" y="799"/>
      <point x="308" y="857" type="curve" smooth="yes"/>
      <point x="308" y="900"/>
      <point x="286" y="928"/>
      <point x="252" y="928" type="curve" smooth="yes"/>
      <point x="225" y="928"/>
      <point x="208" y="912"/>
      <point x="208" y="887" type="curve" smooth="yes"/>
      <point x="208" y="848"/>
      <point x="255" y="862"/>
      <point x="255" y="828" type="curve" smooth="yes"/>
      <point x="255" y="809"/>
      <point x="239" y="794"/>
      <point x="201" y="785" type="curve"/>
    </contour>
    <component base="uniA64C"/>
  </outline>
</glyph>
<glyph name="uni047D" format="2">
  <advance width="500"/>
  <unicode hex="047D"/>
  <outline>
    <contour>
      <point x="122" y="775" type="line"/>
      <point x="180" y="775" type="line"/>
      <point x="180" y="814"/>
      <point x="193" y="831"/>
      <point x="222" y="831" type="curve" smooth="yes"/>
      <point x="257" y="831"/>
      <point x="344" y="775"/>
      <point x="402" y="775" type="curve" smooth="yes"/>
      <point x="414" y="775" type="line"/>
      <point x="414" y="834" type="line"/>
      <point x="406" y="834" type="line" smooth="yes"/>
      <point x="331" y="834"/>
      <point x="287" y="894"/>
      <point x="211" y="894" type="curve" smooth="yes"/>
      <point x="150" y="894"/>
      <point x="123" y="856"/>
      <point x="122" y="787" type="curve"/>
    </contour>
    <contour>
      <point x="207" y="595" type="line"/>
      <point x="281" y="608"/>
      <point x="316" y="643"/>
      <point x="316" y="702" type="curve" smooth="yes"/>
      <point x="316" y="744"/>
      <point x="296" y="772"/>
      <point x="261" y="772" type="curve" smooth="yes"/>
      <point x="234" y="772"/>
      <point x="217" y="756"/>
      <point x="217" y="732" type="curve" smooth="yes"/>
      <point x="217" y="693"/>
      <point x="264" y="706"/>
      <point x="264" y="673" type="curve" smooth="yes"/>
      <point x="264" y="653"/>
      <point x="245" y="638"/>
      <point x="207" y="629" type="curve"/>
    </contour>
    <component base="uniA64D"/>
  </outline>
</glyph>
<glyph name="palatalizationcomb.cy" format="2">
  <unicode hex="0484"/>
  <anchor x="0" y="537" name="_top"/>
  <anchor x="0" y="729" name="top"/>
  <outline>
    <contour>
      <point x="87" y="610" type="curve"/>
      <point x="146" y="610" type="line"/>
      <point x="146" y="624" type="line" smooth="yes"/>
      <point x="146" y="697"/>
      <point x="112" y="729"/>
      <point x="52" y="729" type="curve" smooth="yes"/>
      <point x="-25" y="729"/>
      <point x="-64" y="670"/>
      <point x="-141" y="670" type="curve" smooth="yes"/>
      <point x="-146" y="670" type="line"/>
      <point x="-146" y="610" type="line"/>
      <point x="-141" y="610" type="line" smooth="yes"/>
      <point x="-55" y="610"/>
      <point x="-6" y="667"/>
      <point x="45" y="667" type="curve" smooth="yes"/>
      <point x="75" y="667"/>
      <point x="87" y="649"/>
    </contour>
  </outline>
</glyph>
<glyph name="psilipneumatacomb.cy" format="2">
  <unicode hex="0486"/>
  <anchor x="0" y="537" name="_top"/>
  <anchor x="0" y="784" name="top"/>
  <outline>
    <contour>
      <point x="-56" y="604" type="line"/>
      <point x="20" y="617"/>
      <point x="56" y="653"/>
      <point x="56" y="713" type="curve" smooth="yes"/>
      <point x="56" y="756"/>
      <point x="35" y="784"/>
      <point x="1" y="784" type="curve" smooth="yes"/>
      <point x="-26" y="784"/>
      <point x="-43" y="768"/>
      <point x="-43" y="743" type="curve" smooth="yes"/>
      <point x="-43" y="705"/>
      <point x="4" y="718"/>
      <point x="4" y="685" type="curve" smooth="yes"/>
      <point x="4" y="664"/>
      <point x="-14" y="648"/>
      <point x="-56" y="638" type="curve"/>
    </contour>
  </outline>
</glyph>
<glyph name="pokrytiecomb.cy" format="2">
  <unicode hex="0487"/>
  <outline>
    <contour>
      <point x="-133" y="761" type="line"/>
      <point x="-81" y="761" type="line"/>
      <point x="-81" y="808"/>
      <point x="-68" y="825"/>
      <point x="-44" y="825" type="curve" smooth="yes"/>
      <point x="7" y="825"/>
      <point x="28" y="768"/>
      <point x="127" y="768" type="curve" smooth="yes"/>
      <point x="132" y="768" type="line"/>
      <point x="132" y="829" type="line"/>
      <point x="123" y="829" type="line"/>
      <point x="56" y="829"/>
      <point x="19" y="890"/>
      <point x="-49" y="890" type="curve" smooth="yes"/>
      <point x="-103" y="890"/>
      <point x="-133" y="851"/>
      <point x="-133" y="772" type="curve" smooth="yes"/>
    </contour>
  </outline>
</glyph>
<glyph name="uni048A" format="2">
  <advance width="500"/>
  <unicode hex="048A"/>
  <anchor x="252" y="-193" name="bottom"/>
  <anchor x="250" y="902" name="top"/>
  <anchor x="480" y="0" name="bottomright"/>
  <outline>
    <contour>
      <point x="353" y="-193" type="line"/>
      <point x="439" y="-193" type="line"/>
      <point x="500" y="74" type="line"/>
      <point x="399" y="74" type="line"/>
      <point x="399" y="0" type="line"/>
      <point x="410" y="0" type="line"/>
    </contour>
    <component base="afii10026"/>
    <component base="breve" yOffset="161"/>
  </outline>
</glyph>
<glyph name="uni048E" format="2">
  <advance width="500"/>
  <unicode hex="048E"/>
  <anchor x="250" y="0" name="bottom"/>
  <anchor x="250" y="714" name="top"/>
  <anchor x="500" y="714" name="topright"/>
  <outline>
    <contour>
      <point x="370" y="198" type="line"/>
      <point x="419" y="225" type="line"/>
      <point x="282" y="465" type="line"/>
      <point x="233" y="439" type="line"/>
    </contour>
    <component base="P"/>
  </outline>
</glyph>
<glyph name="afii10098" format="2">
  <advance width="500"/>
  <unicode hex="0491"/>
  <anchor x="250" y="0" name="bottom"/>
  <anchor x="250" y="691" name="top"/>
  <anchor x="480" y="0" name="bottomright"/>
  <outline>
    <contour>
      <point x="351" y="466" type="line"/>
      <point x="429" y="466" type="line"/>
      <point x="429" y="691" type="line"/>
      <point x="351" y="691" type="line"/>
    </contour>
    <component base="afii10068"/>
  </outline>
</glyph>
<glyph name="uni0493" format="2">
  <advance width="500"/>
  <unicode hex="0493"/>
  <anchor x="250" y="0" name="bottom"/>
  <anchor x="250" y="536" name="top"/>
  <anchor x="480" y="0" name="bottomright"/>
  <outline>
    <contour>
      <point x="117" y="231" type="line"/>
      <point x="347" y="231" type="line"/>
      <point x="347" y="299" type="line"/>
      <point x="117" y="299" type="line"/>
    </contour>
    <component base="afii10068"/>
  </outline>
</glyph>
<glyph name="uni0496" format="2">
  <advance width="500"/>
  <unicode hex="0496"/>
  <anchor x="250" y="-193" name="bottom"/>
  <anchor x="250" y="714" name="top"/>
  <anchor x="480" y="0" name="bottomright"/>
  <outline>
    <contour>
      <point x="426" y="-193" type="line"/>
      <point x="502" y="-193" type="line"/>
      <point x="502" y="76" type="line"/>
      <point x="434" y="76" type="line"/>
      <point x="426" y="0" type="line"/>
    </contour>
    <component base="afii10024"/>
  </outline>
</glyph>
<glyph name="uni04A0" format="2">
  <advance width="500"/>
  <unicode hex="04A0"/>
  <anchor x="250" y="0" name="bottom"/>
  <anchor x="250" y="714" name="top"/>
  <outline>
    <contour>
      <point x="127" y="0" type="line"/>
      <point x="211" y="0" type="line"/>
      <point x="211" y="367" type="line"/>
      <point x="399" y="0" type="line"/>
      <point x="495" y="0" type="line"/>
      <point x="294" y="371" type="line"/>
      <point x="484" y="714" type="line"/>
      <point x="393" y="714" type="line"/>
      <point x="211" y="372" type="line"/>
      <point x="211" y="714" type="line"/>
      <point x="12" y="714" type="line"/>
      <point x="12" y="638" type="line"/>
      <point x="127" y="638" type="line"/>
    </contour>
  </outline>
</glyph>
<glyph name="uni04A1" format="2">
  <advance width="500"/>
  <unicode hex="04A1"/>
  <anchor x="250" y="0" name="bottom"/>
  <anchor x="250" y="536" name="top"/>
  <outline>
    <contour>
      <point x="110" y="0" type="line"/>
      <point x="191" y="0" type="line"/>
      <point x="191" y="278" type="line"/>
      <point x="400" y="0" type="line"/>
      <point x="493" y="0" type="line"/>
      <point x="280" y="283" type="line"/>
      <point x="484" y="537" type="line"/>
      <point x="387" y="537" type="line"/>
      <point x="191" y="282" type="line"/>
      <point x="191" y="537" type="line"/>
      <point x="10" y="537" type="line"/>
      <point x="10" y="467" type="line"/>
      <point x="110" y="467" type="line"/>
    </contour>
  </outline>
</glyph>
<glyph name="uni04A3" format="2">
  <advance width="500"/>
  <unicode hex="04A3"/>
  <anchor x="250" y="-187" name="bottom"/>
  <anchor x="250" y="536" name="top"/>
  <outline>
    <contour>
      <point x="414" y="-187" type="line"/>
      <point x="493" y="-187" type="line"/>
      <point x="493" y="71" type="line"/>
      <point x="441" y="71" type="line"/>
      <point x="441" y="537" type="line"/>
      <point x="360" y="537" type="line"/>
      <point x="360" y="314" type="line"/>
      <point x="141" y="314" type="line"/>
      <point x="141" y="537" type="line"/>
      <point x="60" y="537" type="line"/>
      <point x="60" y="0" type="line"/>
      <point x="141" y="0" type="line"/>
      <point x="141" y="244" type="line"/>
      <point x="360" y="244" type="line"/>
      <point x="360" y="0" type="line"/>
      <point x="414" y="0" type="line"/>
    </contour>
  </outline>
</glyph>
<glyph name="uni04A7" format="2">
  <advance width="500"/>
  <unicode hex="04A7"/>
  <anchor x="250" y="-244" name="bottom"/>
  <anchor x="176" y="536" name="top"/>
  <outline>
    <contour>
      <point x="349" y="-244" type="curve" smooth="yes"/>
      <point x="423" y="-244"/>
      <point x="480" y="-163"/>
      <point x="480" y="34" type="curve" smooth="yes"/>
      <point x="480" y="250"/>
      <point x="429" y="309"/>
      <point x="352" y="309" type="curve" smooth="yes"/>
      <point x="327" y="309"/>
      <point x="314" y="303"/>
      <point x="303" y="298" type="curve"/>
      <point x="303" y="537" type="line"/>
      <point x="46" y="537" type="line"/>
      <point x="46" y="0" type="line"/>
      <point x="127" y="0" type="line"/>
      <point x="127" y="466" type="line"/>
      <point x="222" y="466" type="line"/>
      <point x="222" y="0" type="line"/>
      <point x="303" y="0" type="line"/>
      <point x="303" y="228" type="line"/>
      <point x="313" y="233"/>
      <point x="322" y="238"/>
      <point x="343" y="238" type="curve" smooth="yes"/>
      <point x="375" y="238"/>
      <point x="398" y="198"/>
      <point x="398" y="31" type="curve" smooth="yes"/>
      <point x="398" y="-121"/>
      <point x="375" y="-172"/>
      <point x="334" y="-172" type="curve" smooth="yes"/>
      <point x="316" y="-172"/>
      <point x="305" y="-167"/>
      <point x="293" y="-162" type="curve"/>
      <point x="293" y="-232" type="line"/>
      <point x="308" y="-239"/>
      <point x="319" y="-244"/>
    </contour>
  </outline>
</glyph>
